<svg width="453" height="516" viewBox="0 0 453 516" fill="none" xmlns="http://www.w3.org/2000/svg">
<g clip-path="url(#clip0_2_4658)">
<rect x="54" y="11" width="112" height="113" rx="56" fill="white"/>
<path d="M87.5003 73.9997C80.3003 75.5997 74.8337 79.3331 73.0003 80.9997C72.167 81.4997 70.0003 83.8997 68.0003 89.4997C65.5003 96.4997 65.0003 95.9997 68.0003 103C79.5003 116 93.0003 122.5 109.5 123C122.7 123.4 132.667 118.833 136 116.5C134.834 109.166 131.3 92.4997 126.5 84.4997C120.5 74.4997 96.5003 71.9997 87.5003 73.9997Z" fill="#5C9CD0"/>
<path d="M97 83.4997C100.5 75.4997 103.187 43.8335 103.187 43.8335L130.159 45.0879C130.159 45.0879 129.41 51.0216 134.568 51.1373C139.726 51.2529 141.525 53.0321 134.471 57.4802C127.417 61.9283 131.191 71.6341 127.1 74.383C124.284 76.1861 121.283 77.6774 118.15 78.8311C118.15 78.8311 126.2 82.1494 128.572 86.7576C119 79.2108 104 89.6164 97 83.4997Z" fill="#EDCFC5"/>
<path d="M196.994 62.462L199.719 39.9458L165.384 38.1221L168.223 64.9797L196.659 65.2109L196.994 62.462Z" fill="white"/>
<path d="M118.15 80.1835C120.171 80.2037 122.161 79.6916 123.926 78.6978C126.737 77.0765 128.81 74.4109 129.701 71.2695C131.517 64.2949 133.105 60.0603 133.784 59.491C134.119 59.2686 134.665 59.0373 135.371 58.6903C137.522 57.6673 140.238 56.404 140.582 54.2422C140.69 53.676 140.666 53.0922 140.513 52.5366C140.36 51.9809 140.082 51.4686 139.7 51.0396C137.663 48.6465 133.016 48.6465 132.452 48.6465C132.295 48.6325 132.137 48.6517 131.987 48.7028C131.838 48.7539 131.7 48.8358 131.584 48.9433C131.468 49.0508 131.375 49.1816 131.311 49.3273C131.247 49.473 131.215 49.6305 131.215 49.7897C131.215 49.9489 131.247 50.1064 131.311 50.2521C131.375 50.3978 131.468 50.5286 131.584 50.6361C131.7 50.7436 131.838 50.8255 131.987 50.8766C132.137 50.9277 132.295 50.9469 132.452 50.9329C133.466 50.9329 136.861 51.2709 137.998 52.5342C138.17 52.7116 138.293 52.9318 138.353 53.1724C138.414 53.413 138.41 53.6655 138.342 53.9042C138.228 54.9272 135.847 55.9592 134.374 56.6442C133.581 56.9912 133.016 57.3292 132.452 57.5338C131.888 57.7384 130.406 58.9038 127.347 70.6735C127.021 71.9327 126.44 73.1105 125.642 74.133C124.844 75.1556 123.846 76.0009 122.709 76.6161C121.453 77.3082 120.064 77.7181 118.636 77.818C117.209 77.9178 115.777 77.705 114.438 77.1944C114.138 77.1036 113.814 77.1369 113.537 77.287C113.261 77.4372 113.056 77.6919 112.966 77.995C112.875 78.2982 112.909 78.6251 113.057 78.9037C113.206 79.1823 113.459 79.3899 113.759 79.4807C115.18 79.9329 116.66 80.1697 118.15 80.1835V80.1835Z" fill="#2C3B47"/>
<path d="M124.375 56.5197C123.562 56.5197 122.903 55.8545 122.903 55.034C122.903 54.2135 123.562 53.5483 124.375 53.5483C125.188 53.5483 125.848 54.2135 125.848 55.034C125.848 55.8545 125.188 56.5197 124.375 56.5197Z" fill="#2C3B47"/>
<path d="M118.151 57.5514C117.337 57.5514 116.678 56.8862 116.678 56.0657C116.678 55.2452 117.337 54.5801 118.151 54.5801C118.964 54.5801 119.623 55.2452 119.623 56.0657C119.623 56.8862 118.964 57.5514 118.151 57.5514Z" fill="#2C3B47"/>
<path d="M124.5 83.4999C130.1 86.2999 132.5 93.6666 133 96.9999L119.5 99.4999L117 95.9999C115.833 95.6666 113.4 94.9999 113 94.9999C112.6 94.9999 112.833 94.3332 113 93.9999C114.5 89.3332 118.9 80.6999 124.5 83.4999Z" fill="#EDCFC5"/>
<path d="M132.646 47.8369H104.325L99.7927 92.7537L66.9388 78.4665C66.9388 78.4665 77.5198 40.631 95.2605 42.8017C97.1915 36.859 99.9073 28.977 115.206 29.1994C132.646 29.4307 132.646 47.8369 132.646 47.8369Z" fill="#2C3B47"/>
<path d="M95.1547 43.8339C95.3499 43.8507 95.5457 43.8105 95.719 43.7182C95.8547 43.6449 95.9744 43.5448 96.0709 43.4238C96.1675 43.3028 96.2388 43.1634 96.2808 43.0139C96.3228 42.8645 96.3345 42.708 96.3152 42.5539C96.2959 42.3998 96.2461 42.2512 96.1687 42.1169C96.054 42.0013 94.2465 38.6919 91.0722 38.6919C90.7889 38.7171 90.5253 38.8485 90.3333 39.0601C90.1413 39.2717 90.0348 39.5482 90.0348 39.8351C90.0348 40.1219 90.1413 40.3984 90.3333 40.61C90.5253 40.8216 90.7889 40.953 91.0722 40.9782C92.9944 40.9782 94.1318 43.1489 94.2465 43.2645C94.3151 43.4467 94.4412 43.6011 94.6053 43.704C94.7693 43.8068 94.9624 43.8525 95.1547 43.8339Z" fill="#2C3B47"/>
<path d="M104.209 80.8688C104.209 80.8688 109.086 76.4207 110.329 74.5792C111.572 72.7376 113.618 71.8391 114.861 73.7785C115.195 74.5668 115.339 75.4237 115.28 76.279C115.222 77.1342 114.964 77.9633 114.526 78.6981C113.53 79.8368 106.934 82.2388 104.209 80.8688Z" fill="#EDCFC5"/>
<path d="M106.37 82.4696C109.897 82.4696 114.412 80.637 115.426 79.3826C116.563 77.7813 116.792 74.5787 115.77 73.093C115.492 72.6128 115.096 72.2131 114.62 71.9325C114.144 71.652 113.605 71.5002 113.054 71.4917V71.4917C112.296 71.55 111.566 71.8008 110.931 72.2208C110.296 72.6409 109.776 73.2164 109.421 73.8937C108.407 75.3793 104.783 78.8133 103.531 80.0676C103.396 80.1993 103.295 80.362 103.237 80.5418C103.179 80.7216 103.164 80.9131 103.196 81.0996C103.321 81.4623 103.559 81.7744 103.875 81.9892C104.67 82.3035 105.516 82.4664 106.37 82.4696ZM113.054 73.8047C113.16 73.8047 113.503 73.8047 113.847 74.383C114.035 74.9846 114.102 75.6183 114.043 76.2463C113.984 76.8744 113.8 77.4841 113.503 78.0393C112.939 78.7243 109.315 80.0943 106.591 80.21C108.261 78.6912 109.814 77.0466 111.237 75.2904C111.802 74.4008 112.481 73.8047 113.054 73.8047Z" fill="#2C3B47"/>
<path d="M117.938 92.8693C116.364 92.9373 114.799 92.5811 113.406 91.8374C112.942 94.1544 112.354 96.4441 111.643 98.6963L98.725 89.0973C98.725 89.0973 101.106 81.9804 105.294 80.4058C109.482 78.8312 117.303 77.6658 123.079 80.4058C125.01 81.5534 125.724 84.071 123.079 84.8539C124.666 85.9926 126.482 88.9639 122.744 90.1916C124.331 91.4548 124.216 92.9405 123.193 94.0792C120.478 97.1662 114.693 95.5649 112.657 95.5649" fill="#EDCFC5"/>
<path d="M111.582 99.8442H111.917C112.092 99.7872 112.249 99.6822 112.368 99.5408C112.488 99.3995 112.567 99.2273 112.596 99.0436C112.596 98.9279 112.939 98.0116 113.274 96.7572C113.504 96.7572 113.733 96.8729 114.068 96.8729C116.793 97.211 121.431 97.7625 123.926 94.809C124.477 94.2468 124.83 93.5181 124.932 92.7341C125.034 91.9502 124.879 91.1542 124.49 90.4677C124.877 90.2352 125.209 89.9207 125.463 89.5459C125.718 89.171 125.888 88.7449 125.963 88.297C126.068 87.0997 125.704 85.9086 124.949 84.9787C125.22 84.7593 125.44 84.482 125.592 84.1666C125.745 83.8513 125.826 83.5058 125.831 83.155C125.864 82.3557 125.668 81.5636 125.266 80.8739C124.864 80.1843 124.273 79.6264 123.564 79.2674C117.674 76.4117 109.747 77.2124 104.766 79.1517C100.119 80.9843 97.6235 88.297 97.5089 88.5283C97.4355 88.759 97.4409 89.0078 97.524 89.2352C97.6071 89.4625 97.7632 89.6552 97.9674 89.7826L110.885 99.3816C110.95 99.514 111.049 99.6265 111.171 99.7078C111.294 99.789 111.435 99.8361 111.582 99.8442V99.8442ZM111.467 95.2716C111.352 95.841 111.123 96.2946 111.008 96.7572L100.022 88.6439C100.904 86.4644 102.967 82.47 105.577 81.438C109.315 79.9524 116.898 78.698 122.453 81.438C123.132 81.8917 123.582 82.5856 123.476 83.0393C123.37 83.4931 122.903 83.6087 122.595 83.7243C122.391 83.7799 122.209 83.8933 122.068 84.0511C121.927 84.2089 121.834 84.4044 121.801 84.614C121.753 84.8274 121.771 85.0503 121.851 85.2535C121.931 85.4567 122.071 85.6307 122.251 85.7527C122.634 86.0022 122.955 86.339 123.186 86.7361C123.417 87.1331 123.553 87.5794 123.582 88.039C123.476 88.6173 122.797 88.9286 122.11 89.1866C121.918 89.2604 121.746 89.3797 121.609 89.5346C121.473 89.6894 121.375 89.8752 121.325 90.0762C121.286 90.2895 121.308 90.5093 121.388 90.7106C121.467 90.912 121.601 91.0867 121.775 91.2149C121.981 91.3371 122.159 91.5029 122.296 91.701C122.433 91.8991 122.526 92.1248 122.568 92.3625C122.554 92.785 122.392 93.1887 122.11 93.5013C120.417 95.5563 116.678 95.1026 114.297 94.7556H113.848C113.972 94.3878 114.046 94.0048 114.068 93.6169C115.246 93.955 116.468 94.1081 117.692 94.0706C117.849 94.0846 118.008 94.0655 118.157 94.0144C118.307 93.9633 118.444 93.8814 118.56 93.7739C118.677 93.6664 118.77 93.5356 118.833 93.3898C118.897 93.2441 118.93 93.0867 118.93 92.9274C118.93 92.7682 118.897 92.6108 118.833 92.465C118.77 92.3193 118.677 92.1885 118.56 92.081C118.444 91.9735 118.307 91.8916 118.157 91.8405C118.008 91.7895 117.849 91.7703 117.692 91.7843C116.361 91.8994 115.025 91.6212 113.848 90.9836C113.698 90.8859 113.527 90.8246 113.35 90.8045C113.172 90.7845 112.993 90.8062 112.825 90.868C112.659 90.9417 112.513 91.0519 112.395 91.1905C112.278 91.329 112.192 91.4924 112.146 91.6686C112.051 92.8766 111.824 94.0701 111.467 95.2271V95.2716Z" fill="#2C3B47"/>
<path d="M123.015 86.0103C123.22 86.0113 123.421 85.9594 123.6 85.8598C123.779 85.7601 123.93 85.6159 124.038 85.4409C124.115 85.3061 124.164 85.1571 124.183 85.0026C124.202 84.8481 124.189 84.6914 124.146 84.5419C124.104 84.3924 124.031 84.2531 123.934 84.1324C123.836 84.0117 123.716 83.9122 123.579 83.8396C121.889 82.8538 119.984 82.3038 118.033 82.2383C117.876 82.2243 117.718 82.2435 117.568 82.2946C117.419 82.3456 117.281 82.4276 117.165 82.5351C117.049 82.6426 116.956 82.7734 116.892 82.9191C116.829 83.0648 116.796 83.2223 116.796 83.3815C116.796 83.5407 116.829 83.6982 116.892 83.8439C116.956 83.9896 117.049 84.1204 117.165 84.2279C117.281 84.3354 117.419 84.4173 117.568 84.4684C117.718 84.5195 117.876 84.5386 118.033 84.5246C119.561 84.597 121.044 85.0692 122.336 85.8947C122.554 85.973 122.784 86.0122 123.015 86.0103Z" fill="#2C3B47"/>
<path d="M122.682 91.3837C122.885 91.3848 123.085 91.333 123.263 91.2333C123.441 91.1335 123.59 90.9892 123.696 90.8144C123.773 90.6801 123.823 90.5315 123.843 90.3774C123.862 90.2233 123.85 90.0668 123.808 89.9174C123.766 89.7679 123.695 89.6285 123.598 89.5075C123.502 89.3865 123.382 89.2864 123.246 89.2131C121.524 88.2783 119.637 87.6949 117.691 87.4961C117.542 87.4961 117.395 87.5258 117.257 87.5836C117.12 87.6414 116.995 87.7261 116.89 87.8327C116.785 87.9394 116.702 88.066 116.646 88.2052C116.59 88.3444 116.562 88.4934 116.563 88.6437C116.554 88.7956 116.577 88.9477 116.63 89.09C116.684 89.2322 116.767 89.3614 116.873 89.469C116.98 89.5766 117.108 89.6602 117.249 89.7142C117.39 89.7682 117.541 89.7915 117.691 89.7824C119.275 89.9422 120.814 90.4073 122.223 91.1524C122.278 91.2228 122.348 91.28 122.427 91.32C122.506 91.36 122.593 91.3818 122.682 91.3837V91.3837Z" fill="#2C3B47"/>
<path d="M75.7831 110.929L92.889 84.9785L114.633 100.867L80.6503 132.191C78.4691 134.165 75.6453 135.264 72.7146 135.278V135.278C70.9854 135.278 69.2774 134.893 67.7123 134.151C66.1471 133.409 64.7634 132.328 63.6596 130.985C62.5558 129.642 61.759 128.07 61.3261 126.381C60.8932 124.692 60.8347 122.927 61.1549 121.213C64.0999 105.324 67.1596 84.8718 73.0497 80.6372" fill="#5C9CD0"/>
<path d="M72.6085 136.416C75.833 136.391 78.936 135.172 81.3289 132.991L115.294 101.668C115.512 101.424 115.632 101.107 115.629 100.778C115.591 100.436 115.431 100.12 115.179 99.8886L93.4265 84C93.1734 83.8106 92.8573 83.7277 92.5448 83.7687C92.3893 83.7875 92.239 83.8373 92.1028 83.9152C91.9666 83.9931 91.847 84.0975 91.7512 84.2224L74.6453 110.173C74.5637 110.3 74.5078 110.443 74.4809 110.593C74.454 110.743 74.4566 110.896 74.4885 111.045C74.5205 111.194 74.5811 111.335 74.667 111.46C74.7529 111.585 74.8624 111.692 74.9892 111.774C75.116 111.856 75.2576 111.913 75.406 111.94C75.5544 111.967 75.7066 111.964 75.854 111.932C76.0014 111.9 76.141 111.839 76.2649 111.752C76.3889 111.665 76.4947 111.555 76.5763 111.427L92.9944 86.5176L112.596 100.921L79.6272 131.212C78.5611 132.176 77.3134 132.912 75.9586 133.378C74.6038 133.844 73.1698 134.029 71.7424 133.923C70.3151 133.816 68.9236 133.421 67.6513 132.759C66.379 132.098 65.252 131.184 64.3377 130.073C63.3471 128.86 62.631 127.444 62.2396 125.922C61.8482 124.401 61.7909 122.812 62.0716 121.266C62.4067 119.442 62.7505 117.494 63.0944 115.555C65.581 101.952 68.6406 84.9252 73.402 81.3756C73.6417 81.1939 73.8001 80.9236 73.8423 80.6242C73.8844 80.3247 73.807 80.0206 73.6269 79.7787C73.4468 79.5369 73.1789 79.3771 72.8821 79.3346C72.5853 79.292 72.2839 79.3702 72.0442 79.5519C66.6038 83.5463 63.6587 99.6662 60.8283 115.137C60.4845 117.085 60.1494 119.024 59.8055 120.857C59.4597 122.759 59.5302 124.714 60.0121 126.586C60.494 128.457 61.3757 130.2 62.5954 131.692C63.8151 133.183 65.3433 134.388 67.073 135.221C68.8027 136.054 70.6919 136.495 72.6085 136.514V136.416Z" fill="#2C3B47"/>
<path d="M125.963 122.814L114.5 100.983L137.725 93.439L145.308 121.56C145.756 123.18 145.826 124.884 145.512 126.536C145.199 128.188 144.51 129.745 143.501 131.084C142.491 132.423 141.188 133.508 139.694 134.254C138.199 135 136.554 135.387 134.886 135.384V135.384C132.228 135.347 129.666 134.378 127.638 132.644L121.184 126.817" fill="#5C9CD0"/>
<path d="M134.913 136.416C136.756 136.406 138.573 135.968 140.222 135.137C141.872 134.307 143.311 133.105 144.427 131.625C145.544 130.145 146.309 128.427 146.664 126.601C147.018 124.776 146.953 122.893 146.472 121.097L138.881 93.1006C138.766 92.7537 138.651 92.5224 138.316 92.4156C138.048 92.2645 137.732 92.2231 137.434 92.3L114.209 99.8439C114.048 99.8919 113.902 99.9797 113.784 100.099C113.665 100.219 113.578 100.367 113.53 100.529C113.422 100.815 113.422 101.132 113.53 101.419L124.993 123.25C125.144 123.522 125.396 123.723 125.693 123.808C125.991 123.893 126.31 123.856 126.58 123.703C126.85 123.551 127.049 123.297 127.134 122.997C127.218 122.697 127.181 122.375 127.03 122.102L116.176 101.445L137.02 94.6931L144.277 121.675C144.679 123.138 144.734 124.675 144.439 126.163C144.143 127.652 143.505 129.049 142.575 130.242C141.773 131.318 140.759 132.213 139.596 132.872C138.433 133.531 137.147 133.939 135.819 134.069C134.492 134.2 133.152 134.05 131.885 133.63C130.617 133.21 129.451 132.529 128.458 131.63L122.004 125.803C121.893 125.704 121.764 125.628 121.623 125.58C121.483 125.532 121.334 125.512 121.186 125.523C121.038 125.534 120.894 125.574 120.762 125.642C120.63 125.71 120.512 125.804 120.417 125.919C120.316 126.029 120.239 126.16 120.19 126.302C120.141 126.444 120.121 126.594 120.132 126.744C120.142 126.894 120.183 127.04 120.252 127.174C120.321 127.307 120.416 127.425 120.531 127.52L126.986 133.347C129.165 135.317 131.987 136.409 134.913 136.416V136.416Z" fill="#2C3B47"/>
<path d="M127.098 151.736C127.098 151.736 119.735 122.013 118.598 116.151Z" fill="white"/>
<path d="M127.099 152.874H127.319C127.464 152.843 127.6 152.781 127.72 152.693C127.839 152.606 127.94 152.494 128.014 152.365C128.089 152.236 128.136 152.093 128.153 151.945C128.17 151.797 128.156 151.647 128.113 151.504C128.007 151.157 120.75 121.782 119.621 115.919C119.591 115.769 119.532 115.627 119.447 115.5C119.363 115.372 119.254 115.263 119.127 115.179C119.001 115.094 118.859 115.035 118.71 115.006C118.561 114.977 118.408 114.977 118.259 115.008C118.11 115.038 117.969 115.098 117.843 115.183C117.717 115.269 117.609 115.378 117.525 115.506C117.441 115.634 117.383 115.777 117.354 115.927C117.325 116.077 117.325 116.232 117.355 116.382C118.484 122.325 125.511 150.784 125.846 152.038C125.955 152.283 126.13 152.491 126.352 152.639C126.574 152.787 126.833 152.869 127.099 152.874Z" fill="#2C3B47"/>
<path d="M132.311 96.2942H132.54C132.684 96.2616 132.819 96.1993 132.938 96.1112C133.057 96.0232 133.156 95.9113 133.23 95.7826C133.304 95.6539 133.35 95.5112 133.366 95.3634C133.383 95.2157 133.369 95.0661 133.325 94.9242C133.219 94.5861 130.953 85.0939 125.063 82.4695C124.928 82.4027 124.781 82.3643 124.631 82.3565C124.481 82.3487 124.331 82.3717 124.189 82.4241C124.048 82.4766 123.919 82.5574 123.81 82.6616C123.701 82.7659 123.614 82.8914 123.554 83.0306C123.494 83.1698 123.463 83.3198 123.463 83.4714C123.462 83.6231 123.492 83.7734 123.551 83.913C123.609 84.0527 123.695 84.1789 123.804 84.284C123.912 84.3891 124.041 84.4709 124.181 84.5245C129.048 86.6952 131.235 95.3868 131.235 95.4935C131.331 95.7093 131.48 95.8964 131.669 96.0367C131.857 96.177 132.078 96.2657 132.311 96.2942V96.2942Z" fill="#2C3B47"/>
<path d="M119.393 99.2659C119.393 99.2659 117.126 96.0722 115.998 95.9565Z" fill="white"/>
<path d="M119.392 100.413C119.633 100.391 119.866 100.312 120.071 100.182C120.205 100.104 120.319 99.9963 120.405 99.8673C120.491 99.7383 120.548 99.5913 120.57 99.4373C120.592 99.2833 120.579 99.1263 120.532 98.9779C120.486 98.8296 120.406 98.6938 120.3 98.5807C119.419 97.2107 117.585 94.9244 116.112 94.8087C115.961 94.7833 115.807 94.7907 115.659 94.8304C115.511 94.87 115.373 94.9411 115.255 95.0388C115.136 95.1364 115.04 95.2585 114.972 95.3968C114.903 95.5351 114.865 95.6864 114.86 95.8407C114.844 95.9911 114.858 96.1431 114.901 96.2879C114.944 96.4328 115.016 96.5675 115.111 96.6842C115.206 96.801 115.323 96.8975 115.456 96.968C115.588 97.0385 115.734 97.0817 115.883 97.0951C116.881 97.9165 117.757 98.8782 118.484 99.9508C118.583 100.1 118.719 100.221 118.878 100.302C119.037 100.383 119.214 100.421 119.392 100.413V100.413Z" fill="#2C3B47"/>
<path d="M63.0938 111.169C63.0938 111.169 56.5159 139.859 53.2358 157.571Z" fill="white"/>
<path d="M53.2374 158.701C53.5002 158.715 53.7589 158.632 53.9662 158.469C54.1735 158.305 54.3155 158.072 54.3661 157.812C57.655 140.206 64.1094 111.747 64.224 111.4C64.2836 111.097 64.2215 110.782 64.0511 110.525C63.8808 110.268 63.6163 110.09 63.3158 110.03C63.0153 109.97 62.7034 110.033 62.4487 110.205C62.1941 110.376 62.0175 110.643 61.9579 110.946C61.8433 111.284 55.3889 139.859 52.1 157.465C52.0606 157.762 52.1278 158.063 52.2895 158.314C52.4513 158.566 52.6968 158.75 52.9817 158.835C53.0127 158.795 53.0514 158.763 53.0955 158.74C53.1395 158.717 53.1879 158.704 53.2374 158.701V158.701Z" fill="#2C3B47"/>
<path d="M168.198 66.1187H193.371C193.655 66.0935 193.918 65.9621 194.11 65.7505C194.302 65.5389 194.409 65.2624 194.409 64.9755C194.409 64.6887 194.302 64.4122 194.11 64.2006C193.918 63.989 193.655 63.8576 193.371 63.8324H169.238L166.637 39.3768L198.468 41.0937L195.867 62.3467C195.849 62.4973 195.86 62.65 195.902 62.7959C195.943 62.9417 196.013 63.0776 196.108 63.1955C196.203 63.3134 196.32 63.4109 196.453 63.4821C196.585 63.5533 196.731 63.5968 196.881 63.61C197.03 63.626 197.182 63.6119 197.326 63.5685C197.47 63.5252 197.604 63.4535 197.72 63.3575C197.837 63.2616 197.933 63.1433 198.004 63.0095C198.075 62.8757 198.119 62.729 198.133 62.578L200.822 40.0618C200.862 39.7465 200.78 39.428 200.593 39.1722C200.37 38.9562 200.097 38.8002 199.799 38.7185L165.473 36.8858C165.146 36.8816 164.829 37.006 164.591 37.2328C164.368 37.474 164.245 37.7924 164.247 38.1224L167.078 64.98C167.096 65.2744 167.22 65.552 167.426 65.7614C167.632 65.9708 167.906 66.0978 168.198 66.1187V66.1187Z" fill="#2C3B47"/>
<path fill-rule="evenodd" clip-rule="evenodd" d="M110 121.5C139.526 121.5 163.5 97.3444 163.5 67.5C163.5 37.6556 139.526 13.5 110 13.5C80.4737 13.5 56.5 37.6556 56.5 67.5C56.5 97.3444 80.4737 121.5 110 121.5ZM110 124C140.928 124 166 98.7041 166 67.5C166 36.2959 140.928 11 110 11C79.0721 11 54 36.2959 54 67.5C54 98.7041 79.0721 124 110 124Z" fill="#2C3B47"/>
</g>
<g clip-path="url(#clip1_2_4658)">
<rect x="241" y="34" width="158" height="157" rx="78.5" fill="white"/>
<path d="M369.602 203.116C369.602 203.116 360.723 143.945 355.914 133.654C351.106 123.363 350.23 114.296 335.63 112.482C321.03 110.669 302.334 116.934 302.334 116.934C302.334 116.934 294.003 120.316 291.548 125.013C289.094 129.71 285.097 138.305 285.27 142.621C285.444 146.937 287.716 166.567 293.428 166.268C299.14 165.969 299.989 164.989 299.989 164.989L292.835 192.481C292.835 192.481 346.981 212.156 369.602 203.116Z" fill="#FDF0C3"/>
<path d="M295.5 122C290 123 288.667 130.167 288 133.5L300.5 138L303 136L308 127.5C305.667 125.167 299.987 121.184 295.5 122Z" fill="#915A12"/>
<path d="M316.76 119.092C316.76 119.092 311.723 114.558 310.436 112.681C309.15 110.804 307.033 109.889 305.746 111.865C305.398 112.668 305.248 113.542 305.309 114.414C305.369 115.286 305.638 116.131 306.093 116.879C307.151 118.04 313.949 120.488 316.76 119.092Z" fill="#915A12"/>
<path d="M317.114 120.252C317.441 120.033 317.687 119.715 317.817 119.346C317.85 119.155 317.835 118.959 317.773 118.775C317.71 118.592 317.603 118.426 317.461 118.294C316.175 117.015 312.424 113.516 311.366 112.001C311 111.312 310.464 110.725 309.808 110.297C309.152 109.869 308.398 109.613 307.616 109.553V109.553C307.045 109.562 306.487 109.717 305.995 110.003C305.502 110.288 305.093 110.696 304.805 111.185C303.747 112.699 303.984 115.964 305.152 117.596C306.21 118.874 310.9 120.742 314.532 120.742C315.416 120.739 316.291 120.573 317.114 120.252ZM307.616 111.865C308.2 111.865 308.911 112.455 309.495 113.38C310.968 115.169 312.576 116.846 314.304 118.394C311.484 118.276 307.734 116.879 307.15 116.181C306.843 115.615 306.653 114.994 306.592 114.354C306.531 113.714 306.6 113.068 306.794 112.455C307.15 111.865 307.497 111.865 307.616 111.865Z" fill="#2C3B47"/>
<path d="M307.269 130.272C307.764 132.634 308.389 134.968 309.14 137.262L322.508 127.479C322.508 127.479 320.044 120.225 315.71 118.63C311.376 117.034 303.282 115.828 297.305 118.63C295.307 119.79 294.568 122.356 297.305 123.163C295.663 124.324 293.783 127.352 297.652 128.603C296.009 129.891 296.128 131.405 297.187 132.566C299.997 135.712 305.974 134.08 308.091 134.08" fill="#915A12"/>
<path d="M309.841 137.942L323.208 128.159C323.418 128.028 323.578 127.831 323.662 127.599C323.746 127.368 323.751 127.115 323.674 126.881C323.564 126.645 320.982 119.192 316.173 117.324C311.018 115.347 302.806 114.531 296.71 117.442C295.977 117.808 295.365 118.376 294.949 119.079C294.533 119.782 294.331 120.589 294.365 121.404C294.37 121.762 294.455 122.113 294.612 122.435C294.77 122.756 294.997 123.039 295.278 123.263C294.498 124.212 294.118 125.424 294.219 126.645C294.299 127.102 294.477 127.536 294.741 127.918C295.006 128.3 295.351 128.62 295.752 128.857C295.35 129.557 295.189 130.368 295.295 131.167C295.4 131.966 295.766 132.709 296.336 133.282C298.909 136.31 303.718 135.73 306.538 135.385C306.884 135.385 307.122 135.268 307.35 135.268C307.706 136.546 308.061 137.48 308.061 137.598C308.089 137.786 308.17 137.962 308.294 138.107C308.418 138.251 308.581 138.358 308.764 138.414H309.165C309.309 138.4 309.447 138.349 309.565 138.266C309.684 138.184 309.779 138.072 309.841 137.942V137.942ZM309.257 133.753C308.888 132.574 308.652 131.358 308.554 130.127C308.507 129.946 308.419 129.779 308.298 129.638C308.176 129.497 308.023 129.385 307.851 129.311C307.679 129.243 307.493 129.218 307.309 129.237C307.125 129.256 306.948 129.319 306.793 129.419C305.571 130.069 304.186 130.352 302.805 130.235C302.512 130.261 302.24 130.395 302.041 130.611C301.842 130.826 301.732 131.108 301.732 131.401C301.732 131.693 301.842 131.975 302.041 132.19C302.24 132.406 302.512 132.54 302.805 132.566C304.075 132.604 305.343 132.448 306.565 132.103C306.583 132.499 306.66 132.89 306.793 133.264H306.328C303.864 133.617 299.995 134.08 298.234 131.985C297.945 131.665 297.781 131.254 297.769 130.825C297.811 130.582 297.906 130.351 298.048 130.149C298.19 129.947 298.375 129.778 298.59 129.655C298.768 129.524 298.906 129.346 298.989 129.141C299.071 128.936 299.094 128.712 299.055 128.495C299.002 128.289 298.899 128.099 298.756 127.942C298.613 127.784 298.434 127.662 298.234 127.588C297.531 127.352 296.829 127.008 296.71 126.418C296.746 125.948 296.891 125.492 297.135 125.088C297.379 124.683 297.715 124.341 298.115 124.088C298.304 123.966 298.451 123.789 298.536 123.582C298.621 123.374 298.639 123.146 298.59 122.927C298.553 122.715 298.457 122.516 298.311 122.356C298.166 122.196 297.978 122.079 297.769 122.021C297.413 121.903 296.856 121.785 296.856 121.323C296.856 120.86 297.212 120.162 297.915 119.69C303.654 116.898 311.511 118.176 315.379 119.69C318.117 120.742 320.188 124.813 321.128 127.035L309.749 135.304C309.64 134.832 309.403 134.397 309.284 133.79L309.257 133.753Z" fill="#2C3B47"/>
<path d="M297.306 124.341C297.095 124.342 296.886 124.29 296.701 124.188C296.516 124.087 296.36 123.94 296.248 123.761C296.167 123.624 296.116 123.473 296.096 123.316C296.076 123.159 296.088 122.999 296.132 122.847C296.175 122.695 296.249 122.553 296.349 122.429C296.449 122.306 296.573 122.204 296.713 122.129C298.466 121.126 300.44 120.566 302.462 120.497C302.755 120.523 303.028 120.657 303.226 120.872C303.425 121.088 303.535 121.37 303.535 121.662C303.535 121.955 303.425 122.236 303.226 122.452C303.028 122.668 302.755 122.802 302.462 122.827C300.881 122.901 299.346 123.382 298.009 124.224C297.783 124.303 297.545 124.343 297.306 124.341V124.341Z" fill="#2C3B47"/>
<path d="M297.652 129.782C297.441 129.782 297.233 129.729 297.048 129.628C296.863 129.526 296.706 129.38 296.594 129.202C296.515 129.064 296.465 128.912 296.447 128.755C296.428 128.598 296.441 128.439 296.485 128.287C296.53 128.135 296.604 127.993 296.704 127.87C296.804 127.747 296.928 127.645 297.068 127.57C298.848 126.618 300.798 126.024 302.808 125.82C303.12 125.82 303.419 125.943 303.64 126.162C303.861 126.382 303.985 126.679 303.985 126.989C303.993 127.145 303.968 127.3 303.911 127.445C303.855 127.59 303.768 127.721 303.657 127.831C303.546 127.94 303.413 128.026 303.267 128.08C303.12 128.135 302.964 128.159 302.808 128.15C301.169 128.314 299.577 128.788 298.118 129.546C298.064 129.619 297.994 129.678 297.913 129.719C297.832 129.76 297.743 129.781 297.652 129.782Z" fill="#2C3B47"/>
<path d="M346.187 149.73L328.485 123.281L305.975 139.475L341.105 171.4C343.362 173.413 346.284 174.532 349.317 174.546C351.107 174.546 352.874 174.154 354.494 173.398C356.114 172.642 357.546 171.54 358.688 170.171C359.83 168.803 360.655 167.2 361.103 165.479C361.551 163.757 361.611 161.959 361.28 160.211C358.232 144.017 355.066 123.172 348.97 118.856" fill="#FDF0C3"/>
<path d="M349.473 175.706C346.135 175.682 342.924 174.439 340.448 172.215L305.272 140.29C305.045 140.043 304.921 139.719 304.926 139.384C304.961 139.034 305.127 138.711 305.391 138.477L327.902 122.283C328.164 122.09 328.491 122.006 328.814 122.048C328.976 122.067 329.132 122.119 329.273 122.2C329.415 122.281 329.538 122.389 329.635 122.519L347.337 148.958C347.422 149.089 347.48 149.235 347.508 149.387C347.535 149.54 347.533 149.696 347.5 149.848C347.467 149.999 347.404 150.143 347.315 150.27C347.226 150.398 347.113 150.507 346.982 150.591C346.85 150.675 346.704 150.732 346.55 150.76C346.397 150.787 346.239 150.785 346.087 150.752C345.934 150.719 345.79 150.657 345.661 150.568C345.533 150.48 345.424 150.367 345.339 150.237L328.34 124.849L308.064 139.529L342.2 170.348C343.304 171.33 344.596 172.081 345.999 172.556C347.402 173.03 348.886 173.219 350.364 173.111C351.842 173.003 353.283 172.599 354.6 171.925C355.918 171.251 357.085 170.32 358.032 169.187C359.057 167.951 359.798 166.507 360.203 164.956C360.608 163.406 360.667 161.786 360.377 160.211C360.021 158.352 359.674 156.366 359.318 154.39C356.745 140.526 353.579 123.172 348.651 119.554C348.403 119.369 348.239 119.093 348.196 118.788C348.152 118.483 348.232 118.173 348.419 117.927C348.605 117.68 348.882 117.517 349.189 117.474C349.497 117.431 349.809 117.51 350.057 117.695C355.687 121.767 358.734 138.196 361.663 153.964C362.019 155.94 362.366 157.917 362.722 159.785C363.078 161.723 363.004 163.715 362.505 165.622C362.005 167.529 361.093 169.304 359.831 170.824C358.569 172.344 356.988 173.572 355.199 174.421C353.41 175.271 351.455 175.722 349.473 175.742V175.706Z" fill="#2C3B47"/>
<path d="M294.249 161.843L306.111 139.593L282.077 131.904L274.202 160.61C273.749 162.259 273.685 163.99 274.014 165.668C274.343 167.346 275.057 168.926 276.1 170.285C277.144 171.644 278.488 172.746 280.029 173.506C281.57 174.265 283.267 174.661 284.987 174.664C287.741 174.62 290.395 173.63 292.497 171.862L299.131 165.923" fill="#FDF0C3"/>
<path d="M284.987 175.706C283.079 175.696 281.199 175.25 279.492 174.404C277.786 173.557 276.297 172.332 275.142 170.823C273.987 169.315 273.196 167.563 272.831 165.702C272.465 163.842 272.534 161.923 273.033 160.093L280.881 131.595C280.999 131.242 281.109 131.006 281.465 130.897C281.742 130.743 282.069 130.701 282.377 130.779L306.43 138.432C306.596 138.482 306.746 138.572 306.869 138.694C306.991 138.816 307.082 138.965 307.133 139.13C307.245 139.422 307.245 139.745 307.133 140.037L295.27 162.287C295.193 162.425 295.089 162.546 294.965 162.643C294.841 162.741 294.698 162.813 294.546 162.856C294.393 162.899 294.233 162.912 294.076 162.894C293.919 162.875 293.766 162.826 293.628 162.75C293.489 162.673 293.368 162.57 293.269 162.446C293.171 162.322 293.098 162.181 293.055 162.029C293.012 161.878 292.999 161.719 293.018 161.563C293.036 161.406 293.085 161.255 293.163 161.117L304.295 140.037L282.724 133.164L275.223 160.655C274.805 162.146 274.747 163.713 275.053 165.23C275.359 166.747 276.02 168.171 276.984 169.387C277.916 170.612 279.119 171.607 280.501 172.294C281.882 172.981 283.405 173.342 284.95 173.349C287.418 173.329 289.794 172.421 291.639 170.792L298.318 164.844C298.555 164.671 298.848 164.592 299.141 164.625C299.433 164.657 299.702 164.798 299.894 165.019C300.087 165.24 300.188 165.525 300.178 165.817C300.169 166.109 300.049 166.386 299.842 166.594L293.163 172.533C290.92 174.55 288.011 175.679 284.987 175.706V175.706Z" fill="#2C3B47"/>
<path d="M293.081 191.32C293.081 191.32 300.7 161.027 301.877 155.052Z" fill="white"/>
<path d="M293.081 192.481H292.844C292.695 192.446 292.556 192.382 292.433 192.292C292.311 192.202 292.208 192.088 292.131 191.958C292.054 191.827 292.005 191.682 291.986 191.532C291.968 191.382 291.98 191.23 292.022 191.084C292.141 190.74 299.642 160.8 300.819 154.816C300.882 154.507 301.065 154.236 301.33 154.061C301.594 153.887 301.917 153.824 302.228 153.887C302.539 153.949 302.813 154.132 302.988 154.395C303.163 154.658 303.227 154.979 303.164 155.288C301.987 161.345 294.723 190.35 294.367 191.628C294.258 191.879 294.079 192.092 293.851 192.243C293.623 192.394 293.355 192.477 293.081 192.481V192.481Z" fill="#2C3B47"/>
<path d="M287.106 134.164H286.868C286.72 134.13 286.579 134.067 286.456 133.977C286.333 133.888 286.23 133.774 286.152 133.643C286.075 133.512 286.026 133.367 286.008 133.216C285.99 133.065 286.003 132.913 286.047 132.767C286.166 132.423 288.511 122.748 294.606 120.074C294.883 119.97 295.189 119.976 295.461 120.09C295.733 120.205 295.95 120.419 296.067 120.689C296.185 120.958 296.193 121.262 296.091 121.538C295.989 121.813 295.784 122.039 295.519 122.168C290.482 124.381 288.219 133.239 288.219 133.348C288.121 133.568 287.966 133.759 287.771 133.902C287.576 134.046 287.347 134.136 287.106 134.164Z" fill="#2C3B47"/>
<path d="M301.055 137.843C301.055 137.843 303.4 134.588 304.568 134.47Z" fill="white"/>
<path d="M301.057 139.012C300.808 138.989 300.567 138.909 300.355 138.777C300.215 138.698 300.096 138.589 300.005 138.458C299.915 138.326 299.856 138.176 299.833 138.018C299.81 137.861 299.824 137.7 299.873 137.549C299.923 137.397 300.006 137.259 300.117 137.145C301.03 135.748 302.928 133.418 304.452 133.3C304.608 133.276 304.767 133.284 304.92 133.325C305.072 133.366 305.214 133.439 305.336 133.538C305.459 133.637 305.558 133.761 305.629 133.901C305.7 134.042 305.74 134.195 305.747 134.352C305.764 134.505 305.749 134.66 305.705 134.808C305.66 134.955 305.586 135.093 305.488 135.212C305.389 135.331 305.268 135.429 305.131 135.501C304.994 135.573 304.843 135.617 304.689 135.63C303.638 136.466 302.716 137.449 301.951 138.55C301.853 138.695 301.719 138.813 301.563 138.894C301.407 138.975 301.233 139.015 301.057 139.012Z" fill="#2C3B47"/>
<path d="M359.353 149.965C359.353 149.965 366.151 179.206 369.555 197.258Z" fill="white"/>
<path d="M369.138 198.501C368.862 198.507 368.593 198.414 368.38 198.239C368.168 198.064 368.025 197.819 367.979 197.549C364.859 179.56 358.626 150.455 358.508 150.101C358.451 149.791 358.52 149.471 358.701 149.212C358.881 148.952 359.158 148.775 359.47 148.718C359.783 148.662 360.105 148.731 360.366 148.91C360.627 149.09 360.805 149.365 360.862 149.675C360.971 150.02 367.249 179.243 370.334 197.232C370.372 197.533 370.301 197.838 370.134 198.092C369.967 198.346 369.714 198.533 369.421 198.619C369.385 198.58 369.342 198.549 369.293 198.529C369.244 198.509 369.191 198.499 369.138 198.501Z" fill="#2C3B47"/>
<path d="M301.867 72.2246C301.867 72.2246 292.505 71.8438 292.505 76.7581C292.505 80.0495 299.13 81.9263 301.302 83.5312C303.473 85.1361 302.342 97.3493 308.017 103.27C310.855 106.181 316.723 108.157 322.489 107.033L322.964 106.933L324.287 113.706C324.287 113.706 330.063 116.617 334.415 114.549C334.79 109.943 335.638 95.001 335.638 95.001C335.638 95.001 341.788 97.44 343.212 91.891C344.635 86.342 339.142 83.3408 334.999 86.07L336.605 70.5563L303.756 69.9941L301.867 72.2246Z" fill="#915A12"/>
<path d="M334.934 86.2603L334.359 71.3178L303.618 70.0938C303.618 70.0938 292.167 55.9945 309.193 52.1411C314.303 51.2344 316.493 57.2186 316.493 57.2186C316.493 57.2186 324.915 48.0065 336.358 52.3315C347.8 56.6564 345.902 68.1262 345.902 68.1262C345.902 68.1262 354.233 70.5743 353.376 77.5287C352.518 84.4831 347.8 87.1216 347.8 87.1216C347.8 87.1216 356.213 92.7613 351.103 99.5253C345.994 106.289 335.217 100.749 335.217 100.749L335.5 95.2003C335.5 95.2003 338.995 96.4244 340.792 95.2003C342.012 94.2901 342.827 92.9437 343.065 91.4466C343.268 90.4977 343.219 89.5124 342.921 88.5884C342.623 87.6643 342.088 86.8336 341.367 86.1787C338.429 83.8756 334.934 86.2603 334.934 86.2603Z" fill="#626262"/>
<path d="M319.205 108.411C321.64 108.397 324.05 107.92 326.304 107.006C326.417 106.959 326.519 106.891 326.605 106.805C326.692 106.72 326.76 106.618 326.806 106.506C326.853 106.394 326.877 106.274 326.877 106.153C326.877 106.032 326.853 105.912 326.806 105.8C326.759 105.688 326.691 105.586 326.605 105.5C326.518 105.415 326.416 105.347 326.303 105.301C326.191 105.254 326.07 105.23 325.948 105.231C325.826 105.231 325.705 105.255 325.592 105.301C319.205 108.021 311.969 106.054 308.849 102.762C305.536 99.2896 304.688 93.4595 304.022 89.1617C303.547 85.8704 303.173 83.7215 302.041 82.8148C301.155 82.1844 300.204 81.6495 299.204 81.219C296.932 80.0947 293.729 78.4989 293.729 76.8034C293.718 76.465 293.78 76.1283 293.911 75.8156C294.041 75.503 294.238 75.2215 294.486 74.99C296.311 73.2944 300.545 73.104 302.06 73.1766C302.302 73.1766 302.534 73.081 302.705 72.911C302.876 72.7409 302.972 72.5103 302.972 72.2699C302.972 72.0294 302.876 71.7988 302.705 71.6287C302.534 71.4587 302.302 71.3632 302.06 71.3632C301.768 71.3632 295.809 71.0821 293.072 73.7206C292.631 74.1063 292.283 74.5848 292.053 75.1213C291.822 75.6578 291.715 76.2387 291.74 76.8215C291.74 79.732 295.335 81.5182 298.273 82.9327C299.16 83.3343 300.014 83.8042 300.828 84.3381C301.394 84.7189 301.74 87.3483 302.06 89.4156C302.717 93.9491 303.757 100.133 307.452 103.986C309.861 106.625 314.406 108.411 319.205 108.411Z" fill="#2C3B47"/>
<path d="M316.577 78.0545C315.79 78.0545 315.153 77.4212 315.153 76.64C315.153 75.8589 315.79 75.2256 316.577 75.2256C317.363 75.2256 318 75.8589 318 76.64C318 77.4212 317.363 78.0545 316.577 78.0545Z" fill="#2C3B47"/>
<path d="M310.62 77.5828C309.833 77.5828 309.196 76.9495 309.196 76.1684C309.196 75.3872 309.833 74.7539 310.62 74.7539C311.406 74.7539 312.043 75.3872 312.043 76.1684C312.043 76.9495 311.406 77.5828 310.62 77.5828Z" fill="#2C3B47"/>
<path d="M330.765 116.399C332.165 116.39 333.549 116.103 334.835 115.556C334.969 115.477 335.082 115.367 335.164 115.237C335.247 115.106 335.296 114.957 335.31 114.803C335.592 111.04 336.222 100.042 336.441 96.4696C338.046 96.895 339.748 96.7638 341.268 96.0979C341.984 95.7213 342.604 95.186 343.078 94.5336C343.553 93.8811 343.87 93.1289 344.005 92.3351C344.662 89.5152 343.905 86.9765 341.733 85.4714C340.625 84.7314 339.316 84.3446 337.981 84.3624C336.646 84.3802 335.348 84.8018 334.26 85.5711C334.155 85.639 334.064 85.7268 333.993 85.8296C333.921 85.9324 333.871 86.0482 333.845 86.1702C333.819 86.2923 333.817 86.4183 333.839 86.5411C333.862 86.6639 333.909 86.781 333.977 86.8858C334.046 86.9906 334.134 87.081 334.238 87.1518C334.341 87.2226 334.457 87.2725 334.58 87.2986C334.703 87.3247 334.83 87.3265 334.954 87.3039C335.077 87.2813 335.195 87.2348 335.3 87.1669C336.074 86.6268 336.992 86.3295 337.937 86.3133C338.882 86.2972 339.81 86.5629 340.602 87.0762C341.318 87.6459 341.845 88.417 342.114 89.2889C342.382 90.1607 342.38 91.0928 342.108 91.9633C342.024 92.4986 341.815 93.007 341.498 93.4478C341.181 93.8887 340.765 94.2497 340.283 94.5021C338.394 95.4088 335.839 94.4024 335.72 94.4024C335.581 94.3489 335.431 94.33 335.283 94.3474C335.136 94.3648 334.994 94.4179 334.872 94.5021C334.626 94.6869 334.457 94.9546 334.397 95.2547C334.397 95.436 333.64 109.163 333.257 114.241C330.136 115.465 326.167 113.96 324.935 113.398L323.767 107.114C323.751 106.982 323.709 106.854 323.641 106.739C323.574 106.624 323.483 106.525 323.374 106.446C323.266 106.368 323.142 106.313 323.011 106.285C322.88 106.256 322.745 106.256 322.614 106.282C322.482 106.308 322.358 106.362 322.248 106.439C322.139 106.515 322.047 106.614 321.977 106.728C321.908 106.842 321.864 106.969 321.847 107.101C321.829 107.233 321.84 107.367 321.878 107.495L323.201 114.259C323.277 114.528 323.445 114.762 323.676 114.921C324.05 114.803 327.271 116.399 330.765 116.399Z" fill="#2C3B47"/>
<path fill-rule="evenodd" clip-rule="evenodd" d="M320 188.5C362.265 188.5 396.5 154.459 396.5 112.5C396.5 70.5413 362.265 36.5 320 36.5C277.735 36.5 243.5 70.5413 243.5 112.5C243.5 154.459 277.735 188.5 320 188.5ZM320 191C363.63 191 399 155.854 399 112.5C399 69.1456 363.63 34 320 34C276.37 34 241 69.1456 241 112.5C241 155.854 276.37 191 320 191Z" fill="#2C3B47"/>
</g>
<path d="M368.353 64.4505C371.035 64.5436 373.686 63.8493 375.978 62.4534C379.609 60.184 381.697 56.0084 382.06 50.0172C382.072 49.898 382.06 49.7776 382.026 49.6629C381.991 49.5482 381.934 49.4415 381.858 49.3487C381.782 49.256 381.689 49.1791 381.584 49.1225C381.478 49.0659 381.362 49.0306 381.243 49.0187C381.124 49.0068 381.003 49.0184 380.889 49.0531C380.774 49.0877 380.667 49.1445 380.575 49.2204C380.482 49.2962 380.405 49.3896 380.348 49.4952C380.292 49.6008 380.256 49.7165 380.245 49.8357C379.881 55.1914 378.157 58.9132 374.98 60.9102C369.17 64.5412 360.546 61.1826 360.455 61.0918C360.227 61.0075 359.974 61.0176 359.753 61.1197C359.531 61.2219 359.36 61.4077 359.275 61.6364C359.191 61.8652 359.201 62.118 359.303 62.3393C359.405 62.5606 359.591 62.7323 359.82 62.8165C362.532 63.908 365.43 64.463 368.353 64.4505V64.4505Z" fill="#2C3B47"/>
<path d="M371.439 22.5121C371.439 15.8855 376.069 10.5298 381.787 10.5298C387.506 10.5298 392.136 15.8855 392.136 22.5121C392.136 27.3232 389.685 31.4989 386.145 33.4052H377.43C375.559 32.2796 374.019 30.6789 372.967 28.7657C371.915 26.8526 371.388 24.695 371.439 22.5121Z" fill="#E9D519"/>
<path d="M386.145 33.3145V44.8429H377.34V33.3145H377.431H386.145Z" fill="white"/>
<path d="M376.432 44.8429V33.4052C376.424 33.2839 376.442 33.1623 376.484 33.0486C376.527 32.9348 376.594 32.8315 376.68 32.7455C376.766 32.6596 376.869 32.593 376.983 32.5502C377.096 32.5074 377.218 32.4894 377.339 32.4975H386.145C386.266 32.4894 386.387 32.5074 386.501 32.5502C386.615 32.593 386.718 32.6596 386.804 32.7455C386.89 32.8315 386.957 32.9348 387 33.0486C387.042 33.1623 387.06 33.2839 387.052 33.4052V44.8429C387.06 44.9642 387.042 45.0858 387 45.1995C386.957 45.3133 386.89 45.4166 386.804 45.5026C386.718 45.5885 386.615 45.6551 386.501 45.6979C386.387 45.7407 386.266 45.7587 386.145 45.7506H377.339C377.104 45.7338 376.883 45.6327 376.716 45.466C376.549 45.2993 376.448 45.0781 376.432 44.8429V44.8429ZM385.237 34.313H378.247V43.9351H385.237V34.313Z" fill="#2C3B47"/>
<path d="M383.149 34.2222C383.343 34.2072 383.53 34.1403 383.689 34.0285C383.849 33.9168 383.976 33.7642 384.056 33.5868L387.052 23.5107C387.089 23.37 387.092 23.2222 387.061 23.08C387.029 22.9379 386.964 22.8054 386.87 22.6937C386.791 22.5758 386.682 22.4804 386.555 22.4168C386.428 22.3532 386.286 22.3235 386.144 22.3306H381.687C381.446 22.3306 381.215 22.4263 381.045 22.5965C380.875 22.7668 380.779 22.9976 380.779 23.2384C380.779 23.4791 380.875 23.71 381.045 23.8803C381.215 24.0505 381.446 24.1461 381.687 24.1461H384.864L382.141 33.1329C382.097 33.2459 382.08 33.3672 382.09 33.4879C382.099 33.6086 382.136 33.7255 382.197 33.8301C382.258 33.9347 382.342 34.0242 382.442 34.0921C382.542 34.16 382.657 34.2044 382.776 34.2222H383.149Z" fill="#2C3B47"/>
<path d="M380.426 34.2222H380.698C380.915 34.1429 381.096 33.9907 381.212 33.7919C381.328 33.5931 381.371 33.36 381.334 33.1329L378.611 24.1461H381.788C382.028 24.1461 382.259 24.0505 382.43 23.8803C382.6 23.71 382.695 23.4791 382.695 23.2384C382.695 22.9976 382.6 22.7668 382.43 22.5965C382.259 22.4263 382.028 22.3306 381.788 22.3306H377.34C377.198 22.3235 377.056 22.3532 376.929 22.4168C376.802 22.4804 376.693 22.5758 376.614 22.6937C376.468 22.94 376.405 23.226 376.432 23.5107L379.518 33.6775C379.603 33.8443 379.734 33.9838 379.894 34.0801C380.055 34.1764 380.239 34.2256 380.426 34.2222V34.2222Z" fill="#2C3B47"/>
<path d="M381.789 6.80814C381.91 6.81617 382.031 6.79818 382.145 6.7554C382.259 6.71262 382.362 6.64603 382.448 6.56008C382.534 6.47414 382.601 6.37082 382.644 6.25705C382.686 6.14328 382.704 6.02168 382.696 5.90039V0.907753C382.696 0.667002 382.601 0.436111 382.43 0.265874C382.26 0.0956373 382.029 0 381.789 0C381.548 0 381.317 0.0956373 381.147 0.265874C380.976 0.436111 380.881 0.667002 380.881 0.907753V5.90039C380.873 6.02168 380.891 6.14328 380.934 6.25705C380.976 6.37082 381.043 6.47414 381.129 6.56008C381.215 6.64603 381.318 6.71262 381.432 6.7554C381.546 6.79818 381.667 6.81617 381.789 6.80814V6.80814Z" fill="#2C3B47"/>
<path d="M371.256 11.1654C371.375 11.1686 371.494 11.1459 371.603 11.0989C371.713 11.0518 371.811 10.9816 371.891 10.893C372.057 10.7233 372.151 10.4952 372.151 10.2576C372.151 10.02 372.057 9.79185 371.891 9.62217L368.351 6.08194C368.176 5.95083 367.96 5.88719 367.742 5.90268C367.524 5.91817 367.319 6.01175 367.164 6.16626C367.01 6.32077 366.916 6.52583 366.901 6.74379C366.885 6.96175 366.949 7.17798 367.08 7.35279L370.62 10.893C370.792 11.058 371.018 11.1548 371.256 11.1654V11.1654Z" fill="#2C3B47"/>
<path d="M361.908 21.6954H366.9C367.141 21.6954 367.372 21.5998 367.542 21.4295C367.713 21.2593 367.808 21.0284 367.808 20.7876C367.808 20.5469 367.713 20.316 367.542 20.1458C367.372 19.9755 367.141 19.8799 366.9 19.8799H361.908C361.667 19.8799 361.436 19.9755 361.266 20.1458C361.096 20.316 361 20.5469 361 20.7876C361 21.0284 361.096 21.2593 361.266 21.4295C361.436 21.5998 361.667 21.6954 361.908 21.6954Z" fill="#2C3B47"/>
<path d="M396.585 21.6953H401.578C401.819 21.6953 402.05 21.5997 402.22 21.4294C402.39 21.2592 402.486 21.0283 402.486 20.7875C402.486 20.5468 402.39 20.3159 402.22 20.1457C402.05 19.9754 401.819 19.8798 401.578 19.8798H396.585C396.464 19.8718 396.342 19.8898 396.229 19.9325C396.115 19.9753 396.012 20.0419 395.926 20.1279C395.84 20.2138 395.773 20.3171 395.73 20.4309C395.688 20.5447 395.67 20.6663 395.678 20.7875C395.678 21.0283 395.773 21.2592 395.944 21.4294C396.114 21.5997 396.345 21.6953 396.585 21.6953Z" fill="#2C3B47"/>
<path d="M392.227 11.1654C392.346 11.1686 392.465 11.1459 392.575 11.0989C392.684 11.0518 392.782 10.9816 392.862 10.893L396.403 7.35279C396.534 7.17798 396.597 6.96175 396.582 6.74379C396.566 6.52583 396.473 6.32077 396.318 6.16626C396.164 6.01175 395.959 5.91817 395.741 5.90268C395.523 5.88719 395.307 5.95083 395.132 6.08194L391.592 9.62217C391.425 9.79185 391.332 10.02 391.332 10.2576C391.332 10.4952 391.425 10.7233 391.592 10.893C391.763 11.058 391.989 11.1548 392.227 11.1654V11.1654Z" fill="#2C3B47"/>
<path fill-rule="evenodd" clip-rule="evenodd" d="M236.654 199.232C236.654 199.922 237.214 200.482 237.904 200.482C247.062 200.482 259.931 196.331 267.738 180.187C268.039 179.565 267.778 178.818 267.157 178.517C266.535 178.217 265.788 178.477 265.487 179.098C258.165 194.242 246.266 197.982 237.904 197.982C237.214 197.982 236.654 198.541 236.654 199.232Z" fill="#2C3B47"/>
<path fill-rule="evenodd" clip-rule="evenodd" d="M160.544 116.768C160.314 117.419 160.656 118.133 161.307 118.362C173.04 122.503 182.869 127.558 190.115 135.446C197.338 143.308 202.101 154.104 203.475 169.931C203.534 170.619 204.14 171.128 204.828 171.069C205.516 171.009 206.025 170.403 205.965 169.715C204.555 153.464 199.63 142.108 191.956 133.754C184.305 125.426 174.027 120.2 162.139 116.005C161.488 115.775 160.774 116.117 160.544 116.768Z" fill="#2C3B47"/>
<path fill-rule="evenodd" clip-rule="evenodd" d="M345.441 247.154C345.732 247.78 345.461 248.523 344.835 248.814C323.428 258.761 287.372 261.218 245.371 224.981C244.849 224.53 244.791 223.741 245.242 223.218C245.692 222.695 246.482 222.637 247.004 223.088C288.316 258.73 323.33 256.05 343.781 246.547C344.407 246.256 345.151 246.528 345.441 247.154Z" fill="#2C3B47"/>
<g clip-path="url(#clip2_2_4658)">
<rect x="356" y="202" width="86" height="87" rx="43" fill="white"/>
<path d="M407.453 257.066C407.453 257.066 406.822 266.819 406.372 269.463C403.038 271.833 396.55 270.921 396.55 270.921L395.199 264.723L394.388 264.905C383.035 266.728 380.872 260.347 379.791 256.246C378.62 251.779 380.061 247.495 376.727 246.583C370.06 244.852 370.781 242.208 370.781 242.208C370.781 238.562 376.727 238.562 376.727 238.562L377.989 234.916L409.886 235.281L407.453 257.066Z" fill="#F8E1B8"/>
<path d="M406.741 266.455C406.741 266.455 418.184 266.911 424.221 275.752C430.258 284.594 462.966 341.746 462.966 341.746L438.908 357.762L430.528 335.885L372.681 333.698L377.096 308.995L377.547 306.625L367.636 310.272C364.387 311.468 360.862 311.674 357.499 310.864C354.135 310.054 351.081 308.263 348.714 305.714L313.303 267.248L336.459 252.937L361.959 286.572C361.959 286.572 373.042 277.73 381.331 273.446C385.9 270.946 390.779 269.076 395.838 267.886L397 270.5H401.5L406 269.5L406.741 266.455Z" fill="#E0F5E3"/>
<path d="M412.957 231.544C412.957 231.544 413.318 220.697 423.049 223.158C426.022 223.887 427.554 227.624 427.915 231.088C429.086 240.568 426.473 256.884 434.312 260.165C429.446 260.895 417.012 256.793 414.85 247.313C413.576 242.156 412.941 236.859 412.957 231.544V231.544Z" fill="#5AB467"/>
<path d="M381.421 233.795C381.295 233.796 381.17 233.769 381.054 233.718C380.939 233.667 380.835 233.591 380.75 233.497C380.665 233.402 380.601 233.291 380.561 233.169C380.521 233.048 380.508 232.92 380.52 232.792L380.881 226.776C380.881 226.685 381.962 216.841 397.37 216.841C397.609 216.841 397.838 216.937 398.007 217.108C398.176 217.279 398.271 217.511 398.271 217.752C398.271 217.994 398.176 218.226 398.007 218.397C397.838 218.568 397.609 218.664 397.37 218.664C383.584 218.664 382.683 226.868 382.683 226.959L382.322 232.975C382.32 233.09 382.295 233.203 382.248 233.308C382.2 233.412 382.132 233.506 382.048 233.583C381.963 233.66 381.864 233.718 381.756 233.755C381.649 233.791 381.534 233.805 381.421 233.795V233.795Z" fill="#2C3B47"/>
<path d="M390.701 265.999C388.414 266.059 386.149 265.526 384.124 264.45C380.88 262.535 379.618 259.254 378.898 256.337C378.573 254.836 378.362 253.313 378.267 251.779C378.087 249.045 377.906 247.678 376.375 247.222C373.131 246.401 371.058 245.217 370.157 243.667C369.814 243.127 369.685 242.476 369.797 241.844C369.792 241.366 369.886 240.892 370.072 240.453C370.258 240.013 370.533 239.618 370.878 239.292C372.77 237.377 376.465 237.377 376.645 237.377C376.884 237.377 377.113 237.473 377.282 237.644C377.451 237.815 377.546 238.047 377.546 238.289C377.546 238.531 377.451 238.763 377.282 238.934C377.113 239.104 376.884 239.2 376.645 239.2C375.744 239.2 373.221 239.474 372.14 240.568C371.8 240.904 371.606 241.363 371.599 241.844V242.117C371.509 242.573 372.32 244.214 376.915 245.399C379.799 246.219 379.889 248.863 380.069 251.597C380.127 253.008 380.308 254.411 380.61 255.79C381.33 258.434 382.321 261.168 385.025 262.718C387.998 264.45 392.413 264.45 398.36 262.809C398.569 262.794 398.777 262.854 398.947 262.977C399.118 263.101 399.24 263.281 399.294 263.486C399.347 263.691 399.328 263.909 399.24 264.101C399.152 264.294 399 264.449 398.811 264.541C396.202 265.464 393.464 265.957 390.701 265.999V265.999Z" fill="#2C3B47"/>
<path d="M399.621 271.924C398.567 271.918 397.515 271.857 396.467 271.742C396.293 271.698 396.133 271.608 396.006 271.479C395.879 271.35 395.789 271.189 395.746 271.012L394.395 264.814C394.371 264.694 394.371 264.571 394.394 264.451C394.418 264.332 394.464 264.218 394.531 264.116C394.598 264.015 394.684 263.927 394.785 263.859C394.885 263.791 394.997 263.744 395.116 263.72C395.234 263.696 395.356 263.696 395.474 263.72C395.593 263.744 395.705 263.791 395.806 263.858C395.906 263.926 395.992 264.013 396.059 264.114C396.126 264.216 396.173 264.33 396.197 264.449L397.458 270.01C398.99 270.192 403.225 270.374 405.748 268.916C406.108 265.908 406.739 257.157 406.739 257.066C406.763 256.824 406.881 256.602 407.067 256.448C407.253 256.294 407.491 256.222 407.73 256.246C407.969 256.27 408.189 256.389 408.341 256.577C408.493 256.765 408.565 257.007 408.541 257.248C408.541 257.613 407.82 267.093 407.46 269.645C407.447 269.771 407.408 269.893 407.346 270.002C407.284 270.112 407.2 270.208 407.099 270.283C404.937 271.559 401.873 271.924 399.621 271.924Z" fill="#2C3B47"/>
<path d="M386.467 244.305C387.213 244.305 387.818 243.693 387.818 242.938C387.818 242.182 387.213 241.57 386.467 241.57C385.72 241.57 385.115 242.182 385.115 242.938C385.115 243.693 385.72 244.305 386.467 244.305Z" fill="#2C3B47"/>
<path d="M392.053 244.943C392.799 244.943 393.404 244.331 393.404 243.576C393.404 242.821 392.799 242.208 392.053 242.208C391.306 242.208 390.701 242.821 390.701 243.576C390.701 244.331 391.306 244.943 392.053 244.943Z" fill="#2C3B47"/>
<path d="M376.916 235.919L407.822 236.83L408.543 248.862H412.777C412.777 248.862 416.832 229.356 407.822 224.525C400.523 220.605 392.684 220.697 387.008 223.34C379.709 226.621 376.916 235.919 376.916 235.919Z" fill="#5AB467"/>
<path d="M413.408 246.128C413.169 246.128 412.94 246.032 412.771 245.861C412.602 245.69 412.507 245.458 412.507 245.216L412.057 226.895C412.057 226.621 411.066 218.691 397.37 218.691C397.131 218.691 396.902 218.595 396.733 218.424C396.564 218.253 396.469 218.021 396.469 217.78C396.469 217.538 396.564 217.306 396.733 217.135C396.902 216.964 397.131 216.868 397.37 216.868C412.778 216.868 413.859 226.713 413.859 226.804L414.309 245.216C414.309 245.458 414.214 245.69 414.045 245.861C413.876 246.032 413.647 246.128 413.408 246.128Z" fill="#2C3B47"/>
<path d="M418.364 249.501C418.364 254.332 417.012 258.251 413.048 258.251C409.083 258.251 405.93 257.522 405.93 249.501C405.93 241.479 409.083 240.75 413.048 240.75C417.012 240.75 418.364 244.67 418.364 249.501Z" fill="white"/>
<path d="M413.138 259.163C408.183 259.163 405.119 257.522 405.119 249.5C405.119 241.479 408.183 239.838 413.138 239.838C415.481 239.838 419.356 241.114 419.356 249.5C419.356 257.886 415.391 259.163 413.138 259.163ZM413.138 241.661C409.534 241.661 406.921 242.208 406.921 249.5C406.921 256.793 409.444 257.34 413.138 257.34C416.833 257.34 417.553 253.055 417.553 249.5C417.553 245.946 416.743 241.661 413.138 241.661V241.661Z" fill="#2C3B47"/>
<path d="M412.236 259.071H411.957C411.417 258.889 408.533 257.613 408.533 249.227C408.533 240.567 411.507 240.112 412.137 240.021C412.376 240.021 412.606 240.117 412.774 240.287C412.943 240.458 413.038 240.69 413.038 240.932C413.04 241.159 412.957 241.378 412.807 241.546C412.657 241.715 412.45 241.821 412.227 241.844C412.137 241.844 410.335 242.664 410.335 249.227C410.335 256.337 412.408 257.339 412.498 257.339C412.712 257.419 412.893 257.572 413.008 257.771C413.123 257.971 413.166 258.205 413.128 258.433C413.049 258.61 412.925 258.762 412.768 258.875C412.611 258.987 412.428 259.055 412.236 259.071V259.071Z" fill="#2C3B47"/>
<path d="M361.687 312.304C359.155 312.297 356.65 311.769 354.326 310.75C352.003 309.731 349.908 308.244 348.172 306.379L312.761 267.913C312.581 267.715 312.484 267.453 312.491 267.184C312.492 267.044 312.536 266.907 312.616 266.793C312.697 266.679 312.81 266.593 312.941 266.546L336.098 252.235C336.282 252.117 336.502 252.07 336.717 252.104C336.933 252.137 337.129 252.249 337.269 252.417L362.138 285.323C364.751 283.318 373.942 276.299 380.97 272.653C385.631 270.126 390.599 268.226 395.747 267.002C395.986 266.953 396.234 267.003 396.437 267.14C396.639 267.276 396.78 267.489 396.828 267.731C396.876 267.973 396.827 268.224 396.692 268.429C396.556 268.634 396.346 268.776 396.107 268.825C391.133 269.969 386.342 271.81 381.871 274.294C373.761 278.578 362.769 287.237 362.588 287.328C362.408 287.467 362.183 287.532 361.958 287.511C361.833 287.498 361.713 287.458 361.604 287.396C361.496 287.333 361.401 287.248 361.327 287.146L336.368 254.149L314.833 267.457L349.523 305.103C351.757 307.534 354.648 309.245 357.837 310.023C361.026 310.801 364.371 310.612 367.454 309.478L377.366 305.832C377.593 305.748 377.844 305.758 378.063 305.86C378.283 305.963 378.453 306.149 378.537 306.379C378.621 306.609 378.611 306.863 378.509 307.085C378.408 307.307 378.223 307.479 377.996 307.564L368.085 311.21C366.026 311.927 363.865 312.296 361.687 312.304V312.304Z" fill="#2C3B47"/>
<path d="M379.52 297.264H379.34C379.22 297.242 379.106 297.196 379.005 297.129C378.903 297.062 378.816 296.975 378.749 296.872C378.682 296.77 378.635 296.655 378.613 296.535C378.591 296.414 378.593 296.29 378.619 296.17L380.061 288.24C380.084 288.12 380.131 288.006 380.198 287.905C380.265 287.804 380.351 287.717 380.452 287.649C380.552 287.581 380.665 287.534 380.783 287.51C380.902 287.487 381.023 287.487 381.142 287.511C381.26 287.535 381.373 287.582 381.473 287.65C381.573 287.718 381.659 287.805 381.726 287.907C381.793 288.008 381.84 288.122 381.863 288.242C381.886 288.362 381.886 288.485 381.863 288.605L380.421 296.535C380.371 296.74 380.256 296.923 380.093 297.054C379.93 297.186 379.729 297.26 379.52 297.264Z" fill="#2C3B47"/>
<path d="M438.988 358.791H438.718C438.59 358.752 438.474 358.682 438.38 358.587C438.286 358.491 438.216 358.374 438.177 358.245L417.544 304.556C417.502 304.442 417.483 304.322 417.488 304.2C417.493 304.079 417.521 303.96 417.571 303.85C417.622 303.74 417.693 303.641 417.781 303.559C417.869 303.477 417.972 303.413 418.084 303.371C418.197 303.329 418.316 303.31 418.436 303.315C418.556 303.32 418.673 303.348 418.782 303.399C418.891 303.45 418.988 303.522 419.07 303.611C419.151 303.7 419.214 303.804 419.256 303.918L439.439 356.513L461.875 341.564C458 334.819 429.167 284.594 423.581 276.39C417.904 268.004 406.911 267.457 406.731 267.457C406.492 267.457 406.263 267.361 406.094 267.19C405.925 267.019 405.83 266.788 405.83 266.546C405.83 266.304 405.925 266.072 406.094 265.901C406.263 265.73 406.492 265.634 406.731 265.634C407.182 265.634 418.715 266.181 424.932 275.388C430.879 284.229 463.407 340.835 463.767 341.473C463.874 341.669 463.906 341.899 463.856 342.117C463.806 342.336 463.678 342.528 463.497 342.658L439.448 358.673C439.314 358.767 439.151 358.809 438.988 358.791V358.791Z" fill="#2C3B47"/>
<path fill-rule="evenodd" clip-rule="evenodd" d="M399 286.5C421.34 286.5 439.5 268.171 439.5 245.5C439.5 222.829 421.34 204.5 399 204.5C376.66 204.5 358.5 222.829 358.5 245.5C358.5 268.171 376.66 286.5 399 286.5ZM399 289C422.748 289 442 269.524 442 245.5C442 221.476 422.748 202 399 202C375.252 202 356 221.476 356 245.5C356 269.524 375.252 289 399 289Z" fill="#2C3B47"/>
</g>
<path d="M103.975 246.819L101.474 229.803C101.474 229.803 91.1743 228.791 96.5982 219.236C102.022 209.681 102.528 218.055 102.528 218.055L103.652 203.329L142.351 198.018C142.351 198.018 139.948 201.249 146.974 201.249C154 201.249 155.32 206.238 151.189 209.357C147.058 212.477 144.309 214.028 144 220C143.691 225.972 145.5 237 135.5 238.515H117.901L120.711 245.751C120.711 245.751 115.779 253.086 103.975 246.819Z" fill="#CB8529"/>
<path d="M1.81805 380.325H261.775V621.889H1.81805V380.325Z" fill="white"/>
<path d="M263.18 621.846V380.325C263.18 379.819 262.618 379.468 261.775 379.468H1.81717C0.97406 379.468 0.41199 379.819 0.41199 380.325V621.846C0.41199 622.352 0.97406 622.704 1.81717 622.704H261.634C261.948 622.734 262.264 622.668 262.54 622.515C262.816 622.362 263.039 622.129 263.18 621.846V621.846ZM3.22234 381.14H260.369V621.031H3.22234V381.14Z" fill="#2C3B47"/>
<path d="M121.47 247.578H130.463C135.452 247.571 140.39 248.575 144.979 250.532C149.568 252.488 153.713 255.355 157.161 258.96L180.487 283.41L190.183 248.562L222.643 251.513L206.343 304.769L102.922 370.531C94.2096 359.43 89.432 322.052 89.432 322.052L89.0104 325.144L82.2656 368.564L41.094 362.1L71.5863 273.363C73.6423 267.245 77.3129 261.795 82.2102 257.59C87.1075 253.386 93.0496 250.582 99.4088 249.475L104.889 248.492L121.47 247.578Z" fill="white"/>
<path d="M20.9297 373.848C12.9202 373.707 14.0444 370.897 14.0444 370.897C14.0444 370.897 14.1849 368.367 19.5245 368.086C24.8642 367.805 38.916 372.723 38.916 372.723C33.2953 377.22 20.9297 373.988 20.9297 373.848Z" fill="#CB8529"/>
<path d="M39.6182 373.847C39.8362 373.691 40.005 373.476 40.1046 373.227C40.2042 372.978 40.2304 372.706 40.1803 372.442C40.12 372.189 39.9989 371.954 39.8275 371.758C39.6561 371.562 39.4396 371.411 39.1966 371.318C38.6346 371.177 24.8639 366.4 19.3837 366.681C13.9035 366.962 12.7794 369.772 12.6389 370.615C12.5476 370.999 12.5379 371.397 12.6106 371.784C12.6832 372.172 12.8364 372.539 13.0604 372.864C14.044 374.409 16.5733 375.252 20.7889 375.393C23.7745 376.148 26.843 376.525 29.9225 376.517C33.4354 376.517 37.2294 375.941 39.6182 373.847ZM15.4492 371.318C15.4492 371.318 15.8708 369.772 19.6647 369.632C23.0372 369.491 30.4846 371.599 35.4027 373.145C29.782 374.831 21.4915 372.723 21.351 372.723H21.0699C16.5734 372.583 15.5897 371.599 15.4492 371.458V371.318Z" fill="#2C3B47"/>
<path d="M215.686 215.484C212.736 213.657 214.703 200.73 214.843 198.763C214.984 196.795 217.794 193.844 220.183 195.952C222.572 198.06 224.539 215.625 224.539 215.625C222.572 217.451 218.567 217.592 215.686 215.484Z" fill="white"/>
<path d="M225.524 216.748C225.788 216.379 225.935 215.938 225.945 215.484C225.383 211.268 223.697 197.217 221.027 194.968C220.46 194.421 219.738 194.06 218.959 193.934C218.181 193.808 217.382 193.924 216.671 194.266C215.764 194.653 214.974 195.273 214.383 196.062C213.791 196.851 213.417 197.783 213.299 198.762C213.306 199.327 213.259 199.892 213.158 200.448C212.175 209.16 212.175 215.203 214.844 216.889C216.507 217.869 218.395 218.402 220.325 218.435C222.199 218.481 224.033 217.886 225.524 216.748V216.748ZM219.2 197.216C220.325 198.341 222.011 207.334 222.994 215.203C221.932 215.66 220.774 215.847 219.622 215.749C218.47 215.651 217.36 215.271 216.39 214.641C215.688 214.219 214.844 211.83 215.969 200.87C215.969 200.027 216.109 199.324 216.109 199.043C216.236 198.597 216.45 198.181 216.74 197.819C217.029 197.458 217.388 197.157 217.795 196.935C217.96 196.824 218.159 196.774 218.357 196.795C218.519 196.805 218.677 196.848 218.822 196.92C218.967 196.993 219.095 197.093 219.2 197.216V197.216Z" fill="#2C3B47"/>
<path d="M221.869 182.041H187.723L180.697 238.81H214.843L221.869 182.041Z" fill="#E1E7EE"/>
<path d="M195.591 191.736C194.582 191.736 193.765 190.919 193.765 189.91C193.765 188.901 194.582 188.083 195.591 188.083C196.6 188.083 197.418 188.901 197.418 189.91C197.418 190.919 196.6 191.736 195.591 191.736Z" fill="#2C3B47"/>
<path d="M275.828 454.631L279.341 469.947C279.341 469.947 325.29 481.189 326.555 486.388C327.819 491.587 320.793 491.727 320.793 491.727H241.401L241.12 455.755L275.828 454.631Z" fill="white"/>
<path d="M327.397 490.336C327.837 489.711 328.128 488.994 328.25 488.239C328.372 487.484 328.32 486.712 328.1 485.98C326.835 480.781 295.219 472.35 280.745 468.837L277.514 454.364C277.448 454.041 277.271 453.753 277.015 453.547C276.758 453.342 276.437 453.233 276.108 453.24L241.26 454.364C240.887 454.364 240.53 454.512 240.266 454.775C240.003 455.039 239.855 455.396 239.855 455.769L240.136 491.741C240.136 492.114 240.284 492.471 240.547 492.735C240.811 492.998 241.168 493.147 241.541 493.147H320.933C321.355 493.147 325.36 493.006 327.397 490.336ZM242.665 457.033L274.984 456.05L278.216 470.242C278.228 470.513 278.332 470.773 278.511 470.977C278.689 471.181 278.932 471.319 279.2 471.366C300.839 476.706 324.025 484.013 325.43 486.823C325.552 487.148 325.591 487.499 325.542 487.843C325.493 488.187 325.357 488.513 325.149 488.79C323.993 489.826 322.485 490.379 320.933 490.336H242.946L242.665 457.033Z" fill="#2C3B47"/>
<path d="M182.245 326.353L272.738 335.908L292.551 459.001L226.086 466.73L232.831 373.566L160.324 384.527L182.245 326.353Z" fill="#DA7AB1"/>
<path d="M310.819 360.217L324.449 368.086C324.449 368.086 363.654 341.809 368.431 344.339C373.209 346.868 368.431 352.207 368.431 352.207L314.894 410.803L288.055 386.775L310.819 360.217Z" fill="white"/>
<path d="M316.016 411.646L369.553 353.05C369.834 352.769 372.504 349.678 371.942 346.587C371.765 345.829 371.42 345.12 370.934 344.512C370.448 343.905 369.832 343.413 369.132 343.074C364.354 340.404 336.813 358.109 324.447 366.4L311.519 358.952C311.381 358.851 311.224 358.777 311.057 358.737C310.891 358.696 310.718 358.688 310.548 358.714C310.378 358.74 310.215 358.8 310.069 358.889C309.922 358.978 309.794 359.095 309.693 359.233L286.929 385.791C286.711 386.081 286.606 386.439 286.632 386.801C286.657 387.162 286.813 387.502 287.069 387.758L313.768 411.787C314.034 412.042 314.383 412.192 314.751 412.208C314.99 412.208 315.225 412.157 315.443 412.061C315.661 411.964 315.856 411.823 316.016 411.646V411.646ZM311.098 361.903L323.745 369.21C323.979 369.348 324.245 369.421 324.517 369.421C324.789 369.421 325.056 369.348 325.29 369.21C343.839 356.704 364.776 344.479 367.867 345.462C368.991 346.025 369.132 346.727 369.132 347.008C369.129 348.577 368.525 350.086 367.445 351.224L314.751 408.836L290.02 386.634L311.098 361.903Z" fill="#2C3B47"/>
<path d="M82.2654 369.491C82.4222 369.375 82.5532 369.228 82.65 369.058C82.7467 368.889 82.8072 368.701 82.8275 368.507L92.9447 302.605C92.9079 302.301 92.7732 302.018 92.561 301.798C92.3489 301.579 92.0708 301.434 91.7689 301.386C91.4671 301.338 91.158 301.391 90.8883 301.534C90.6187 301.678 90.4034 301.906 90.2749 302.183L80.2982 366.681L42.2179 360.779L72.1481 273.518C74.185 267.661 77.7449 262.452 82.4618 258.426C87.1788 254.401 92.8826 251.704 98.987 250.613L104.467 249.63C104.84 249.555 105.168 249.336 105.378 249.019C105.589 248.703 105.666 248.316 105.591 247.943C105.517 247.571 105.297 247.243 104.981 247.032C104.665 246.821 104.278 246.745 103.905 246.819L98.4249 247.803C91.8223 248.942 85.6491 251.841 80.5549 256.193C75.4608 260.545 71.6343 266.19 69.4783 272.534L38.986 361.341C38.9078 361.524 38.8796 361.725 38.9043 361.922C38.929 362.12 39.0057 362.307 39.1265 362.465C39.4075 362.887 39.6886 363.168 40.1101 363.168L81.2818 369.632H81.5628C81.7996 369.599 82.0342 369.552 82.2654 369.491V369.491Z" fill="#2C3B47"/>
<path d="M49.0325 362.887C46.3035 366.729 42.8704 370.019 38.9153 372.582C21.7721 370.334 13.341 377.782 13.341 377.782C13.341 377.782 9.54704 380.732 9.96859 382.84C10.6712 386.072 14.0436 386.072 16.0108 384.807C15.5899 385.386 15.3153 386.059 15.2102 386.767C15.1051 387.475 15.1728 388.198 15.4074 388.874C15.642 389.55 16.0367 390.16 16.5577 390.651C17.0787 391.141 17.7106 391.499 18.3996 391.693C21.6315 392.395 23.8799 388.18 23.8799 388.18C23.8799 388.18 21.7721 394.503 25.9876 395.065C30.2031 395.627 30.9057 391.412 30.9057 391.412C31.7848 388.655 33.6315 386.309 36.1049 384.807C40.1799 382.419 57.7445 383.121 57.7445 383.121C55.3557 386.634 43.1308 392.676 47.7678 395.908C51.4213 398.297 59.9928 392.957 59.9928 392.957C65.6135 390.428 68.7049 381.295 68.7049 381.295L73.623 366.962C73.623 366.962 53.3885 363.73 49.0325 362.887Z" fill="#CB8529"/>
<path d="M60.5553 394.082C66.7381 391.272 69.8295 381.997 69.97 381.576L74.8881 367.243C74.9663 367.06 74.9945 366.86 74.9698 366.662C74.9451 366.465 74.8685 366.277 74.7476 366.119C74.4666 365.697 74.1856 365.416 73.764 365.416L49.1735 361.622C48.8941 361.559 48.6013 361.594 48.345 361.722C48.0887 361.85 47.8848 362.063 47.7683 362.325C46.6441 364.573 42.0071 368.929 38.6346 371.178C21.351 369.07 12.7794 376.377 12.4983 376.658C11.7957 377.22 8.00184 380.311 8.70443 383.122C8.82475 383.865 9.13318 384.565 9.6005 385.155C10.0678 385.745 10.6784 386.206 11.3742 386.494C12.1707 386.837 13.0387 386.982 13.9035 386.916C13.8579 387.676 13.9532 388.438 14.1846 389.164C14.4758 390.096 15.0048 390.936 15.7193 391.601C16.4339 392.266 17.3094 392.734 18.2596 392.958C18.9269 393.136 19.625 393.165 20.3048 393.043C20.9846 392.922 21.6295 392.653 22.1941 392.255C22.2778 393.044 22.5166 393.808 22.8967 394.503C23.2137 395.058 23.6608 395.526 24.1993 395.869C24.7379 396.212 25.3518 396.418 25.9881 396.471C27.4767 396.681 28.9884 396.298 30.1974 395.404C31.4064 394.511 32.216 393.178 32.4518 391.693C33.1829 389.281 34.7859 387.227 36.9484 385.932C39.3372 384.667 48.0493 384.246 54.6536 384.386C53.951 384.948 53.1079 385.651 52.2648 386.213C48.6114 388.883 45.2389 391.553 45.3795 394.222C45.3737 394.801 45.5283 395.37 45.8259 395.866C46.1235 396.362 46.5526 396.766 47.0657 397.033C48.0447 397.606 49.1632 397.898 50.2976 397.876C54.5131 397.876 59.7122 394.785 60.5553 394.082ZM35.5432 383.403C32.7656 385.149 30.718 387.846 29.7821 390.991C29.7287 391.379 29.5988 391.753 29.4 392.091C29.2011 392.429 28.9373 392.724 28.6236 392.959C28.31 393.194 27.9529 393.365 27.5728 393.461C27.1928 393.557 26.7974 393.577 26.4096 393.52C26.1872 393.553 25.9601 393.517 25.759 393.416C25.5579 393.315 25.3926 393.155 25.2855 392.958C24.8414 391.531 24.8909 389.997 25.426 388.602C25.4986 388.446 25.5379 388.277 25.5415 388.105C25.545 387.933 25.5127 387.762 25.4466 387.604C25.3805 387.445 25.2821 387.302 25.1576 387.183C25.0331 387.065 24.8851 386.974 24.7234 386.916C24.4041 386.762 24.0385 386.734 23.6998 386.838C23.361 386.942 23.0741 387.171 22.8967 387.478C22.8967 387.618 21.07 390.709 18.9622 390.288C18.4985 390.193 18.0698 389.972 17.7229 389.65C17.376 389.328 17.1242 388.917 16.9949 388.461C16.7865 388.035 16.7023 387.558 16.752 387.086C16.8017 386.614 16.9833 386.165 17.276 385.791C17.4811 385.531 17.5927 385.209 17.5927 384.878C17.5927 384.547 17.4811 384.225 17.276 383.965C17.0569 383.705 16.7512 383.533 16.4153 383.482C16.0794 383.43 15.7362 383.502 15.4493 383.684C14.5281 384.117 13.4848 384.216 12.4983 383.965C12.2107 383.84 11.958 383.646 11.762 383.402C11.5661 383.157 11.433 382.868 11.3742 382.559C11.2337 381.997 12.4983 380.171 14.1846 378.906C14.1846 378.906 22.3346 372.021 38.6346 374.128C38.7987 374.18 38.9722 374.194 39.1424 374.17C39.3126 374.145 39.4752 374.083 39.6183 373.988C43.434 371.413 46.8039 368.233 49.595 364.573L71.6563 368.086L67.3002 380.873C67.3002 381.014 64.4898 389.445 59.4312 391.693C59.4312 391.73 59.4164 391.766 59.39 391.792C59.3637 391.819 59.328 391.834 59.2907 391.834C56.7614 393.379 50.7191 396.19 48.6113 394.785C48.3303 394.503 48.1898 394.363 48.1898 394.222C48.1898 392.958 51.8433 390.147 53.951 388.461C55.8203 387.128 57.5192 385.571 59.0097 383.824C59.1668 383.629 59.2638 383.392 59.2888 383.142C59.3137 382.893 59.2655 382.642 59.1502 382.419C59.0174 382.203 58.8314 382.025 58.6099 381.902C58.3884 381.779 58.1389 381.715 57.8855 381.716C57.1829 381.716 55.0752 381.576 52.2648 381.576C46.6441 381.562 38.3536 381.857 35.5432 383.403Z" fill="#2C3B47"/>
<path d="M25.2848 388.742C25.9874 387.056 28.3762 382.419 31.4676 381.295C31.8216 381.164 32.1094 380.898 32.2675 380.556C32.4256 380.213 32.4412 379.822 32.3107 379.468C32.1803 379.114 31.9145 378.826 31.5719 378.668C31.2294 378.51 30.8381 378.494 30.484 378.625C25.7064 380.452 22.8961 387.337 22.7555 387.618C22.6679 387.782 22.6165 387.962 22.6049 388.148C22.5934 388.333 22.622 388.519 22.6887 388.692C22.7553 388.865 22.8585 389.022 22.9913 389.152C23.1241 389.282 23.2834 389.382 23.4581 389.445C23.623 389.556 23.8221 389.606 24.0202 389.585C24.2896 389.581 24.5521 389.499 24.7763 389.349C25.0006 389.2 25.1771 388.989 25.2848 388.742Z" fill="#2C3B47"/>
<path d="M17.2768 385.51C19.0192 383.319 21.2271 381.543 23.7406 380.311C24.0148 380.127 24.2152 379.851 24.3066 379.534C24.3979 379.216 24.3744 378.877 24.2402 378.575C24.106 378.273 23.8696 378.028 23.5727 377.883C23.2757 377.738 22.9372 377.702 22.6165 377.782C19.6724 379.274 17.0844 381.383 15.0286 383.965C14.831 384.272 14.7507 384.639 14.8023 385.001C14.854 385.362 15.034 385.693 15.3096 385.932C15.5659 386.088 15.8541 386.184 16.1527 386.213C16.3896 386.226 16.6247 386.165 16.8259 386.039C17.0271 385.914 17.1846 385.729 17.2768 385.51V385.51Z" fill="#2C3B47"/>
<path d="M206.834 304.713L223.134 251.457C223.236 251.031 223.186 250.584 222.994 250.192C222.89 250.023 222.746 249.883 222.574 249.785C222.402 249.687 222.208 249.633 222.01 249.63L189.551 246.679C189.384 246.642 189.213 246.638 189.045 246.667C188.877 246.696 188.717 246.758 188.573 246.85C188.43 246.941 188.306 247.06 188.208 247.199C188.11 247.339 188.041 247.496 188.005 247.663L179.012 280.122L157.372 257.499C153.779 253.783 149.479 250.824 144.725 248.797C139.971 246.77 134.859 245.715 129.69 245.695H120.697C120.324 245.695 119.967 245.843 119.703 246.107C119.44 246.37 119.292 246.728 119.292 247.1C119.292 247.473 119.44 247.831 119.703 248.094C119.967 248.358 120.324 248.506 120.697 248.506H129.69C134.496 248.49 139.255 249.453 143.676 251.338C148.097 253.222 152.088 255.988 155.405 259.466L178.731 283.916C178.903 284.109 179.126 284.25 179.374 284.325C179.622 284.399 179.886 284.404 180.136 284.338C180.36 284.252 180.563 284.121 180.733 283.951C180.902 283.781 181.034 283.578 181.12 283.354L190.394 249.63L219.973 252.286L204.235 303.996C204.177 304.348 204.243 304.708 204.423 305.016C204.603 305.324 204.884 305.559 205.218 305.682H205.64C206.413 305.682 206.975 305.275 206.834 304.713Z" fill="#2C3B47"/>
<path d="M144.305 386.353C166.085 386.353 180.98 376.657 191.8 364.292L219.622 332.535C219.622 332.535 285.665 397.032 285.946 397.032C286.227 397.032 323.184 353.472 323.184 353.472L247.164 297.968C241.785 294.53 235.55 292.669 229.167 292.594C222.784 292.52 216.508 294.235 211.051 297.546C176.624 318.483 105.381 361.763 103.555 363.027C103.555 363.027 122.384 386.494 144.305 386.353Z" fill="#DA7AB1"/>
<path d="M287.209 397.314C287.221 397.074 287.177 396.834 287.079 396.614C286.981 396.395 286.833 396.201 286.647 396.049C284.68 394.363 242.524 353.332 220.463 331.692C220.201 331.435 219.847 331.291 219.48 331.291C219.112 331.291 218.759 331.435 218.496 331.692L190.673 363.449C177.886 378.063 162.71 385.089 144.162 385.089C143.789 385.089 143.432 385.237 143.169 385.5C142.905 385.764 142.757 386.121 142.757 386.494C142.757 386.867 142.905 387.224 143.169 387.488C143.432 387.751 143.789 387.899 144.162 387.899C163.554 387.899 179.432 380.452 192.781 365.276L219.62 334.643C284.961 398.297 284.961 398.298 285.663 398.438H285.804C286.133 398.445 286.453 398.336 286.71 398.13C286.967 397.925 287.143 397.636 287.209 397.314Z" fill="#2C3B47"/>
<path d="M182.386 319.327C182.49 319.171 182.561 318.995 182.596 318.811C182.631 318.627 182.629 318.438 182.59 318.254C182.551 318.071 182.475 317.897 182.368 317.744C182.26 317.59 182.123 317.459 181.965 317.359C162.995 305.978 144.025 274.502 143.884 274.221C143.783 274.064 143.651 273.928 143.498 273.822C143.344 273.716 143.171 273.642 142.988 273.602C142.805 273.563 142.617 273.56 142.433 273.594C142.249 273.628 142.074 273.698 141.917 273.799C141.76 273.901 141.625 274.032 141.519 274.186C141.413 274.339 141.338 274.513 141.299 274.695C141.26 274.878 141.257 275.067 141.291 275.25C141.324 275.434 141.394 275.609 141.495 275.766C142.198 277.031 161.027 308.085 180.559 319.889C180.77 320.016 181.018 320.066 181.262 320.029C181.496 320.029 181.726 319.963 181.925 319.839C182.123 319.715 182.283 319.537 182.386 319.327V319.327Z" fill="#2C3B47"/>
<path d="M103.133 371.177C103.281 371.067 103.405 370.928 103.499 370.769C103.593 370.61 103.655 370.435 103.681 370.252C103.707 370.069 103.697 369.883 103.651 369.705C103.606 369.526 103.525 369.358 103.414 369.21C94.9832 358.531 90.2056 321.856 90.2056 321.434C90.1872 321.25 90.1326 321.071 90.0449 320.907C89.9572 320.744 89.8382 320.599 89.6947 320.482C89.5512 320.364 89.3859 320.276 89.2084 320.223C89.0308 320.169 88.8444 320.151 88.6599 320.17C88.4754 320.188 88.2963 320.243 88.1329 320.33C87.9695 320.418 87.8249 320.537 87.7075 320.681C87.5901 320.824 87.502 320.989 87.4485 321.167C87.3949 321.344 87.3768 321.531 87.3953 321.715C87.6763 323.261 92.3134 359.655 101.166 370.896C101.289 371.079 101.457 371.227 101.654 371.325C101.851 371.424 102.07 371.47 102.29 371.458C102.593 371.452 102.887 371.354 103.133 371.177Z" fill="#2C3B47"/>
<path d="M220.606 333.519L226.507 326.633C226.699 326.349 226.779 326.004 226.734 325.664C226.688 325.324 226.52 325.013 226.261 324.788C226.002 324.564 225.67 324.441 225.327 324.445C224.984 324.448 224.654 324.577 224.4 324.807L218.498 331.692C218.258 331.973 218.139 332.336 218.165 332.704C218.191 333.072 218.361 333.415 218.639 333.659C218.885 333.836 219.179 333.934 219.482 333.94C219.897 333.951 220.3 333.8 220.606 333.519Z" fill="#2C3B47"/>
<path d="M216.109 377.346L243.931 373.271C244.147 373.298 244.366 373.273 244.571 373.201C244.776 373.128 244.961 373.009 245.112 372.852C245.263 372.696 245.375 372.506 245.441 372.299C245.506 372.092 245.523 371.872 245.489 371.657C245.455 371.443 245.371 371.239 245.245 371.061C245.119 370.884 244.954 370.739 244.762 370.637C244.57 370.534 244.357 370.478 244.14 370.472C243.923 370.466 243.707 370.51 243.51 370.602L215.687 374.677C215.51 374.7 215.34 374.76 215.186 374.851C215.033 374.943 214.9 375.064 214.794 375.209C214.689 375.353 214.615 375.518 214.575 375.692C214.535 375.866 214.531 376.046 214.563 376.222C214.615 376.563 214.783 376.875 215.039 377.106C215.296 377.337 215.624 377.471 215.968 377.487C216.006 377.487 216.041 377.472 216.068 377.446C216.094 377.419 216.109 377.384 216.109 377.346Z" fill="#2C3B47"/>
<path d="M195.593 248.646C197.139 243.025 203.462 238.95 203.462 238.95C203.462 238.95 203.321 238.95 197.56 240.637C191.799 242.323 191.659 238.669 191.659 238.669C191.659 238.669 190.956 234.735 197.56 233.189C194.89 232.627 191.799 232.205 191.659 229.676C191.518 226.304 197.56 225.882 197.56 225.882C197.56 225.882 192.923 226.023 192.783 222.51C192.783 219.699 199.106 218.435 199.106 218.435C199.106 218.435 194.469 218.435 195.031 213.938C195.874 208.88 212.174 208.177 219.762 210.847C220.184 210.987 220.465 211.128 220.886 211.268C227.912 214.5 225.523 229.114 220.886 235.578C217.96 240.042 216.174 245.157 215.687 250.473C215.687 250.473 199.246 248.927 195.593 248.646Z" fill="#CB8529"/>
<path d="M216.951 251.737C217.088 251.614 217.197 251.462 217.269 251.292C217.342 251.122 217.377 250.939 217.372 250.754C217.813 245.689 219.503 240.813 222.29 236.562C225.663 231.925 228.052 222.791 226.365 216.327C226.121 215.027 225.574 213.802 224.768 212.752C223.962 211.703 222.921 210.857 221.728 210.285C221.335 210.04 220.909 209.85 220.464 209.723C213.859 207.474 201.634 207.474 196.435 210.566C195.794 210.911 195.236 211.391 194.799 211.973C194.362 212.556 194.058 213.226 193.906 213.938C193.756 214.68 193.78 215.446 193.975 216.177C194.17 216.909 194.531 217.585 195.03 218.154C195.045 218.26 195.094 218.359 195.171 218.435C193.344 219.278 191.517 220.543 191.517 222.65C191.598 223.858 192.095 224.999 192.922 225.882V225.882C192.136 226.224 191.473 226.797 191.022 227.525C190.57 228.253 190.35 229.101 190.393 229.957C190.416 230.785 190.7 231.584 191.204 232.241C191.709 232.897 192.409 233.377 193.203 233.611C192.281 234.158 191.521 234.941 191.002 235.88C190.484 236.818 190.225 237.878 190.252 238.95C190.268 239.508 190.417 240.054 190.686 240.542C190.955 241.031 191.336 241.449 191.798 241.761C193.203 242.744 195.171 242.885 197.7 242.182C196.124 243.985 194.929 246.088 194.187 248.365C194.101 248.546 194.068 248.748 194.093 248.948C194.118 249.147 194.199 249.335 194.327 249.489C194.431 249.658 194.576 249.798 194.747 249.896C194.919 249.994 195.113 250.048 195.311 250.051L215.686 251.878C216.105 251.807 216.527 251.76 216.951 251.737V251.737ZM204.023 240.075C204.33 239.897 204.558 239.61 204.663 239.271C204.767 238.933 204.739 238.567 204.585 238.248C204.419 237.963 204.164 237.741 203.86 237.614C203.555 237.488 203.218 237.463 202.899 237.545L196.997 239.231C196.428 239.497 195.812 239.647 195.185 239.671C194.557 239.695 193.931 239.593 193.344 239.372C193.224 239.296 193.123 239.193 193.05 239.071C192.977 238.949 192.933 238.811 192.922 238.669V238.529C192.782 238.388 192.641 235.718 197.7 234.594C198.073 234.594 198.43 234.446 198.693 234.183C198.957 233.919 199.105 233.562 199.105 233.189C199.105 232.816 198.957 232.459 198.693 232.196C198.43 231.932 198.073 231.784 197.7 231.784L197.278 231.643C194.889 231.222 193.203 230.8 193.063 229.536C192.922 227.849 196.576 227.147 197.559 227.147C197.907 227.112 198.229 226.949 198.463 226.689C198.697 226.429 198.826 226.091 198.824 225.742C198.821 225.564 198.781 225.39 198.708 225.228C198.634 225.067 198.528 224.923 198.396 224.804C198.264 224.685 198.11 224.595 197.942 224.539C197.773 224.483 197.595 224.462 197.419 224.477C196.415 224.509 195.429 224.213 194.608 223.634C194.46 223.489 194.344 223.314 194.272 223.119C194.199 222.925 194.17 222.717 194.187 222.51C194.187 221.526 196.997 220.262 199.386 219.84C199.722 219.75 200.017 219.548 200.222 219.266C200.427 218.985 200.528 218.642 200.51 218.294C200.458 217.953 200.29 217.641 200.034 217.41C199.778 217.18 199.449 217.045 199.105 217.03C198.277 217.037 197.476 216.736 196.857 216.187C196.636 215.916 196.482 215.596 196.409 215.254C196.335 214.912 196.344 214.557 196.435 214.219C196.654 213.602 197.109 213.097 197.7 212.814C201.775 210.425 213.016 210.144 219.34 212.252C219.621 212.393 220.042 212.533 220.323 212.674C221.112 213.112 221.796 213.716 222.329 214.444C222.863 215.171 223.233 216.005 223.415 216.889C224.96 222.369 222.712 230.66 219.761 234.735C216.891 238.98 215.062 243.843 214.421 248.927L197.278 247.381C198.912 244.443 201.224 241.937 204.023 240.075Z" fill="#2C3B47"/>
<path d="M211.05 218.857C211.136 218.503 211.082 218.129 210.898 217.815C210.715 217.5 210.417 217.269 210.066 217.17C208.38 216.749 201.213 217.03 198.965 217.17C198.688 217.277 198.451 217.468 198.29 217.717C198.128 217.966 198.049 218.26 198.065 218.556C198.08 218.853 198.189 219.137 198.376 219.368C198.563 219.598 198.819 219.764 199.106 219.84C202.521 219.616 205.948 219.616 209.363 219.84H209.785C210.071 219.825 210.345 219.722 210.571 219.546C210.797 219.371 210.964 219.13 211.05 218.857Z" fill="#2C3B47"/>
<path d="M197.419 227.287C197.56 227.287 206.553 226.585 208.941 226.725C209.314 226.763 209.686 226.65 209.976 226.413C210.266 226.176 210.45 225.833 210.487 225.461C210.524 225.088 210.412 224.716 210.175 224.426C209.938 224.136 209.595 223.952 209.222 223.915C206.412 223.775 197.7 224.477 197.278 224.477C196.918 224.541 196.592 224.732 196.36 225.016C196.128 225.299 196.005 225.657 196.014 226.023C196.049 226.371 196.212 226.693 196.472 226.927C196.732 227.161 197.069 227.289 197.419 227.287Z" fill="#2C3B47"/>
<path d="M197.488 234.454C199.877 233.892 206.622 232.487 209.151 233.189C209.338 233.278 209.542 233.325 209.749 233.326C209.956 233.327 210.16 233.283 210.348 233.196C210.535 233.109 210.702 232.982 210.834 232.823C210.967 232.665 211.063 232.479 211.116 232.279C211.168 232.079 211.176 231.87 211.139 231.666C211.101 231.463 211.019 231.27 210.899 231.102C210.778 230.934 210.622 230.795 210.442 230.694C210.261 230.593 210.06 230.534 209.854 230.519C206.341 229.536 197.91 231.503 196.926 231.784C196.576 231.883 196.277 232.114 196.094 232.428C195.91 232.743 195.856 233.116 195.943 233.47C196.008 233.792 196.185 234.081 196.442 234.287C196.699 234.492 197.019 234.601 197.348 234.594C197.488 234.594 197.699 234.594 197.488 234.454Z" fill="#2C3B47"/>
<path d="M142.351 197.976L103.652 203.287L102.528 218.013C102.528 218.013 98.3124 216.285 96.5981 219.194C95.5041 221.027 95.0724 223.179 95.3756 225.292C96.1625 231.433 102.767 227.765 102.767 227.765L103.638 240.257C103.638 240.257 62.8036 214.121 96.6122 197.948C96.7667 191.273 106.153 175.928 130.336 181.085C149.039 185.933 142.351 197.976 142.351 197.976Z" fill="#2C3B47"/>
<path d="M133.104 240.215C136.311 239.961 139.337 238.628 141.69 236.435C146.341 231.742 145.905 224.281 145.737 220.346C145.652 219.658 145.737 219.082 145.666 218.66C145.666 215.259 147.676 214.304 147.816 214.276C147.957 214.248 156.613 211.044 155.882 205.325C155.151 199.606 146.046 199.62 145.807 199.521C145.434 199.521 145.077 199.67 144.813 199.933C144.55 200.197 144.402 200.554 144.402 200.927C144.402 201.784 144.992 202.332 145.807 202.332C145.807 202.332 152.748 202.332 153.17 205.648C153.535 208.571 148.603 211.044 146.847 211.69C146.706 211.69 142.94 213.32 142.912 218.716C142.912 219.138 142.912 219.84 143.011 220.543C143.207 224.337 143.601 230.815 139.68 234.595C137.291 237.012 133.596 238.051 128.439 237.7C120.457 237.293 114.556 236.492 114.387 236.506C114.059 236.522 113.746 236.652 113.504 236.875C113.262 237.097 113.106 237.398 113.063 237.723C113.019 238.049 113.091 238.38 113.267 238.658C113.442 238.936 113.709 239.144 114.022 239.246C114.022 239.246 120.205 240.019 128.214 240.567C130.139 240.314 131.699 240.398 133.104 240.215Z" fill="#2C3B47"/>
<path d="M133.426 206.739C133.299 205.738 134.008 204.824 135.009 204.698C136.01 204.571 136.924 205.28 137.05 206.281C137.177 207.282 136.468 208.196 135.467 208.322C134.466 208.449 133.552 207.74 133.426 206.739Z" fill="#2C3B47"/>
<path d="M123.403 210.573C123.272 209.574 123.976 208.658 124.974 208.527C125.973 208.396 126.889 209.099 127.02 210.098C127.151 211.097 126.448 212.013 125.449 212.144C124.451 212.275 123.535 211.572 123.403 210.573Z" fill="#2C3B47"/>
<path d="M113.868 250.571C116.757 250.263 119.42 248.867 121.316 246.665C121.545 246.375 121.651 246.006 121.611 245.639L120.655 238.107C120.609 237.735 120.416 237.396 120.119 237.165C119.973 237.051 119.805 236.967 119.625 236.917C119.446 236.868 119.259 236.855 119.074 236.878C118.89 236.901 118.712 236.96 118.55 237.052C118.388 237.144 118.246 237.267 118.132 237.414C118.018 237.56 117.934 237.728 117.885 237.907C117.835 238.087 117.822 238.274 117.845 238.459L118.73 245.484C117.606 246.623 113.475 249.826 105.536 246.44C104.805 240.594 104.032 227.793 104.018 227.653C103.997 227.414 103.922 227.184 103.797 226.979C103.673 226.774 103.503 226.601 103.301 226.472C103.081 226.37 102.841 226.318 102.599 226.318C102.356 226.318 102.116 226.37 101.896 226.472C101.236 226.838 99.0858 227.807 97.8914 227.259C96.992 226.81 96.6689 225.433 96.6689 224.294C96.5948 223.343 96.7258 222.386 97.0531 221.489C97.3803 220.592 97.8962 219.776 98.5659 219.095C99.0933 218.83 99.6756 218.691 100.266 218.691C100.857 218.691 101.439 218.83 101.966 219.095C102.134 219.176 102.316 219.222 102.502 219.232C102.688 219.242 102.874 219.215 103.05 219.153C103.225 219.091 103.387 218.995 103.525 218.871C103.664 218.746 103.776 218.596 103.856 218.428C103.937 218.26 103.983 218.078 103.993 217.892C104.003 217.706 103.976 217.52 103.914 217.345C103.852 217.169 103.756 217.008 103.632 216.869C103.507 216.731 103.357 216.618 103.189 216.538C100.196 215.217 98.1584 215.891 96.9921 216.749C94.8984 218.154 93.7039 220.964 93.8445 224.365C94.0412 227.035 94.9686 228.763 96.6548 229.676C98.193 230.332 99.925 230.367 101.489 229.775C101.713 233.864 102.458 243.11 103.006 247.438C103.036 247.671 103.131 247.89 103.28 248.072C103.429 248.253 103.627 248.389 103.849 248.463C106.901 250.158 110.393 250.892 113.868 250.571V250.571Z" fill="#2C3B47"/>
<path d="M96.7528 199.198C96.9373 199.183 97.1161 199.128 97.2765 199.035C97.4369 198.943 97.5748 198.816 97.6802 198.664C97.9025 198.37 98.0005 198.001 97.9532 197.636C97.9059 197.27 97.717 196.938 97.4273 196.711C97.2727 196.584 92.6075 193.212 88.3358 195.306C88.0004 195.479 87.7476 195.778 87.6329 196.138C87.5183 196.498 87.5513 196.888 87.7246 197.224C87.8979 197.559 88.1973 197.812 88.557 197.927C88.9167 198.041 89.3072 198.008 89.6426 197.835C92.453 196.43 95.8816 199.029 95.8816 199.029C96.1384 199.198 96.4515 199.259 96.7528 199.198V199.198Z" fill="#2C3B47"/>
<rect width="80.0199" height="30.4838" rx="15.2419" transform="matrix(-1 0 0 1 249.998 8.57373)" fill="#5C9CD0"/>
<path fill-rule="evenodd" clip-rule="evenodd" d="M181.411 5.35791H233.805C242.42 5.35791 249.404 12.3422 249.404 20.9576C249.404 29.5731 242.42 36.5574 233.805 36.5574H181.411C172.795 36.5574 165.811 29.5731 165.811 20.9576C165.811 12.3422 172.795 5.35791 181.411 5.35791ZM233.805 2.85791C243.801 2.85791 251.904 10.9614 251.904 20.9576C251.904 30.9539 243.801 39.0574 233.805 39.0574H181.411C171.414 39.0574 163.311 30.9539 163.311 20.9576C163.311 10.9614 171.414 2.85791 181.411 2.85791H233.805Z" fill="#2C3B47"/>
<path fill-rule="evenodd" clip-rule="evenodd" d="M151.315 63.9988C150.81 64.4698 150.783 65.2608 151.254 65.7655C153.202 67.8536 156.366 69.0567 159.791 69.4004C163.247 69.7471 167.139 69.2406 170.712 67.7227C174.292 66.2013 177.584 63.6483 179.761 59.8869C181.942 56.1188 182.947 51.2347 182.115 45.1542C182.021 44.4702 181.391 43.9916 180.707 44.0852C180.023 44.1788 179.544 44.8091 179.638 45.4931C180.407 51.1124 179.458 55.4199 177.597 58.6348C175.733 61.8564 172.897 64.0778 169.734 65.4218C166.562 66.7693 163.094 67.2192 160.041 66.9129C156.958 66.6035 154.466 65.5442 153.081 64.0599C152.61 63.5552 151.819 63.5278 151.315 63.9988Z" fill="#2C3B47"/>
<path fill-rule="evenodd" clip-rule="evenodd" d="M414.894 187.921C414.734 187.393 414.176 187.094 413.647 187.254C408.742 188.741 404.745 191.429 402.673 195.65C400.602 199.87 400.564 205.405 403.109 212.354C403.299 212.873 403.873 213.139 404.392 212.949C404.91 212.759 405.177 212.185 404.987 211.666C402.554 205.023 402.72 200.094 404.469 196.531C406.217 192.969 409.653 190.554 414.227 189.168C414.756 189.008 415.054 188.45 414.894 187.921Z" fill="#2C3B47"/>
<path fill-rule="evenodd" clip-rule="evenodd" d="M191.234 17.147C191.234 17.8373 190.675 18.397 189.984 18.397H178.553C177.863 18.397 177.303 17.8373 177.303 17.147C177.303 16.4566 177.863 15.897 178.553 15.897L189.984 15.897C190.675 15.897 191.234 16.4566 191.234 17.147Z" fill="#2C3B47"/>
<path fill-rule="evenodd" clip-rule="evenodd" d="M198.854 24.7681C198.854 25.4584 198.294 26.0181 197.604 26.0181L178.551 26.0181C177.861 26.0181 177.301 25.4584 177.301 24.7681C177.301 24.0777 177.861 23.5181 178.551 23.5181L197.604 23.5181C198.294 23.5181 198.854 24.0777 198.854 24.7681Z" fill="#2C3B47"/>
<path fill-rule="evenodd" clip-rule="evenodd" d="M202.664 17.147C202.664 17.8373 202.104 18.397 201.414 18.397H194.746C194.055 18.397 193.496 17.8373 193.496 17.147C193.496 16.4566 194.055 15.897 194.746 15.897H201.414C202.104 15.897 202.664 16.4566 202.664 17.147Z" fill="#2C3B47"/>
<path fill-rule="evenodd" clip-rule="evenodd" d="M210.285 24.7681C210.285 25.4584 209.726 26.0181 209.035 26.0181H202.367C201.676 26.0181 201.117 25.4584 201.117 24.7681C201.117 24.0777 201.676 23.5181 202.367 23.5181H209.035C209.726 23.5181 210.285 24.0777 210.285 24.7681Z" fill="#2C3B47"/>
<path fill-rule="evenodd" clip-rule="evenodd" d="M217.906 17.147C217.906 17.8373 217.347 18.397 216.656 18.397H206.177C205.487 18.397 204.927 17.8373 204.927 17.147C204.927 16.4566 205.487 15.897 206.177 15.897L216.656 15.897C217.347 15.897 217.906 16.4566 217.906 17.147Z" fill="#2C3B47"/>
<path fill-rule="evenodd" clip-rule="evenodd" d="M237.91 17.147C237.91 17.8373 237.351 18.397 236.66 18.397L220.466 18.397C219.775 18.397 219.216 17.8373 219.216 17.147C219.216 16.4566 219.775 15.897 220.466 15.897L236.66 15.897C237.351 15.897 237.91 16.4566 237.91 17.147Z" fill="#2C3B47"/>
<path fill-rule="evenodd" clip-rule="evenodd" d="M235.055 24.7681C235.055 25.4584 234.495 26.0181 233.805 26.0181L213.8 26.0181C213.109 26.0181 212.55 25.4584 212.55 24.7681C212.55 24.0777 213.109 23.5181 213.8 23.5181L233.805 23.5181C234.495 23.5181 235.055 24.0777 235.055 24.7681Z" fill="#2C3B47"/>
<circle cx="436.233" cy="179.568" r="13.813" fill="white"/>
<circle cx="433.375" cy="181.474" r="13.813" fill="#5AB467"/>
<path fill-rule="evenodd" clip-rule="evenodd" d="M436.709 190.881C443.22 190.881 448.498 185.603 448.498 179.092C448.498 172.581 443.22 167.303 436.709 167.303C430.198 167.303 424.92 172.581 424.92 179.092C424.92 185.603 430.198 190.881 436.709 190.881ZM436.709 193.381C444.601 193.381 450.998 186.984 450.998 179.092C450.998 171.2 444.601 164.803 436.709 164.803C428.817 164.803 422.42 171.2 422.42 179.092C422.42 186.984 428.817 193.381 436.709 193.381Z" fill="#2C3B47"/>
<path fill-rule="evenodd" clip-rule="evenodd" d="M451.852 167.7C452.356 168.171 452.383 168.962 451.912 169.466L436.772 185.686L429.128 177.52C428.657 177.016 428.683 176.225 429.187 175.753C429.691 175.282 430.482 175.308 430.954 175.812L436.769 182.025L450.085 167.76C450.556 167.256 451.347 167.228 451.852 167.7Z" fill="#2C3B47"/>
<defs>
<clipPath id="clip0_2_4658">
<rect x="54" y="11" width="112" height="113" rx="56" fill="white"/>
</clipPath>
<clipPath id="clip1_2_4658">
<rect x="241" y="34" width="158" height="157" rx="78.5" fill="white"/>
</clipPath>
<clipPath id="clip2_2_4658">
<rect x="356" y="202" width="86" height="87" rx="43" fill="white"/>
</clipPath>
</defs>
</svg>
