<svg width="251" height="255" viewBox="0 0 251 255" fill="none" xmlns="http://www.w3.org/2000/svg">
<path d="M27.4326 136.162L27.2214 140.331L27.2087 140.582L27.4027 140.742L30.8479 143.582L26.6258 144.755L26.3831 144.822L26.2929 145.057L24.7152 149.17L22.286 145.455L22.1485 145.245L21.8976 145.23L17.4185 144.96L20.263 141.606L20.4298 141.409L20.3663 141.159L19.2829 136.892L23.5639 138.418L23.7954 138.501L24.0022 138.368L27.4326 136.162Z" fill="white" stroke="#2C3B47"/>
<path d="M237.772 40L235.613 46.959L228.59 49.2864L234.426 53.4839L234.536 60.7497L240.458 56.4423L247.458 58.7292L245.223 51.8338L249.345 45.8069L241.854 45.8764L237.772 40Z" fill="white"/>
<path d="M103.641 28.4786L114.93 47.8909L115.683 48.7536L119.857 52.2504L128.57 47.1846L127.638 41.8524L127.279 40.7871L116.001 21.3169L103.641 28.4786Z" fill="white"/>
<path d="M204.519 230.881C212.695 230.881 219.323 224.253 219.323 216.077C219.323 207.901 212.695 201.273 204.519 201.273C196.343 201.273 189.715 207.901 189.715 216.077C189.715 224.253 196.343 230.881 204.519 230.881Z" fill="white"/>
<path d="M121.57 124.799C152.417 106.331 178.539 100.646 178.539 100.646L187.704 112.375L201.79 130.45C201.79 130.45 183.6 166.797 144.381 197.377C129.328 209.107 116.829 216.303 107.091 220.686C90.1852 228.357 81.3908 227.686 81.3908 227.686L58.8869 198.796L57.2253 196.694L54.6895 193.429C54.6895 193.429 56.2121 184.744 67.768 170.3C69.5049 168.094 71.5312 165.714 73.8065 163.213L121.57 124.799Z" fill="white"/>
<path d="M66.1289 133.571C66.1289 133.571 70.6274 126.571 82.7681 116.561C86.7223 113.591 87.2202 112.583 99.9978 106.504C102.991 105.318 116.452 102.122 119.103 102.093C121.211 100.935 145.318 88.7189 145.318 88.7189C145.318 88.7189 160.186 81.0304 161.963 80.353C162.479 81.5109 168.054 93.3679 168.054 93.3679C168.054 93.3679 149.568 102.168 146.818 103.575C144.068 104.982 134.66 109.608 129.333 113.463C127.458 114.876 124.123 117.157 123.37 118.228C123.139 119.346 122.583 123.96 120.215 126.334L133.351 126.635L131.962 141.641L112.324 140.333L111.195 142.371L92.1355 141.653L66.1289 133.571Z" fill="#EFE08A"/>
<path d="M210.306 99.8232L178.539 100.645L190.141 115.513L201.732 130.438L210.306 99.8232Z" fill="#E1E7EE"/>
<path d="M64.6996 236.856L41.7383 207.352L54.7011 193.423L81.3909 227.685L64.6996 236.856Z" fill="#E1E7EE"/>
<path d="M67.7804 170.271L44.1011 164.846L32.7305 173.675L54.6902 193.429C54.6902 193.429 56.2244 184.744 67.7804 170.271Z" fill="#E1E7EE"/>
<path d="M107.021 220.732C90.185 228.357 81.3906 227.68 81.3906 227.68L95.135 253.797L106.5 244.956L107.021 220.732Z" fill="#E1E7EE"/>
<path d="M81.2744 228.241C81.1366 228.211 81.0146 228.131 80.9314 228.017C80.8483 227.903 80.8096 227.762 80.8229 227.622C80.8258 227.545 80.8452 227.47 80.8797 227.401C80.9141 227.333 80.9629 227.272 81.0226 227.224C81.0824 227.176 81.1518 227.141 81.2262 227.121C81.3006 227.102 81.3782 227.099 81.4539 227.112C81.5639 227.112 90.3351 227.633 106.847 220.165C118.426 214.954 130.897 207.098 144.016 196.885C182.673 166.78 201.066 130.525 201.263 130.161C201.347 130.064 201.461 129.998 201.587 129.974C201.713 129.949 201.844 129.967 201.959 130.025C202.073 130.082 202.166 130.176 202.221 130.292C202.276 130.408 202.292 130.539 202.264 130.664C202.073 131.029 183.57 167.503 144.705 197.788C131.516 208.053 118.953 215.933 107.275 221.219C90.4393 228.843 81.6797 228.293 81.3323 228.282L81.2744 228.241Z" fill="#2C3B47" stroke="#2C3B47"/>
<path d="M54.5856 194.008C54.4373 193.976 54.3076 193.887 54.2243 193.76C54.1409 193.633 54.1105 193.479 54.1397 193.33C54.2092 192.995 55.8477 184.345 67.3341 169.929C69.2273 167.584 71.2421 165.205 73.4305 162.86C73.5375 162.751 73.6803 162.684 73.8325 162.673C73.9848 162.661 74.1361 162.705 74.2584 162.796C74.367 162.905 74.4326 163.049 74.4432 163.202C74.4539 163.355 74.4088 163.507 74.3163 163.63C72.1916 165.986 70.1189 168.354 68.2894 170.658C57.0056 184.791 55.3382 193.429 55.315 193.55C55.262 193.696 55.1605 193.818 55.0276 193.897C54.8947 193.976 54.7385 194.007 54.5856 193.985V194.008Z" fill="#2C3B47" stroke="#2C3B47"/>
<path d="M121.454 125.361C121.38 125.348 121.31 125.318 121.248 125.275C121.186 125.232 121.134 125.177 121.095 125.112C121.051 125.049 121.022 124.977 121.009 124.902C120.996 124.826 121.001 124.748 121.022 124.675C121.043 124.601 121.08 124.533 121.131 124.475C121.182 124.417 121.245 124.372 121.315 124.342C151.89 106.041 178.175 100.165 178.481 100.107C178.611 100.111 178.735 100.159 178.834 100.242C178.933 100.326 179.001 100.44 179.028 100.566C179.055 100.693 179.038 100.825 178.981 100.941C178.924 101.057 178.829 101.151 178.713 101.207C178.47 101.276 152.307 107.124 121.923 125.344C121.768 125.369 121.611 125.374 121.454 125.361Z" fill="#2C3B47" stroke="#2C3B47"/>
<path d="M147.952 171.961C147.839 171.93 147.739 171.866 147.664 171.778C147.588 171.689 147.541 171.579 147.529 171.463C147.508 171.311 147.547 171.157 147.64 171.034C147.732 170.912 147.869 170.831 148.021 170.809C151.546 170.286 154.873 168.849 157.669 166.64C160.465 164.431 162.634 161.528 163.959 158.22C165.284 154.912 165.719 151.314 165.22 147.786C164.721 144.257 163.307 140.921 161.117 138.11C160.03 136.674 158.743 135.401 157.296 134.329C157.216 134.295 157.144 134.244 157.086 134.179C157.029 134.113 156.986 134.036 156.963 133.952C156.939 133.868 156.935 133.78 156.95 133.694C156.965 133.608 157 133.527 157.051 133.457C157.102 133.386 157.168 133.328 157.244 133.286C157.321 133.245 157.406 133.221 157.493 133.217C157.58 133.213 157.667 133.229 157.747 133.263C157.827 133.297 157.899 133.349 157.956 133.414C159.478 134.565 160.84 135.912 162.009 137.421C163.763 139.639 165.058 142.186 165.816 144.91C166.575 147.635 166.782 150.484 166.426 153.29C165.719 158.964 162.79 164.126 158.28 167.642C155.364 169.944 151.89 171.432 148.212 171.955C148.128 171.982 148.037 171.984 147.952 171.961Z" fill="#2C3B47" stroke="#2C3B47"/>
<path d="M140.525 171.747C137.639 171.145 134.908 169.956 132.502 168.252C130.097 166.549 128.067 164.368 126.541 161.847C125.015 159.325 124.024 156.516 123.631 153.594C123.238 150.673 123.451 147.702 124.256 144.866C124.271 144.789 124.303 144.716 124.35 144.654C124.397 144.591 124.458 144.54 124.528 144.504C124.597 144.468 124.674 144.449 124.753 144.447C124.831 144.446 124.909 144.462 124.98 144.495C125.057 144.509 125.129 144.541 125.192 144.587C125.255 144.634 125.306 144.694 125.342 144.763C125.378 144.833 125.397 144.909 125.399 144.987C125.4 145.065 125.384 145.143 125.35 145.213C124.498 148.285 124.373 151.513 124.985 154.641C125.597 157.769 126.929 160.712 128.876 163.236C130.538 165.391 132.618 167.187 134.992 168.516C137.366 169.846 139.985 170.681 142.69 170.971C142.842 170.988 142.981 171.065 143.076 171.185C143.171 171.304 143.216 171.456 143.2 171.608C143.173 171.754 143.095 171.887 142.979 171.98C142.863 172.074 142.717 172.123 142.569 172.117C141.88 171.973 141.196 171.892 140.525 171.747Z" fill="#2C3B47" stroke="#2C3B47"/>
<path d="M210.186 100.385C210.061 100.362 209.944 100.304 209.851 100.217C209.762 100.095 209.723 99.9441 209.744 99.795C209.764 99.6458 209.842 99.5105 209.961 99.4178L229.153 84.4634C229.273 84.3754 229.423 84.3371 229.571 84.3565C229.718 84.3759 229.853 84.4515 229.946 84.5676C230.036 84.6883 230.075 84.8391 230.056 84.9882C230.036 85.1373 229.96 85.273 229.842 85.3666L210.65 100.321C210.509 100.4 210.343 100.422 210.186 100.385Z" fill="#2C3B47" stroke="#2C3B47"/>
<path d="M112.933 194.465L112.07 208.065C112.07 208.065 144.312 202.443 147.427 201.806C150.542 201.169 151.283 199.288 147.612 198.402C143.942 197.516 130.51 196.978 128.507 197.319C128.478 194.396 128.159 190.881 128.159 190.881L112.933 194.465Z" fill="white"/>
<path d="M111.953 208.626C111.855 208.615 111.762 208.575 111.687 208.511C111.565 208.391 111.493 208.23 111.484 208.059L112.353 194.459C112.364 194.332 112.414 194.21 112.497 194.113C112.58 194.015 112.692 193.946 112.816 193.915L128.1 190.343C128.258 190.32 128.418 190.355 128.552 190.441C128.626 190.474 128.687 190.531 128.725 190.602C128.762 190.673 128.775 190.756 128.76 190.835C128.76 190.887 129.044 193.927 129.108 196.688C132.529 196.526 144.328 197.07 147.785 197.846C150.182 198.425 150.68 199.334 150.645 200.081C150.604 201.123 149.487 202.003 147.542 202.35C144.433 202.987 112.492 208.557 112.191 208.609C112.116 208.643 112.032 208.649 111.953 208.626ZM113.424 194.922L112.683 207.376C117.465 206.571 144.525 201.783 147.304 201.256C148.96 200.903 149.487 200.313 149.481 200.098C149.475 199.884 148.937 199.34 147.484 199.033C143.761 198.136 130.422 197.678 128.616 197.945C128.536 197.965 128.453 197.961 128.376 197.935C128.299 197.908 128.231 197.859 128.181 197.794C128.025 197.701 128.002 197.522 127.985 197.343C127.956 195.235 127.776 192.746 127.724 191.628L113.424 194.922Z" fill="#2C3B47" stroke="#2C3B47"/>
<path d="M178.303 76.1328C179.428 76.2075 180.542 76.4016 181.626 76.7118C182.882 77.146 185.256 78.3444 184.613 80.3129C184.092 81.9571 182.668 81.7776 181.58 81.135C180.491 80.4923 179.999 79.7571 179.015 79.7223C176.155 79.7223 175.541 77.7771 175.541 77.7771L178.303 76.1328Z" fill="#EDCFC5" stroke="#2C3B47"/>
<path d="M182.477 82.1421C182.055 82.0568 181.652 81.8939 181.29 81.6615C180.959 81.4829 180.653 81.2609 180.381 81.0015C179.996 80.6483 179.521 80.4079 179.009 80.3068C175.743 80.2663 175.037 78.072 175.002 77.9504C174.974 77.8293 174.983 77.7024 175.029 77.5866C175.074 77.4708 175.154 77.3715 175.257 77.302L178.007 75.5999C178.128 75.5571 178.252 75.5242 178.378 75.5015C179.553 75.5961 180.716 75.8035 181.851 76.121C183.918 76.8446 185.875 78.3615 185.209 80.4399C185.111 80.7899 184.936 81.1135 184.697 81.3869C184.457 81.6604 184.16 81.8769 183.826 82.0205C183.399 82.1996 182.928 82.2421 182.477 82.1421ZM179.518 79.2473C180.106 79.3979 180.647 79.6924 181.093 80.1042C181.348 80.272 181.597 80.4978 181.904 80.6831C182.116 80.8454 182.362 80.9578 182.623 81.012C182.885 81.0661 183.155 81.0605 183.415 80.9957C183.589 80.9227 183.74 80.805 183.854 80.6545C183.968 80.5041 184.04 80.3262 184.063 80.1389C184.584 78.4947 182.158 77.522 181.458 77.2441C180.483 76.9613 179.485 76.7675 178.476 76.6652L176.34 77.9678C176.647 78.4426 177.434 79.1257 179.072 79.1257C179.165 79.2299 179.35 79.2126 179.518 79.2473Z" fill="#2C3B47"/>
<path d="M122.322 87.7636C122.322 87.7636 124.684 87.6131 126.982 87.5146C129.281 87.4162 129.727 89.1994 129.044 90.5136C128.36 91.8279 125.101 92.3142 124.835 95.0063C124.256 101.479 123.451 104.113 119.468 105.85C118.113 106.429 116.289 106.238 114.79 105.85H114.68C114.68 105.85 114.344 107.182 114.072 108.745C112.951 109.23 111.707 109.35 110.514 109.09C109.322 108.829 108.241 108.2 107.425 107.292C107.425 107.292 109.4 104.849 109.689 100.472C108.687 100.784 105.364 101.317 105.787 98.1906C106.088 96.2105 108.149 94.7168 110.285 96.5058L110.482 88.6089L122.322 87.7636Z" fill="#EDCFC5"/>
<path d="M110.303 96.6332L110.506 88.6726L125.101 87.5842C125.101 87.5842 130.468 76.4451 115.838 77.5277C104.386 78.3961 105.092 85.6331 105.092 85.6331C105.092 85.6331 100.814 86.5478 99.6214 92.2505C98.4287 97.9532 104.294 103.395 109.018 104.264C109.533 102.249 109.11 102.863 110.303 96.6332Z" fill="#F39129"/>
<path d="M110.303 96.6332C108.178 94.7863 106.158 96.3495 105.805 98.318C105.382 101.439 108.699 100.912 109.707 100.593C109.429 104.976 107.455 107.425 107.455 107.425C108.275 108.327 109.355 108.951 110.547 109.211C111.738 109.47 112.98 109.352 114.101 108.872C114.373 107.298 114.709 105.978 114.709 105.978" fill="#EDCFC5"/>
<path d="M110.53 109.758C109.194 109.454 107.983 108.751 107.056 107.744C106.972 107.645 106.926 107.52 106.926 107.39C106.926 107.261 106.972 107.136 107.056 107.037C108.232 105.352 108.945 103.388 109.123 101.34C108.597 101.468 108.052 101.486 107.519 101.394C106.986 101.303 106.478 101.103 106.025 100.808C105.377 100.263 105.151 99.4008 105.261 98.3124C105.342 97.6933 105.584 97.1065 105.964 96.6114C106.345 96.1163 106.849 95.7304 107.426 95.4929C107.994 95.3165 108.599 95.2983 109.177 95.4401C109.754 95.5819 110.282 95.8783 110.703 96.2976C110.762 96.3482 110.81 96.4098 110.844 96.4789C110.879 96.548 110.9 96.6233 110.906 96.7004C110.911 96.7776 110.902 96.8551 110.877 96.9285C110.853 97.0019 110.815 97.0699 110.764 97.1284C110.713 97.1869 110.652 97.235 110.583 97.2697C110.514 97.3044 110.438 97.3252 110.361 97.3309C110.284 97.3365 110.207 97.3269 110.133 97.3026C110.06 97.2783 109.992 97.2398 109.933 97.1892C109.186 96.5639 108.474 96.3555 107.832 96.6102C107.453 96.7827 107.125 97.0505 106.881 97.3873C106.636 97.7242 106.483 98.1187 106.436 98.5324C106.377 98.7878 106.377 99.0534 106.435 99.309C106.493 99.5647 106.608 99.8039 106.772 100.009C107.473 100.588 108.92 100.339 109.603 100.13C109.688 100.091 109.783 100.081 109.873 100.101C109.964 100.121 110.046 100.17 110.107 100.24C110.188 100.293 110.25 100.37 110.284 100.461C110.317 100.552 110.32 100.651 110.292 100.744C110.198 103.12 109.472 105.428 108.191 107.431C108.904 108.105 109.794 108.563 110.756 108.754C111.719 108.944 112.716 108.859 113.633 108.508C113.882 107.043 114.171 105.937 114.183 105.879C114.233 105.752 114.327 105.646 114.447 105.581C114.568 105.516 114.708 105.496 114.842 105.524C114.976 105.553 115.096 105.628 115.18 105.736C115.264 105.845 115.306 105.98 115.3 106.117C115.3 106.117 114.964 107.442 114.721 108.965C114.666 109.15 114.55 109.312 114.391 109.422C113.162 109.899 111.823 110.015 110.53 109.758Z" fill="#2C3B47" stroke="#2C3B47"/>
<path d="M112.209 105.092C112.209 105.092 116.875 107.06 119.51 105.92C123.493 104.183 124.28 101.543 124.877 95.0699C125.137 92.4415 128.449 91.9667 129.086 90.583C129.722 89.1993 129.329 87.4798 127.03 87.5783C124.732 87.6767 122.399 87.8388 122.399 87.8388" fill="#EDCFC5"/>
<path d="M115.056 106.585C113.99 106.346 112.943 106.029 111.924 105.636C111.782 105.575 111.67 105.461 111.612 105.317C111.555 105.174 111.556 105.014 111.617 104.872C111.678 104.73 111.792 104.618 111.936 104.56C112.079 104.502 112.239 104.504 112.381 104.565C112.439 104.565 116.839 106.435 119.277 105.37C122.947 103.743 123.706 101.508 124.319 94.9485C124.481 93.0553 126.01 92.1521 127.162 91.3995C127.698 91.1257 128.175 90.7478 128.563 90.2879C128.714 90.0424 128.794 89.7598 128.794 89.4715C128.794 89.1833 128.714 88.9007 128.563 88.6552C128.362 88.4445 128.116 88.2828 127.843 88.1824C127.57 88.082 127.278 88.0457 126.988 88.0763C124.673 88.1805 122.357 88.3368 122.357 88.3368C122.232 88.3096 122.12 88.2421 122.038 88.1447C121.955 88.0473 121.908 87.9255 121.902 87.7981C121.896 87.6707 121.932 87.545 122.005 87.4404C122.078 87.3357 122.183 87.2581 122.305 87.2194C122.305 87.2194 124.678 87.0168 126.977 86.9126C127.461 86.8193 127.962 86.8689 128.419 87.0554C128.875 87.2419 129.268 87.5572 129.548 87.9629C129.829 88.3686 129.985 88.8471 129.998 89.3401C130.011 89.8331 129.881 90.3193 129.623 90.7395C129.304 91.4284 128.569 91.8568 127.828 92.3432C126.757 92.9974 125.616 93.6921 125.512 95.0121C124.962 101.265 124.18 104.432 119.804 106.371C118.373 107.02 116.637 106.887 115.056 106.585Z" fill="#2C3B47" stroke="#2C3B47"/>
<path d="M115.857 92.7137C116.33 92.7137 116.714 92.3301 116.714 91.8569C116.714 91.3836 116.33 91 115.857 91C115.384 91 115 91.3836 115 91.8569C115 92.3301 115.384 92.7137 115.857 92.7137Z" fill="#2C3B47" stroke="#2C3B47"/>
<path d="M120.441 92.0189C120.914 92.0189 121.298 91.6353 121.298 91.162C121.298 90.6888 120.914 90.3052 120.441 90.3052C119.968 90.3052 119.584 90.6888 119.584 91.162C119.584 91.6353 119.968 92.0189 120.441 92.0189Z" fill="#2C3B47" stroke="#2C3B47"/>
<path d="M105.015 85.673L105.005 85.6708L104.996 85.6689C104.993 85.6685 104.991 85.6676 104.99 85.6663C104.988 85.665 104.986 85.6633 104.985 85.6614L104.971 85.6354L104.953 85.6113C104.893 85.529 104.639 85.2069 104.082 84.9416C103.525 84.6759 102.695 84.4818 101.508 84.6092L101.499 84.6102L101.491 84.6114C101.47 84.6143 101.449 84.609 101.432 84.5966L101.432 84.5966C101.416 84.5842 101.404 84.5656 101.401 84.5451L101.401 84.5445C101.4 84.5343 101.4 84.5238 101.403 84.5137C101.405 84.5036 101.41 84.4941 101.416 84.4857C101.422 84.4774 101.43 84.4703 101.439 84.465C101.445 84.4608 101.453 84.4578 101.461 84.4559C102.874 84.322 103.778 84.6183 104.32 84.9245C104.783 85.1855 105.008 85.4667 105.076 85.5605C105.083 85.5762 105.086 85.5939 105.082 85.6111C105.078 85.6309 105.066 85.6484 105.049 85.6598L105.043 85.6641L105.037 85.6686C105.033 85.6708 105.03 85.6724 105.026 85.6732L105.125 86.1632L105.026 85.6732C105.022 85.6739 105.018 85.6739 105.015 85.673Z" fill="#2C3B47" stroke="#2C3B47"/>
<path d="M65.6906 134.375C65.6103 134.367 65.5349 134.333 65.4764 134.277C65.3583 134.187 65.2792 134.055 65.2555 133.909C65.2318 133.762 65.2653 133.612 65.349 133.49C87.413 105.121 108.719 103.743 108.898 103.72C108.982 103.695 109.071 103.689 109.157 103.703C109.244 103.717 109.326 103.75 109.398 103.801C109.47 103.852 109.529 103.918 109.571 103.995C109.614 104.071 109.638 104.157 109.643 104.244C109.647 104.332 109.632 104.42 109.597 104.5C109.563 104.581 109.511 104.653 109.445 104.711C109.379 104.768 109.3 104.81 109.216 104.833C109.131 104.856 109.042 104.859 108.956 104.843C108.724 104.843 87.9398 106.221 66.2638 134.15C66.2028 134.241 66.1151 134.312 66.0127 134.353C65.9102 134.393 65.7978 134.401 65.6906 134.375Z" fill="#2C3B47" stroke="#2C3B47"/>
<path d="M123.215 118.9C123.117 118.889 123.024 118.848 122.949 118.784C122.889 118.735 122.84 118.674 122.805 118.605C122.769 118.536 122.748 118.461 122.742 118.384C122.736 118.306 122.746 118.229 122.77 118.155C122.795 118.082 122.834 118.014 122.885 117.956C129.879 109.955 162.584 95.1454 167.343 93.0612C166.411 91.1101 163.203 84.1337 161.669 81.1232C156.03 83.7979 124.882 99.8118 124.552 99.9797C124.419 100.043 124.268 100.055 124.126 100.014C123.984 99.974 123.862 99.8835 123.782 99.7597C123.713 99.6278 123.697 99.474 123.738 99.3305C123.779 99.1871 123.874 99.065 124.002 98.9897C125.375 98.2834 157.709 81.6211 161.692 79.8842C161.831 79.8321 161.984 79.8316 162.123 79.8825C162.262 79.9335 162.379 80.0327 162.451 80.1621C164.083 83.2479 168.565 93.0612 168.611 93.1307C168.672 93.281 168.672 93.4494 168.611 93.5996C168.586 93.6756 168.547 93.7456 168.494 93.8054C168.441 93.8651 168.376 93.9134 168.304 93.947C167.922 94.0975 130.95 110.592 123.725 118.842C123.562 118.903 123.387 118.923 123.215 118.9Z" fill="#2C3B47" stroke="#2C3B47"/>
<path d="M101.584 139.765C100.154 139.463 98.8062 138.856 97.6323 137.985C96.4585 137.113 95.4866 135.999 94.783 134.718C94.0794 133.437 93.6607 132.018 93.5556 130.56C93.4505 129.102 93.6613 127.639 94.1738 126.27L96.8949 119.132C96.9155 119.058 96.9511 118.99 96.9996 118.931C97.0481 118.872 97.1083 118.823 97.1764 118.789C97.2446 118.755 97.3191 118.735 97.3953 118.731C97.4715 118.727 97.5478 118.739 97.6191 118.766C97.6905 118.793 97.7555 118.834 97.8099 118.888C97.8644 118.941 97.9071 119.005 97.9354 119.076C97.9636 119.147 97.9768 119.223 97.9741 119.3C97.9714 119.376 97.9528 119.451 97.9196 119.519L95.2159 126.635C94.721 127.937 94.534 129.335 94.6696 130.721C94.8051 132.107 95.2596 133.443 95.9975 134.624C96.735 135.814 97.7461 136.809 98.9466 137.528C100.147 138.247 101.502 138.669 102.899 138.758L131.435 141.074L132.755 126.982L107.895 126.913C107.798 126.923 107.7 126.903 107.616 126.854C107.531 126.805 107.465 126.73 107.426 126.641C107.384 126.559 107.363 126.469 107.363 126.377C107.363 126.286 107.384 126.195 107.426 126.114L111.201 118.674C111.27 118.544 111.387 118.445 111.527 118.397C111.666 118.35 111.819 118.358 111.953 118.419C112.084 118.489 112.183 118.605 112.23 118.745C112.278 118.885 112.27 119.038 112.208 119.172L108.885 125.836L133.398 125.888C133.481 125.88 133.564 125.896 133.639 125.933C133.713 125.969 133.776 126.026 133.821 126.096C133.874 126.156 133.914 126.225 133.939 126.301C133.964 126.377 133.973 126.457 133.965 126.536L132.57 141.832C132.553 141.983 132.477 142.121 132.359 142.216C132.241 142.311 132.09 142.356 131.939 142.342L102.823 139.985C102.406 139.94 101.992 139.866 101.584 139.765Z" fill="#2C3B47" stroke="#2C3B47"/>
<path d="M120.238 126.976C120.207 126.974 120.177 126.964 120.15 126.948C120.123 126.932 120.099 126.91 120.082 126.884C120.017 126.843 119.961 126.791 119.917 126.729C119.872 126.667 119.841 126.597 119.824 126.523C119.806 126.448 119.804 126.371 119.817 126.296C119.829 126.221 119.856 126.149 119.897 126.085C122.369 122.107 123.324 118.101 122.705 114.355C122.682 114.201 122.722 114.045 122.815 113.921C122.908 113.797 123.046 113.714 123.2 113.692C123.353 113.67 123.509 113.709 123.634 113.802C123.758 113.895 123.84 114.034 123.863 114.187C124.534 118.24 123.509 122.576 120.933 126.768C120.843 126.856 120.732 126.921 120.611 126.957C120.49 126.994 120.362 127 120.238 126.976Z" fill="#2C3B47" stroke="#2C3B47"/>
<path d="M122.509 112.503C122.411 112.476 122.32 112.428 122.244 112.36C122.167 112.293 122.107 112.209 122.069 112.115C121.748 111.188 121.302 110.309 120.743 109.504C120.678 109.447 120.626 109.377 120.592 109.298C120.557 109.219 120.54 109.133 120.543 109.047C120.546 108.961 120.568 108.876 120.608 108.799C120.648 108.723 120.704 108.656 120.773 108.604C120.841 108.552 120.921 108.516 121.006 108.499C121.09 108.481 121.177 108.483 121.261 108.504C121.345 108.525 121.423 108.564 121.49 108.619C121.556 108.673 121.61 108.742 121.646 108.82C122.273 109.727 122.774 110.714 123.134 111.756C123.189 111.899 123.185 112.057 123.123 112.197C123.062 112.337 122.947 112.447 122.804 112.503C122.709 112.538 122.604 112.538 122.509 112.503Z" fill="#2C3B47" stroke="#2C3B47"/>
<path d="M176.657 78.4135C176.657 78.4135 179.331 77.6319 179.98 79.2819C180.628 80.9319 179.696 84.5388 178.585 85.9399C177.473 87.341 173.727 86.2699 173.727 86.2699C173.727 86.2699 172.726 82.9641 173.432 80.7177C174.138 78.4714 176.657 78.4135 176.657 78.4135Z" fill="#EDCFC5"/>
<path d="M174.169 86.9413L173.556 86.814C173.463 86.7944 173.377 86.7494 173.309 86.6839C173.24 86.6184 173.191 86.5352 173.168 86.4434C173.133 86.3161 172.143 82.9697 172.884 80.5439C173.625 78.1181 176.126 77.8923 176.595 77.8749C177.753 77.5391 179.895 77.4581 180.543 79.1081C181.209 80.9434 180.277 84.8339 179.032 86.3277C177.956 87.5608 175.402 87.2019 174.169 86.9413ZM174.129 85.7834C175.356 86.044 177.463 86.3045 178.083 85.5634C179.038 84.3592 179.93 80.9318 179.362 79.467C178.946 78.3844 176.792 78.9228 176.722 78.9691C176.677 78.9666 176.633 78.9788 176.595 79.0039C176.485 79.0039 174.424 79.0734 173.868 80.8855C173.405 82.5181 173.955 84.915 174.129 85.7429V85.7834Z" fill="#2C3B47" stroke="#2C3B47"/>
<path d="M175.692 84.6953C175.038 80.5847 178.87 77.0646 180.648 76.0978C181.383 75.6636 184.59 74.002 185.563 72.9772C186.536 71.9525 185.372 70.5456 183.878 70.7019C177.99 71.5125 162.77 81.9857 162.77 81.9857L167.216 91.4401C167.216 91.4401 171.465 92.3317 175.124 90.7627C176.977 89.9869 182.547 86.5363 182.587 84.6779C182.587 82.9873 181.192 82.6921 180.115 82.8194C179.218 82.9179 177.874 84.041 175.819 84.6605L175.692 84.6953Z" fill="#EDCFC5"/>
<path d="M167.163 91.9552C167.075 91.9425 166.992 91.907 166.922 91.8521C166.852 91.7973 166.797 91.725 166.764 91.6426L162.323 82.1825C162.259 82.06 162.244 81.9171 162.283 81.7841C162.322 81.6512 162.411 81.5386 162.532 81.4703C163.151 81.013 177.938 70.916 183.884 70.117C184.377 70.064 184.874 70.1571 185.315 70.3845C185.755 70.612 186.119 70.9639 186.362 71.3965C186.513 71.721 186.56 72.0843 186.497 72.4367C186.433 72.789 186.263 73.1133 186.008 73.365C185.105 74.3434 182.401 75.8197 181.284 76.4045L180.96 76.5724C179.368 77.464 176.114 80.4572 176.207 83.9251C176.932 83.6467 177.642 83.3278 178.331 82.9698C178.881 82.6241 179.486 82.3753 180.12 82.2346C180.699 82.1824 181.782 82.113 182.517 82.8135C182.771 83.044 182.968 83.3302 183.093 83.6497C183.217 83.9691 183.266 84.3131 183.235 84.6546C183.195 87.0978 176.716 90.7047 175.431 91.2547C171.587 92.8815 167.331 91.9957 167.163 91.9552ZM163.487 82.194L167.586 90.9536C168.553 91.0983 171.963 91.5326 174.916 90.2704C177.15 89.3383 182.048 86.0383 182.037 84.6951C182.051 84.3353 181.94 83.9816 181.724 83.6935C181.505 83.5447 181.259 83.4405 181 83.3868C180.74 83.3332 180.473 83.3311 180.213 83.3809C179.737 83.5109 179.281 83.7057 178.858 83.9598C177.957 84.4505 177.013 84.8594 176.039 85.1814L175.911 85.2104C175.839 85.2442 175.758 85.2588 175.678 85.2528C175.598 85.2467 175.521 85.2201 175.454 85.1756C175.38 85.1334 175.317 85.0741 175.271 85.0025C175.224 84.931 175.196 84.8494 175.188 84.7646C174.464 80.4108 178.401 76.6592 180.439 75.5882L180.763 75.426C181.759 74.8471 184.393 73.4402 185.209 72.6181C185.31 72.5419 185.379 72.4319 185.405 72.3084C185.431 72.1849 185.41 72.0563 185.348 71.9465C185.204 71.7308 185.004 71.5583 184.77 71.4471C184.535 71.336 184.275 71.2905 184.017 71.3155C178.766 71.9639 165.936 80.5324 163.487 82.194Z" fill="#2C3B47" stroke="#2C3B47"/>
<path d="M173.283 85.882C173.172 85.8664 173.07 85.8149 172.991 85.7353C172.913 85.6558 172.862 85.5528 172.848 85.442C172.837 85.3663 172.841 85.289 172.859 85.2148C172.878 85.1405 172.911 85.0706 172.957 85.0093C173.002 84.9479 173.06 84.8962 173.126 84.8572C173.192 84.8181 173.265 84.7926 173.34 84.782C173.641 84.7299 174.823 84.3941 175.564 84.203C175.713 84.1569 175.874 84.1719 176.012 84.2447C176.149 84.3174 176.253 84.442 176.299 84.5909C176.345 84.7398 176.33 84.901 176.257 85.0389C176.184 85.1768 176.06 85.2801 175.911 85.3262C175.138 85.5719 174.354 85.7787 173.56 85.9457L173.283 85.882Z" fill="#2C3B47" stroke="#2C3B47"/>
<path d="M155.643 131.353C155.643 131.353 158.075 131.747 157.623 133.345C157.171 134.943 153.113 135.493 151.145 135.534C149.176 135.574 145.575 135.36 145.575 135.36C145.575 135.36 151.324 136.911 153.796 137.097C154.659 137.166 155.712 137.444 155.626 138.417C155.539 139.389 154.468 140.044 152.499 139.69C150.531 139.337 143.589 138.174 143.589 138.174C143.589 138.174 135.854 139.413 132.52 136.379C132.606 135.111 133.44 126.409 133.44 126.409C133.44 126.409 137.082 126.299 138.766 124.956C140.451 123.613 142.026 121.089 143.074 120.84C144.122 120.591 145.135 121.037 144.753 122.299C144.359 123.499 143.749 124.618 142.952 125.599C144.29 125.356 152.372 123.862 154.473 122.993C155.631 122.588 156.98 122.467 157.519 123.514C158.057 124.562 156.841 125.651 155.446 126.172C152.852 127.13 150.206 127.942 147.52 128.603C149.379 128.933 156.413 127.955 156.413 127.955C156.413 127.955 158.254 127.816 158.486 129.206C158.717 130.595 157.409 131.023 155.417 131.307C152.694 131.725 149.949 131.987 147.196 132.095" fill="#EDCFC5"/>
<path d="M155.643 131.353C155.643 131.353 158.075 131.747 157.623 133.345C157.171 134.943 153.113 135.493 151.145 135.534C149.176 135.574 145.575 135.36 145.575 135.36C145.575 135.36 151.324 136.911 153.796 137.097C154.659 137.166 155.712 137.444 155.626 138.417C155.539 139.389 154.468 140.044 152.499 139.69C150.531 139.337 143.589 138.174 143.589 138.174C143.589 138.174 135.854 139.413 132.52 136.379C132.606 135.111 133.44 126.409 133.44 126.409C133.44 126.409 137.082 126.299 138.766 124.956C140.451 123.613 142.026 121.089 143.074 120.84C144.122 120.591 145.135 121.037 144.753 122.299C144.359 123.499 143.749 124.618 142.952 125.599C144.29 125.356 152.372 123.862 154.473 122.993C155.631 122.588 156.98 122.467 157.519 123.514C158.057 124.562 156.841 125.651 155.446 126.172C152.852 127.13 150.206 127.942 147.52 128.603C149.379 128.933 156.413 127.955 156.413 127.955C156.413 127.955 158.254 127.816 158.486 129.206C158.717 130.595 157.409 131.023 155.417 131.307C152.694 131.725 149.949 131.987 147.196 132.095" stroke="#2C3B47"/>
<path d="M136.114 138.712C134.641 138.475 133.26 137.842 132.119 136.882C131.999 136.762 131.928 136.6 131.922 136.43L132.848 126.461C132.863 126.318 132.93 126.185 133.037 126.088C133.144 125.992 133.283 125.939 133.427 125.94C133.479 125.94 136.901 125.795 138.377 124.585C139.116 123.956 139.791 123.256 140.392 122.495C141.382 121.418 142.094 120.515 142.893 120.33C143.247 120.233 143.62 120.222 143.979 120.298C144.338 120.373 144.675 120.533 144.96 120.764C145.171 121 145.313 121.29 145.371 121.601C145.429 121.912 145.401 122.233 145.29 122.53C145.039 123.336 144.701 124.112 144.283 124.846C147.079 124.325 152.683 123.219 154.281 122.559C156.105 121.951 157.448 122.229 158.033 123.346C158.155 123.56 158.224 123.8 158.233 124.046C158.242 124.292 158.191 124.537 158.085 124.759C157.795 125.575 156.881 126.316 155.665 126.82C155.028 127.098 153.644 127.567 152.145 128.012C153.766 127.821 155.433 127.648 156.331 127.544C157.228 127.439 158.809 127.711 159.075 129.228C159.157 129.632 159.108 130.051 158.935 130.425C158.762 130.799 158.474 131.108 158.114 131.307C157.927 131.397 157.733 131.473 157.535 131.533C157.753 131.68 157.932 131.879 158.056 132.111C158.189 132.323 158.273 132.562 158.302 132.81C158.331 133.059 158.305 133.311 158.224 133.547C157.483 135.962 151.317 136.129 151.247 136.176C152.255 136.384 153.222 136.529 153.905 136.616C154.414 136.662 155.393 136.749 155.902 137.38C156.032 137.541 156.129 137.726 156.186 137.925C156.244 138.124 156.261 138.332 156.238 138.538C156.215 138.81 156.131 139.073 155.99 139.307C155.85 139.541 155.657 139.739 155.427 139.887C154.947 140.252 154.055 140.593 152.423 140.309C150.564 139.979 144.41 138.984 143.623 138.816C141.129 139.17 138.596 139.134 136.114 138.712ZM133.091 136.147C136.281 138.746 143.403 137.664 143.466 137.623C143.53 137.583 143.594 137.588 143.646 137.623C143.698 137.658 150.593 138.781 152.556 139.14C153.253 139.336 153.999 139.264 154.646 138.937C154.74 138.869 154.819 138.783 154.879 138.684C154.939 138.584 154.978 138.473 154.993 138.358C155.011 138.308 155.016 138.254 155.006 138.201C154.997 138.148 154.975 138.099 154.941 138.057C154.603 137.783 154.171 137.65 153.737 137.687C151.201 137.507 145.632 135.99 145.4 135.95C145.273 135.912 145.163 135.829 145.092 135.716C145.021 135.604 144.994 135.47 145.014 135.338C145.035 135.207 145.102 135.087 145.204 135.002C145.306 134.916 145.435 134.871 145.568 134.873C145.62 134.873 149.262 135.064 151.137 135.047C153.592 135.047 156.747 134.178 157.06 133.252C157.091 133.163 157.101 133.069 157.09 132.976C157.079 132.882 157.047 132.793 156.996 132.714C156.634 132.325 156.157 132.062 155.636 131.961C155.578 131.961 155.514 131.996 155.456 131.961C152.715 132.387 149.95 132.648 147.177 132.743C147.024 132.743 146.877 132.682 146.768 132.573C146.659 132.464 146.598 132.317 146.598 132.164C146.598 132.01 146.659 131.863 146.768 131.754C146.877 131.646 147.024 131.585 147.177 131.585C149.892 131.505 152.599 131.253 155.283 130.832C155.341 130.832 155.462 130.832 155.52 130.832H155.572C156.218 130.741 156.848 130.558 157.442 130.288C157.614 130.219 157.753 130.087 157.832 129.92C157.91 129.752 157.922 129.561 157.865 129.385C157.749 128.545 156.446 128.62 156.389 128.609C156.145 128.672 149.227 129.622 147.328 129.222C147.194 129.197 147.074 129.124 146.988 129.018C146.902 128.913 146.856 128.78 146.859 128.644C146.854 128.51 146.899 128.38 146.986 128.279C147.073 128.178 147.195 128.114 147.328 128.099C149.348 127.648 153.801 126.189 155.126 125.708C155.871 125.475 156.511 124.987 156.933 124.33C156.977 124.26 157 124.179 157 124.096C157 124.013 156.977 123.932 156.933 123.861C156.516 123.074 155.288 123.34 154.617 123.607C152.301 124.579 143.09 126.212 142.968 126.247C142.844 126.265 142.716 126.245 142.603 126.191C142.489 126.136 142.395 126.049 142.331 125.94C142.269 125.83 142.249 125.701 142.275 125.578C142.3 125.454 142.37 125.344 142.47 125.268C143.208 124.391 143.759 123.372 144.092 122.275C144.138 122.055 144.196 121.771 144.051 121.627C143.911 121.534 143.752 121.474 143.586 121.449C143.42 121.424 143.251 121.435 143.09 121.482C142.661 121.569 141.88 122.512 141.203 123.219C140.537 124.017 139.814 124.764 139.037 125.453C137.63 126.611 134.985 126.941 133.925 127.011L133.091 136.147Z" fill="#2C3B47" stroke="#2C3B47"/>
<path d="M68.8099 134.422L92.1186 141.641L126.346 142.973C128.564 143.017 130.694 143.848 132.355 145.318C134.016 146.788 135.1 148.801 135.413 150.997L137.202 192.103L107.061 199.108L112.753 162.75L79.4395 164.823C76.8196 165.103 74.1723 164.682 71.7686 163.603C69.3648 162.524 67.291 160.825 65.7596 158.681C64.2281 156.537 63.2939 154.025 63.0527 151.401C62.8115 148.777 63.2718 146.136 64.3867 143.749L68.8099 134.422Z" fill="#5C9CD0"/>
<path d="M109.922 144.727C109.891 144.725 109.86 144.715 109.833 144.699C109.806 144.683 109.783 144.661 109.766 144.635C109.701 144.594 109.645 144.542 109.6 144.48C109.556 144.418 109.524 144.348 109.507 144.274C109.49 144.199 109.488 144.122 109.5 144.047C109.513 143.972 109.54 143.9 109.58 143.836L111.937 139.835C112.018 139.705 112.148 139.612 112.298 139.577C112.448 139.542 112.605 139.568 112.736 139.65C112.866 139.731 112.959 139.861 112.994 140.011C113.029 140.161 113.002 140.318 112.921 140.449L110.565 144.455C110.502 144.564 110.405 144.65 110.289 144.699C110.173 144.748 110.044 144.758 109.922 144.727Z" fill="#2C3B47"/>
<path d="M95.3615 164.337C95.2451 164.3 95.1401 164.234 95.0569 164.144C94.9737 164.055 94.9151 163.946 94.8867 163.827C94.8863 163.681 94.9409 163.541 95.0396 163.433C95.1384 163.326 95.274 163.26 95.4194 163.248L121.16 161.633C121.306 161.632 121.446 161.687 121.554 161.786C121.661 161.884 121.727 162.02 121.739 162.165C121.739 162.311 121.685 162.452 121.586 162.559C121.487 162.667 121.351 162.733 121.206 162.744L95.4715 164.36L95.3615 164.337Z" fill="#2C3B47" stroke="#2C3B47"/>
<path d="M1.42563 254.665C1.39504 254.662 1.36539 254.653 1.33851 254.638C1.31163 254.623 1.28808 254.602 1.26931 254.578C1.20506 254.537 1.14946 254.485 1.10566 254.422C1.06187 254.36 1.03074 254.29 1.01408 254.216C0.997412 254.142 0.995522 254.065 1.00852 253.99C1.02152 253.915 1.04915 253.843 1.08984 253.779C4.61567 248.094 10.1852 248.268 15.6448 248.418C17.4561 248.504 19.2708 248.494 21.0811 248.389C22.5169 248.221 23.4722 247.839 23.9296 247.058C24.9312 245.321 23.5822 242.021 22.4475 239.334C22.0538 238.431 21.718 237.545 21.4227 236.723C21.0541 235.636 20.9886 234.468 21.2335 233.346C21.4783 232.224 22.024 231.19 22.8122 230.355C24.1612 228.942 27.5191 226.84 34.3913 228.809C41.2635 230.777 46.5494 225.578 46.6536 225.48C46.762 225.372 46.9088 225.312 47.0617 225.312C47.2147 225.312 47.3614 225.372 47.4699 225.48C47.5242 225.534 47.5672 225.598 47.5966 225.668C47.626 225.739 47.6412 225.815 47.6412 225.891C47.6412 225.967 47.626 226.043 47.5966 226.114C47.5672 226.184 47.5242 226.248 47.4699 226.302C47.2441 226.545 41.6803 232.092 34.096 229.92C27.8144 228.137 24.8733 229.92 23.6749 231.183C23.0171 231.858 22.5605 232.703 22.356 233.623C22.1515 234.544 22.2072 235.503 22.5169 236.393C22.7659 237.146 23.0959 237.98 23.5127 238.877C24.798 241.951 26.2338 245.407 24.8907 247.636C24.2538 248.725 23.0149 249.344 21.1622 249.541C19.3124 249.673 17.4564 249.693 15.6042 249.599C10.2663 249.42 5.2699 249.304 2.09722 254.422C2.01624 254.517 1.91163 254.59 1.79382 254.633C1.676 254.676 1.54906 254.687 1.42563 254.665Z" fill="#2C3B47" stroke="#2C3B47"/>
<path d="M201.356 231.182C197.35 230.341 193.843 227.944 191.603 224.518C189.364 221.092 188.576 216.917 189.412 212.911C190.08 209.704 191.765 206.798 194.217 204.626C196.176 202.858 198.556 201.623 201.129 201.037C203.702 200.452 206.383 200.536 208.914 201.282C211.445 202.028 213.743 203.411 215.587 205.298C217.431 207.185 218.761 209.514 219.448 212.062C220.136 214.609 220.159 217.291 219.514 219.85C218.87 222.409 217.58 224.759 215.768 226.678C213.956 228.596 211.682 230.017 209.164 230.806C206.646 231.595 203.967 231.724 201.385 231.182H201.356ZM207.435 202.148C204.673 201.581 201.805 201.846 199.194 202.909C196.583 203.972 194.345 205.785 192.764 208.119C191.183 210.453 190.329 213.203 190.31 216.022C190.291 218.841 191.109 221.603 192.659 223.958C194.209 226.312 196.423 228.155 199.019 229.252C201.616 230.349 204.48 230.652 207.249 230.122C210.018 229.593 212.568 228.254 214.576 226.275C216.585 224.297 217.962 221.768 218.533 219.007C218.916 217.171 218.932 215.278 218.58 213.435C218.229 211.593 217.517 209.838 216.486 208.272C215.455 206.706 214.124 205.358 212.571 204.307C211.018 203.256 209.272 202.522 207.435 202.148Z" fill="#2C3B47" stroke="#2C3B47"/>
<path d="M199.289 209.553C195.989 208.858 193.632 206.148 193.499 205.998C193.41 205.88 193.367 205.733 193.376 205.586C193.386 205.438 193.448 205.299 193.551 205.193C193.67 205.104 193.818 205.06 193.966 205.07C194.115 205.079 194.255 205.141 194.362 205.245C194.402 205.315 197.986 209.391 202.108 208.389C203.955 207.955 204.922 206.409 205.877 204.915C207 203.178 208.297 201.158 211.088 202.09C211.215 202.15 211.316 202.253 211.373 202.382C211.429 202.511 211.437 202.655 211.394 202.789C211.351 202.923 211.262 203.037 211.141 203.11C211.021 203.182 210.879 203.209 210.74 203.184C208.882 202.565 208.158 203.52 206.919 205.541C205.883 207.133 204.748 208.939 202.467 209.512C201.426 209.777 200.336 209.791 199.289 209.553Z" fill="#2C3B47" stroke="#2C3B47"/>
<path d="M206.444 227.222C204.933 226.91 203.798 225.914 202.652 224.97C201.505 224.026 200.428 223.048 198.888 222.608C198.174 222.405 197.419 222.397 196.701 222.585C195.983 222.774 195.329 223.151 194.807 223.679C194.699 223.788 194.551 223.85 194.398 223.85C194.244 223.851 194.097 223.79 193.988 223.682C193.878 223.574 193.817 223.427 193.816 223.273C193.816 223.119 193.876 222.972 193.985 222.863C194.66 222.202 195.495 221.728 196.409 221.489C197.323 221.249 198.283 221.252 199.195 221.496C200.795 222.008 202.249 222.893 203.439 224.079C204.632 225.092 205.668 226.006 207.098 226.134C208.76 226.302 209.616 225.555 210.531 224.808C211.121 224.162 211.909 223.73 212.772 223.581C213.466 223.495 214.17 223.57 214.831 223.8C215.491 224.03 216.09 224.409 216.581 224.906C216.677 225.017 216.728 225.159 216.723 225.304C216.718 225.45 216.659 225.589 216.557 225.693C216.454 225.797 216.316 225.858 216.171 225.865C216.025 225.871 215.882 225.823 215.771 225.729C215.4 225.366 214.955 225.088 214.466 224.915C213.977 224.742 213.456 224.678 212.94 224.727C212.309 224.913 211.735 225.256 211.272 225.723C210.346 226.522 209.136 227.552 206.965 227.332L206.444 227.222Z" fill="#2C3B47" stroke="#2C3B47"/>
<path d="M217.626 222.093C216.509 221.856 215.738 221.346 215.42 220.64C215.157 220.041 215.112 219.369 215.293 218.741C213.851 218.909 212.039 218.642 211.24 216.9C209.995 214.184 211.86 212.847 214.013 211.174L214.349 210.954C216.711 209.171 214.61 206.102 214.523 205.969C214.46 205.909 214.412 205.835 214.381 205.754C214.351 205.672 214.339 205.585 214.347 205.498C214.355 205.412 214.383 205.328 214.428 205.253C214.472 205.179 214.533 205.115 214.606 205.068C214.679 205.02 214.761 204.989 214.848 204.978C214.934 204.966 215.022 204.974 215.104 205.001C215.187 205.029 215.262 205.074 215.325 205.134C215.388 205.194 215.436 205.268 215.466 205.35C216.451 206.78 217.603 209.941 215.026 211.915L214.691 212.135C212.409 213.82 211.472 214.671 212.259 216.471C213.139 218.411 216.016 217.49 216.016 217.49C216.124 217.45 216.242 217.446 216.352 217.48C216.462 217.513 216.558 217.582 216.624 217.676C216.688 217.772 216.724 217.883 216.73 217.998C216.736 218.113 216.712 218.227 216.659 218.33C216.48 218.642 216.08 219.546 216.387 220.2C216.63 220.713 217.267 221.02 218.297 221.12C218.449 221.138 218.588 221.215 218.683 221.334C218.779 221.453 218.823 221.605 218.807 221.757C218.77 221.899 218.688 222.026 218.573 222.117C218.458 222.209 218.317 222.262 218.17 222.267C218 222.179 217.816 222.12 217.626 222.093Z" fill="#2C3B47" stroke="#2C3B47"/>
<path d="M230.923 167.466C231.532 164.562 229.67 161.715 226.766 161.106C223.862 160.498 221.014 162.359 220.406 165.263C219.798 168.168 221.659 171.015 224.563 171.623C227.468 172.232 230.315 170.371 230.923 167.466Z" fill="#F190B7"/>
<path d="M24.6365 150.922C24.5626 150.908 24.4924 150.878 24.4306 150.835C24.3688 150.792 24.3166 150.737 24.2775 150.673L21.5275 146.244L16.3169 146.03C16.2085 146.026 16.1033 145.992 16.0132 145.932C15.9231 145.871 15.8518 145.787 15.8074 145.688C15.7749 145.584 15.7643 145.474 15.7762 145.365C15.7882 145.257 15.8225 145.152 15.8769 145.057L19.2232 141.085L17.8222 136.066C17.8013 135.961 17.8073 135.854 17.8397 135.752C17.8721 135.651 17.9299 135.56 18.0074 135.487C18.0824 135.414 18.1773 135.364 18.2803 135.344C18.3833 135.325 18.4898 135.336 18.5864 135.377L23.438 137.328L27.7802 134.433C27.8614 134.365 27.9639 134.328 28.0697 134.328C28.1755 134.328 28.2779 134.365 28.3591 134.433C28.4541 134.485 28.5326 134.562 28.5858 134.656C28.639 134.751 28.6648 134.858 28.6602 134.966L28.2723 140.142L32.325 143.384C32.4087 143.453 32.4738 143.543 32.5142 143.644C32.5546 143.745 32.5692 143.855 32.5566 143.963C32.5317 144.069 32.4772 144.167 32.3994 144.243C32.3215 144.32 32.2234 144.374 32.1166 144.397L27.0565 145.671L25.2212 150.54C25.1828 150.641 25.1169 150.729 25.031 150.794C24.945 150.86 24.8424 150.9 24.7349 150.91C24.7465 150.945 24.6944 150.933 24.6365 150.922ZM21.9849 145.173C22.0594 145.185 22.1303 145.214 22.1924 145.257C22.2544 145.3 22.3062 145.356 22.3438 145.422L24.6596 149.121L26.2054 145.069C26.237 144.98 26.2938 144.902 26.369 144.846C26.4441 144.789 26.5342 144.756 26.6281 144.75L30.8718 143.708L27.4791 141.004C27.3977 140.952 27.3356 140.874 27.3022 140.783C27.2688 140.693 27.2659 140.593 27.2939 140.501L27.6239 136.129L23.9707 138.521C23.8038 138.603 23.6137 138.625 23.4322 138.584L19.3796 136.975L20.5375 141.19C20.5601 141.276 20.5624 141.366 20.5444 141.454C20.5263 141.541 20.4883 141.623 20.4333 141.693L17.6369 145.022L21.9733 145.225C21.8749 145.15 21.9327 145.161 21.9849 145.173Z" fill="#2C3B47" stroke="#2C3B47"/>
<path d="M62.9265 84.3247L63.8355 91.7006L70.395 95.2322L63.6213 98.3123L62.307 105.682L57.2701 100.194L49.8711 101.213L53.5648 94.7459L50.2358 88.03L57.577 89.5121L62.9265 84.3247Z" fill="#5AB467"/>
<path d="M234.374 61.5314L234.206 61.4967C234.109 61.4487 234.029 61.373 233.975 61.2791C233.922 61.1853 233.897 61.0777 233.905 60.9699L233.951 53.7966L228.034 49.6976C227.936 49.6419 227.859 49.5542 227.817 49.4489C227.775 49.3436 227.77 49.2271 227.803 49.1187C227.822 49.0164 227.867 48.921 227.936 48.8425C228.004 48.7641 228.092 48.7055 228.191 48.6729L235.011 46.4786L237.095 39.618C237.118 39.5182 237.171 39.4281 237.248 39.3605C237.325 39.2929 237.422 39.2513 237.524 39.2417C237.761 39.2417 237.981 39.2764 238.056 39.4675L242.265 45.3149L249.415 45.176C249.522 45.1625 249.63 45.1827 249.724 45.2335C249.819 45.2844 249.895 45.3634 249.942 45.4597C249.99 45.5517 250.009 45.6558 249.998 45.7588C249.986 45.8617 249.945 45.9591 249.878 46.0386L245.635 51.8282L248.02 58.5325C248.055 58.6369 248.061 58.7487 248.039 58.8564C248.016 58.9642 247.966 59.0641 247.893 59.1462C247.809 59.2197 247.71 59.2726 247.602 59.3008C247.495 59.3289 247.382 59.3315 247.273 59.3083L240.442 57.0619L234.745 61.4272C234.745 61.5488 234.542 61.572 234.374 61.5314ZM229.661 49.4545L234.872 53.0556C234.946 53.1071 235.008 53.1752 235.051 53.2547C235.094 53.3341 235.118 53.4225 235.121 53.5129L235.086 59.812L240.088 56.014C240.165 55.9573 240.255 55.9215 240.349 55.9104C240.444 55.8992 240.539 55.913 240.627 55.9503L246.642 57.913L244.587 51.9324C244.555 51.8484 244.543 51.758 244.552 51.6686C244.561 51.5792 244.591 51.4931 244.639 51.4171L248.396 46.3049L242.063 46.4381C241.971 46.4422 241.879 46.4244 241.796 46.3861C241.712 46.3479 241.639 46.2903 241.582 46.2181L237.859 41.1175L236.07 47.1676C236.044 47.258 235.996 47.3405 235.93 47.4081C235.865 47.4757 235.784 47.5263 235.694 47.5555L229.661 49.4545Z" fill="#2C3B47" stroke="#2C3B47"/>
<path d="M114.594 49.2225C114.52 49.2084 114.45 49.179 114.388 49.1361C114.326 49.0932 114.274 49.0379 114.235 48.9736L102.395 28.5654C102.316 28.4377 102.285 28.2856 102.308 28.137C102.322 28.0636 102.351 27.9941 102.394 27.9331C102.437 27.8721 102.493 27.8212 102.557 27.7839L115.914 20.0664C116.046 19.9968 116.2 19.9808 116.343 20.0218C116.487 20.0628 116.609 20.1576 116.684 20.2864L128.524 40.6945C128.607 40.8205 128.639 40.9743 128.61 41.123C128.596 41.1969 128.567 41.267 128.524 41.3288C128.481 41.3907 128.426 41.4428 128.361 41.4819L115.011 49.1936C114.948 49.2287 114.878 49.2495 114.806 49.2545C114.734 49.2595 114.661 49.2486 114.594 49.2225ZM103.64 28.4786L114.93 47.8909L127.29 40.7293L116.001 21.3111L103.64 28.4786Z" fill="#2C3B47"/>
<path d="M119.654 53.4952C119.556 53.4839 119.463 53.4436 119.388 53.3794L114.322 49.1646C114.246 49.1069 114.188 49.0291 114.154 48.9401C114.12 48.8511 114.112 48.7544 114.131 48.6609C114.176 48.4808 114.272 48.3178 114.409 48.192L127.759 40.4745C127.841 40.4329 127.931 40.4111 128.023 40.4111C128.114 40.4111 128.205 40.4329 128.286 40.4745C128.368 40.5155 128.439 40.5742 128.495 40.6463C128.551 40.7184 128.591 40.8021 128.61 40.8914L129.768 47.3815C129.805 47.4974 129.794 47.6231 129.739 47.7314C129.684 47.8397 129.588 47.922 129.473 47.9604L120.042 53.4026C119.995 53.456 119.932 53.4935 119.862 53.5101C119.793 53.5267 119.72 53.5215 119.654 53.4952ZM115.682 48.7536L119.81 52.1868L128.495 47.1209L127.568 41.7888L115.682 48.7536Z" fill="#2C3B47"/>
<path d="M76.1226 69.2545L106.495 47.4685L99.8366 36.0283L65.8809 51.5154L76.1226 69.2545Z" fill="#E1E7EE"/>
<path d="M70.9008 60.9234C70.8269 60.9092 70.7568 60.8798 70.695 60.8369C70.6332 60.794 70.581 60.7387 70.5419 60.6744C70.4705 60.5419 70.4535 60.3867 70.4946 60.2419C70.5357 60.0971 70.6316 59.9739 70.7619 59.8986L110.64 36.7809C110.705 36.7297 110.781 36.693 110.861 36.6733C110.941 36.6537 111.025 36.6514 111.106 36.6668C111.188 36.6822 111.265 36.7149 111.332 36.7626C111.4 36.8103 111.457 36.872 111.498 36.9434C111.54 37.0149 111.566 37.0945 111.575 37.1768C111.583 37.2591 111.574 37.3423 111.547 37.4207C111.521 37.4992 111.478 37.571 111.421 37.6314C111.365 37.6918 111.296 37.7394 111.219 37.771L71.3409 60.8944C71.2038 60.9617 71.0456 60.9721 70.9008 60.9234Z" fill="#2C3B47" stroke="#2C3B47"/>
<path d="M86.3694 61.9999C86.2973 61.9872 86.2288 61.9595 86.1685 61.9188C86.1083 61.8782 86.0577 61.8254 86.0202 61.764L77.1208 46.888C77.071 46.8264 77.0353 46.7551 77.0162 46.679C76.997 46.6028 76.9949 46.5235 77.0098 46.4465C77.0248 46.3694 77.0566 46.2964 77.103 46.2323C77.1494 46.1682 77.2094 46.1146 77.2789 46.075C77.3484 46.0354 77.4258 46.0108 77.5059 46.0028C77.586 45.9949 77.667 46.0037 77.7433 46.0288C77.8196 46.0538 77.8895 46.0945 77.9482 46.1481C78.007 46.2017 78.0533 46.267 78.084 46.3395L86.9326 61.199C87.0021 61.3246 87.0186 61.4716 86.9786 61.6088C86.9387 61.746 86.8454 61.8627 86.7186 61.934C86.6082 61.9796 86.4893 62.002 86.3694 61.9999Z" fill="#2C3B47" stroke="#2C3B47"/>
<path d="M95.996 55.4871C95.9214 55.4748 95.8505 55.4461 95.7885 55.4031C95.7264 55.36 95.6747 55.3037 95.637 55.2382L87.7922 41.6848C87.741 41.6198 87.7043 41.5446 87.6846 41.4642C87.6649 41.3838 87.6627 41.3001 87.6781 41.2188C87.6935 41.1375 87.7261 41.0604 87.7739 40.9928C87.8216 40.9251 87.8832 40.8685 87.9547 40.8267C88.0261 40.785 88.1057 40.759 88.188 40.7506C88.2704 40.7421 88.3536 40.7515 88.432 40.7779C88.5104 40.8044 88.5822 40.8473 88.6427 40.9039C88.7031 40.9605 88.7507 41.0294 88.7822 41.1059L96.627 54.665C96.6966 54.797 96.7126 54.9507 96.6716 55.0942C96.6306 55.2376 96.5359 55.3597 96.407 55.435C96.2751 55.4808 96.1351 55.4986 95.996 55.4871Z" fill="#2C3B47" stroke="#2C3B47"/>
<path d="M154.746 0L124.426 21.7919L131.026 33.2204L165.051 17.6929L154.746 0Z" fill="#E1E7EE"/>
<path d="M119.902 32.5254C119.828 32.512 119.758 32.4828 119.696 32.4399C119.634 32.3969 119.582 32.3412 119.543 32.2765C119.474 32.1445 119.458 31.9907 119.499 31.8473C119.54 31.7038 119.635 31.5817 119.763 31.5064L159.642 8.38299C159.707 8.33177 159.782 8.29508 159.862 8.2754C159.943 8.25572 160.027 8.2535 160.108 8.2689C160.189 8.2843 160.266 8.31695 160.334 8.36466C160.402 8.41237 160.458 8.47403 160.5 8.54548C160.542 8.61693 160.568 8.6965 160.576 8.77884C160.585 8.86118 160.575 8.94436 160.549 9.02279C160.522 9.10122 160.479 9.17306 160.423 9.23347C160.366 9.29388 160.297 9.34146 160.221 9.37301L120.313 32.4791C120.188 32.548 120.04 32.5647 119.902 32.5254Z" fill="#2C3B47"/>
<path d="M153.894 23.2973C153.82 23.2832 153.749 23.2532 153.687 23.2092C153.625 23.1652 153.573 23.1084 153.535 23.0426L144.428 7.35867C144.375 7.22948 144.37 7.08539 144.415 6.95299C144.46 6.82059 144.551 6.7088 144.671 6.63827C144.792 6.56773 144.934 6.54319 145.071 6.56919C145.209 6.59519 145.332 6.66996 145.418 6.77972L154.514 22.4636C154.583 22.5956 154.599 22.7493 154.558 22.8928C154.517 23.0362 154.423 23.1583 154.294 23.2336C154.166 23.2806 154.03 23.3022 153.894 23.2973Z" fill="#2C3B47"/>
<path d="M142.534 28.4265C142.461 28.4131 142.391 28.3838 142.331 28.3409C142.27 28.2979 142.219 28.2422 142.181 28.1776L134.331 14.6416C134.272 14.511 134.263 14.3631 134.307 14.2266C134.351 14.0901 134.443 13.9747 134.567 13.9027C134.691 13.8306 134.837 13.8071 134.978 13.8367C135.118 13.8662 135.242 13.9467 135.326 14.0627L143.171 27.616C143.243 27.7485 143.26 27.9037 143.219 28.0485C143.178 28.1933 143.082 28.3165 142.951 28.3918C142.817 28.4367 142.674 28.4486 142.534 28.4265Z" fill="#2C3B47"/>
<path d="M95.8423 236.202L82.4453 245.245" stroke="#2C3B47" stroke-width="2" stroke-linecap="round" stroke-linejoin="round"/>
</svg>
