<svg width="304" height="168" viewBox="0 0 304 168" fill="none" xmlns="http://www.w3.org/2000/svg">
<g clip-path="url(#clip0_14219_102653)">
<rect width="304" height="168" fill="#E0F5E3"/>
<g style="mix-blend-mode:screen">
<path d="M74.9951 307.529C80.9019 307.529 86.6481 308.061 92.2344 309.045V309.046L92.251 309.049C66.3326 347.302 69.7831 399.518 102.656 433.99C102.96 434.308 103.265 434.625 103.573 434.94L104.38 435.756C106.872 438.251 109.464 440.585 112.142 442.76C113.268 443.674 114.409 444.561 115.564 445.419C127.835 454.53 141.724 460.456 156.111 463.22C138.21 488.787 108.572 505.5 74.9951 505.5C41.4361 505.5 11.7972 488.805 -6.10352 463.221C-2.25005 462.481 1.56749 461.513 5.32812 460.319C5.5256 460.257 5.72276 460.193 5.91992 460.129C8.55316 459.275 11.158 458.309 13.7266 457.231C23.9347 452.949 33.5739 446.899 42.1719 439.072C43.1102 438.219 44.037 437.345 44.9502 436.449L45.6504 435.756C80.1029 401.322 84.1262 347.979 57.7617 309.05C63.3573 308.062 69.1119 307.529 74.9951 307.529ZM31.6475 283.956C36.0097 287.003 40.1853 290.43 44.1113 294.264L44.9316 295.073C49.0795 299.238 52.7905 303.694 56.0518 308.347C53.262 308.885 50.5137 309.539 47.8115 310.303C26.6249 316.287 8.29284 329.063 -4.67383 346.136C-17.417 362.909 -24.9814 383.829 -24.9814 406.532C-24.9814 427.276 -18.6375 446.564 -7.81445 462.532C-38.0592 467.87 -70.2954 459.069 -93.9355 436.176L-95.0645 435.066C-118.8 411.348 -127.937 378.564 -122.53 347.817C-106.528 358.657 -87.2562 364.985 -66.5117 364.985C-26.5765 364.985 7.87211 341.556 23.8809 307.713C27.4115 300.253 30.0462 292.288 31.6475 283.956ZM118.348 283.954C127.23 330.089 167.778 364.985 216.499 364.985C237.281 364.985 256.521 358.655 272.523 347.812C277.84 378.054 269.072 410.301 246.166 433.921L245.055 435.048C221.302 458.783 188.518 467.938 157.807 462.532L157.815 462.521L157.812 462.52C158.072 462.135 158.329 461.749 158.584 461.36C168.922 445.621 174.983 426.761 174.983 406.515C174.983 392.503 172.099 379.171 166.895 367.072C166.723 366.673 166.549 366.275 166.372 365.879C166.239 365.58 166.105 365.282 165.969 364.985C152.803 336.194 126.365 314.746 94.4795 308.451C94.3058 308.417 94.132 308.382 93.958 308.349L93.9639 308.342L93.9463 308.338C97.0063 303.989 100.42 299.803 104.263 295.892L105.075 295.075L105.077 295.073C109.241 290.91 113.695 287.214 118.348 283.954ZM94.0312 309.381C125.814 315.601 152.162 336.981 165.19 365.691C170.83 378.132 173.973 391.946 173.973 406.497C173.973 426.019 168.308 444.209 158.559 459.56C157.967 460.491 157.358 461.411 156.736 462.32C137.802 458.771 119.72 449.699 105.088 435.049H105.087C104.779 434.741 104.474 434.43 104.171 434.119C70.8074 399.899 67.2069 347.474 93.3398 309.25C93.5705 309.293 93.8011 309.336 94.0312 309.381ZM56.6826 309.246C83.0562 347.8 79.1533 400.853 44.9395 435.049H44.9385C43.6862 436.303 42.4078 437.514 41.1064 438.687C32.4659 446.462 22.7912 452.443 12.5527 456.636C6.30003 459.196 -0.162632 461.089 -6.72559 462.319C-17.5923 446.423 -23.9697 427.21 -23.9697 406.515C-23.9697 384.108 -16.5276 363.456 -3.98242 346.878C8.63897 330.204 26.4226 317.653 46.9902 311.581C50.158 310.647 53.3914 309.864 56.6826 309.246ZM-25.2002 266.097C-20.8789 266.093 -16.5576 266.371 -12.2656 266.93C-11.8672 266.982 -11.4692 267.036 -11.0713 267.093C3.64895 269.19 17.9876 274.603 30.7393 283.33C29.1159 292.006 26.3617 300.284 22.6328 308.005C22.4948 308.29 22.3555 308.575 22.2148 308.859C22.0096 309.274 21.8017 309.687 21.5908 310.099C5.35132 341.766 -27.4429 363.549 -65.3672 363.962L-66.5029 363.968C-87.2351 363.968 -106.432 357.606 -122.328 346.722C-118.834 328.103 -109.989 310.292 -95.7412 295.767L-95.0547 295.073C-75.7553 275.774 -50.4841 266.12 -25.2002 266.097ZM119.249 283.327C157.501 257.163 210.009 260.784 244.244 294.292L245.051 295.091C259.68 309.737 268.751 327.814 272.32 346.726C256.657 357.436 237.816 363.767 217.478 363.963L216.503 363.968H216.502C168.117 363.985 127.869 329.218 119.249 283.327ZM-123.225 183.888C-122.471 187.83 -121.478 191.734 -120.247 195.577C-116.164 208.347 -109.451 220.443 -100.1 231.03C-98.9313 232.355 -97.723 233.657 -96.4727 234.934L-95.7803 235.634H-95.7793C-61.3091 270.103 -7.96559 274.109 30.9297 247.744L30.9307 247.747L30.9375 247.742C31.9256 253.351 32.4746 259.103 32.4746 264.982C32.4746 270.897 31.9241 276.652 30.9355 282.247C14.0336 270.799 -5.58615 265.079 -25.1992 265.097H-25.2012C-50.3884 265.119 -75.567 274.602 -94.9561 293.56L-95.7725 294.366C-110.439 309.05 -119.594 327.15 -123.237 346.098C-148.787 328.214 -165.5 298.541 -165.5 264.982C-165.5 231.461 -148.79 201.789 -123.225 183.888ZM273.235 183.866C298.77 201.784 315.5 231.424 315.5 265C315.5 298.559 298.77 328.232 273.236 346.081C269.576 327.133 260.422 309.015 245.755 294.349L244.939 293.542C210.466 259.818 157.654 256.079 119.047 282.235C118.058 276.638 117.508 270.882 117.508 264.982C117.508 259.105 118.072 253.338 119.046 247.742C157.636 273.902 210.467 270.165 244.942 236.458L245.758 235.651H245.759C255.705 225.694 263.108 214.165 267.984 201.856C270.306 196.003 272.055 189.977 273.235 183.866ZM-66.5215 166.015C-18.1406 166.015 22.1202 200.758 30.7285 246.659C-7.523 272.835 -60.0074 269.196 -94.2578 235.725L-95.0654 234.927L-95.752 234.234C-96.7636 233.204 -97.7469 232.156 -98.7041 231.094C-108.289 220.435 -115.155 208.201 -119.295 195.271C-120.559 191.317 -121.569 187.298 -122.324 183.239C-122.011 183.025 -121.696 182.813 -121.38 182.603C-107.465 173.328 -91.0604 167.459 -73.3682 166.248C-73.3249 166.245 -73.2816 166.242 -73.2383 166.239C-72.6356 166.199 -72.0314 166.163 -71.4258 166.134C-69.8012 166.055 -68.1661 166.015 -66.5215 166.015ZM216.499 166.032C237.213 166.032 256.409 172.393 272.323 183.26C271.199 189.235 269.527 195.124 267.306 200.847C262.591 212.975 255.408 224.369 245.733 234.233L245.047 234.927C210.847 269.108 157.84 273.039 119.29 246.685C126.391 208.685 155.198 178.329 192.359 168.992C199.733 167.144 207.436 166.124 215.363 166.038L216.499 166.032ZM-95.0732 94.916C-71.3372 71.2156 -38.5525 62.0613 -7.82324 67.4502C-18.6467 83.4682 -24.9912 102.723 -24.9912 123.485C-24.9912 172.205 9.88848 212.77 56.042 221.635C52.767 226.305 49.0879 230.762 44.9238 234.943C40.7449 239.088 36.3073 242.78 31.6445 246.038L31.6436 246.031L31.6299 246.04C22.7627 199.89 -17.8019 165.015 -66.5205 165.015H-66.5215C-66.85 165.015 -67.1781 165.016 -67.5059 165.02C-68.1539 165.026 -68.8004 165.038 -69.4453 165.057C-69.4642 165.057 -69.4831 165.058 -69.502 165.059C-70.1297 165.077 -70.7561 165.101 -71.3809 165.131C-71.7401 165.148 -72.0988 165.166 -72.457 165.188C-90.9497 166.27 -108.073 172.38 -122.523 182.164C-127.862 151.92 -119.093 119.701 -96.1836 96.0449L-95.0732 94.916ZM157.847 67.4502C188.093 62.1452 220.33 70.9138 243.953 93.8232L245.08 94.9336C268.816 118.669 277.97 151.453 272.564 182.164C256.562 171.341 237.29 165.015 216.546 165.015C207.733 165.015 199.187 166.155 191.048 168.296C154.177 177.974 125.639 208.211 118.353 246.019C113.683 242.751 109.256 239.08 105.103 234.943H105.102C100.921 230.762 97.2401 226.305 93.9648 221.635C140.119 212.771 174.998 172.223 175.016 123.485H175.017C175.017 102.706 168.653 83.451 157.847 67.4502ZM74.9951 24.5C108.563 24.5 138.213 41.2214 156.115 66.7432C137.449 70.3288 119.621 79.2707 105.08 93.5342L104.381 94.2266C69.9101 128.697 65.8859 182.041 92.2529 220.937C86.6591 221.94 80.8911 222.488 74.9951 222.488C69.1139 222.488 63.3598 221.922 57.7627 220.932C84.1263 182.037 80.1022 128.695 45.6504 94.2441L44.9502 93.5508C30.3917 79.2707 12.5632 70.3458 -6.10352 66.7607C11.7976 41.2284 41.4372 24.5001 74.9951 24.5ZM-6.72559 67.6621C11.9097 71.1564 29.7208 80.0341 44.2295 94.2656L44.9209 94.9512H44.9219C79.1532 129.164 83.0551 182.198 56.6826 220.734C10.777 212.129 -23.9697 171.885 -23.9697 123.485C-23.9697 102.772 -17.5927 83.5761 -6.72559 67.6621ZM156.749 67.6621C167.609 83.5901 173.983 102.762 173.983 123.485C173.983 171.882 139.241 212.123 93.3408 220.732C67.1768 182.499 70.8146 129.994 104.306 95.7588L105.104 94.9512C119.736 80.3195 137.817 71.2125 156.749 67.6621Z" fill="white" fill-opacity="0.3"/>
<path d="M74.9951 307.529C80.9019 307.529 86.6481 308.061 92.2344 309.045V309.046L92.251 309.049C66.3326 347.302 69.7831 399.518 102.656 433.99C102.96 434.308 103.265 434.625 103.573 434.94L104.38 435.756C106.872 438.251 109.464 440.585 112.142 442.76C113.268 443.674 114.409 444.561 115.564 445.419C127.835 454.53 141.724 460.456 156.111 463.22C138.21 488.787 108.572 505.5 74.9951 505.5C41.4361 505.5 11.7972 488.805 -6.10352 463.221C-2.25005 462.481 1.56749 461.513 5.32812 460.319C5.5256 460.257 5.72276 460.193 5.91992 460.129C8.55316 459.275 11.158 458.309 13.7266 457.231C23.9347 452.949 33.5739 446.899 42.1719 439.072C43.1102 438.219 44.037 437.345 44.9502 436.449L45.6504 435.756C80.1029 401.322 84.1262 347.979 57.7617 309.05C63.3573 308.062 69.1119 307.529 74.9951 307.529ZM31.6475 283.956C36.0097 287.003 40.1853 290.43 44.1113 294.264L44.9316 295.073C49.0795 299.238 52.7905 303.694 56.0518 308.347C53.262 308.885 50.5137 309.539 47.8115 310.303C26.6249 316.287 8.29284 329.063 -4.67383 346.136C-17.417 362.909 -24.9814 383.829 -24.9814 406.532C-24.9814 427.276 -18.6375 446.564 -7.81445 462.532C-38.0592 467.87 -70.2954 459.069 -93.9355 436.176L-95.0645 435.066C-118.8 411.348 -127.937 378.564 -122.53 347.817C-106.528 358.657 -87.2562 364.985 -66.5117 364.985C-26.5765 364.985 7.87211 341.556 23.8809 307.713C27.4115 300.253 30.0462 292.288 31.6475 283.956ZM118.348 283.954C127.23 330.089 167.778 364.985 216.499 364.985C237.281 364.985 256.521 358.655 272.523 347.812C277.84 378.054 269.072 410.301 246.166 433.921L245.055 435.048C221.302 458.783 188.518 467.938 157.807 462.532L157.815 462.521L157.812 462.52C158.072 462.135 158.329 461.749 158.584 461.36C168.922 445.621 174.983 426.761 174.983 406.515C174.983 392.503 172.099 379.171 166.895 367.072C166.723 366.673 166.549 366.275 166.372 365.879C166.239 365.58 166.105 365.282 165.969 364.985C152.803 336.194 126.365 314.746 94.4795 308.451C94.3058 308.417 94.132 308.382 93.958 308.349L93.9639 308.342L93.9463 308.338C97.0063 303.989 100.42 299.803 104.263 295.892L105.075 295.075L105.077 295.073C109.241 290.91 113.695 287.214 118.348 283.954ZM94.0312 309.381C125.814 315.601 152.162 336.981 165.19 365.691C170.83 378.132 173.973 391.946 173.973 406.497C173.973 426.019 168.308 444.209 158.559 459.56C157.967 460.491 157.358 461.411 156.736 462.32C137.802 458.771 119.72 449.699 105.088 435.049H105.087C104.779 434.741 104.474 434.43 104.171 434.119C70.8074 399.899 67.2069 347.474 93.3398 309.25C93.5705 309.293 93.8011 309.336 94.0312 309.381ZM56.6826 309.246C83.0562 347.8 79.1533 400.853 44.9395 435.049H44.9385C43.6862 436.303 42.4078 437.514 41.1064 438.687C32.4659 446.462 22.7912 452.443 12.5527 456.636C6.30003 459.196 -0.162632 461.089 -6.72559 462.319C-17.5923 446.423 -23.9697 427.21 -23.9697 406.515C-23.9697 384.108 -16.5276 363.456 -3.98242 346.878C8.63897 330.204 26.4226 317.653 46.9902 311.581C50.158 310.647 53.3914 309.864 56.6826 309.246ZM-25.2002 266.097C-20.8789 266.093 -16.5576 266.371 -12.2656 266.93C-11.8672 266.982 -11.4692 267.036 -11.0713 267.093C3.64895 269.19 17.9876 274.603 30.7393 283.33C29.1159 292.006 26.3617 300.284 22.6328 308.005C22.4948 308.29 22.3555 308.575 22.2148 308.859C22.0096 309.274 21.8017 309.687 21.5908 310.099C5.35132 341.766 -27.4429 363.549 -65.3672 363.962L-66.5029 363.968C-87.2351 363.968 -106.432 357.606 -122.328 346.722C-118.834 328.103 -109.989 310.292 -95.7412 295.767L-95.0547 295.073C-75.7553 275.774 -50.4841 266.12 -25.2002 266.097ZM119.249 283.327C157.501 257.163 210.009 260.784 244.244 294.292L245.051 295.091C259.68 309.737 268.751 327.814 272.32 346.726C256.657 357.436 237.816 363.767 217.478 363.963L216.503 363.968H216.502C168.117 363.985 127.869 329.218 119.249 283.327ZM-123.225 183.888C-122.471 187.83 -121.478 191.734 -120.247 195.577C-116.164 208.347 -109.451 220.443 -100.1 231.03C-98.9313 232.355 -97.723 233.657 -96.4727 234.934L-95.7803 235.634H-95.7793C-61.3091 270.103 -7.96559 274.109 30.9297 247.744L30.9307 247.747L30.9375 247.742C31.9256 253.351 32.4746 259.103 32.4746 264.982C32.4746 270.897 31.9241 276.652 30.9355 282.247C14.0336 270.799 -5.58615 265.079 -25.1992 265.097H-25.2012C-50.3884 265.119 -75.567 274.602 -94.9561 293.56L-95.7725 294.366C-110.439 309.05 -119.594 327.15 -123.237 346.098C-148.787 328.214 -165.5 298.541 -165.5 264.982C-165.5 231.461 -148.79 201.789 -123.225 183.888ZM273.235 183.866C298.77 201.784 315.5 231.424 315.5 265C315.5 298.559 298.77 328.232 273.236 346.081C269.576 327.133 260.422 309.015 245.755 294.349L244.939 293.542C210.466 259.818 157.654 256.079 119.047 282.235C118.058 276.638 117.508 270.882 117.508 264.982C117.508 259.105 118.072 253.338 119.046 247.742C157.636 273.902 210.467 270.165 244.942 236.458L245.758 235.651H245.759C255.705 225.694 263.108 214.165 267.984 201.856C270.306 196.003 272.055 189.977 273.235 183.866ZM-66.5215 166.015C-18.1406 166.015 22.1202 200.758 30.7285 246.659C-7.523 272.835 -60.0074 269.196 -94.2578 235.725L-95.0654 234.927L-95.752 234.234C-96.7636 233.204 -97.7469 232.156 -98.7041 231.094C-108.289 220.435 -115.155 208.201 -119.295 195.271C-120.559 191.317 -121.569 187.298 -122.324 183.239C-122.011 183.025 -121.696 182.813 -121.38 182.603C-107.465 173.328 -91.0604 167.459 -73.3682 166.248C-73.3249 166.245 -73.2816 166.242 -73.2383 166.239C-72.6356 166.199 -72.0314 166.163 -71.4258 166.134C-69.8012 166.055 -68.1661 166.015 -66.5215 166.015ZM216.499 166.032C237.213 166.032 256.409 172.393 272.323 183.26C271.199 189.235 269.527 195.124 267.306 200.847C262.591 212.975 255.408 224.369 245.733 234.233L245.047 234.927C210.847 269.108 157.84 273.039 119.29 246.685C126.391 208.685 155.198 178.329 192.359 168.992C199.733 167.144 207.436 166.124 215.363 166.038L216.499 166.032ZM-95.0732 94.916C-71.3372 71.2156 -38.5525 62.0613 -7.82324 67.4502C-18.6467 83.4682 -24.9912 102.723 -24.9912 123.485C-24.9912 172.205 9.88848 212.77 56.042 221.635C52.767 226.305 49.0879 230.762 44.9238 234.943C40.7449 239.088 36.3073 242.78 31.6445 246.038L31.6436 246.031L31.6299 246.04C22.7627 199.89 -17.8019 165.015 -66.5205 165.015H-66.5215C-66.85 165.015 -67.1781 165.016 -67.5059 165.02C-68.1539 165.026 -68.8004 165.038 -69.4453 165.057C-69.4642 165.057 -69.4831 165.058 -69.502 165.059C-70.1297 165.077 -70.7561 165.101 -71.3809 165.131C-71.7401 165.148 -72.0988 165.166 -72.457 165.188C-90.9497 166.27 -108.073 172.38 -122.523 182.164C-127.862 151.92 -119.093 119.701 -96.1836 96.0449L-95.0732 94.916ZM157.847 67.4502C188.093 62.1452 220.33 70.9138 243.953 93.8232L245.08 94.9336C268.816 118.669 277.97 151.453 272.564 182.164C256.562 171.341 237.29 165.015 216.546 165.015C207.733 165.015 199.187 166.155 191.048 168.296C154.177 177.974 125.639 208.211 118.353 246.019C113.683 242.751 109.256 239.08 105.103 234.943H105.102C100.921 230.762 97.2401 226.305 93.9648 221.635C140.119 212.771 174.998 172.223 175.016 123.485H175.017C175.017 102.706 168.653 83.451 157.847 67.4502ZM74.9951 24.5C108.563 24.5 138.213 41.2214 156.115 66.7432C137.449 70.3288 119.621 79.2707 105.08 93.5342L104.381 94.2266C69.9101 128.697 65.8859 182.041 92.2529 220.937C86.6591 221.94 80.8911 222.488 74.9951 222.488C69.1139 222.488 63.3598 221.922 57.7627 220.932C84.1263 182.037 80.1022 128.695 45.6504 94.2441L44.9502 93.5508C30.3917 79.2707 12.5632 70.3458 -6.10352 66.7607C11.7976 41.2284 41.4372 24.5001 74.9951 24.5ZM-6.72559 67.6621C11.9097 71.1564 29.7208 80.0341 44.2295 94.2656L44.9209 94.9512H44.9219C79.1532 129.164 83.0551 182.198 56.6826 220.734C10.777 212.129 -23.9697 171.885 -23.9697 123.485C-23.9697 102.772 -17.5927 83.5761 -6.72559 67.6621ZM156.749 67.6621C167.609 83.5901 173.983 102.762 173.983 123.485C173.983 171.882 139.241 212.123 93.3408 220.732C67.1768 182.499 70.8146 129.994 104.306 95.7588L105.104 94.9512C119.736 80.3195 137.817 71.2125 156.749 67.6621Z" stroke="white"/>
</g>
<path d="M149.522 77.3677C150.393 77.526 151.29 77.6169 152.208 77.6169C153.128 77.6169 154.028 77.5286 154.898 77.3677C150.932 71.6887 151.505 63.8528 156.626 58.8019C158.823 56.6346 161.539 55.2901 164.383 54.7736C161.718 50.9607 157.26 48.4561 152.208 48.4561C147.158 48.4561 142.702 50.9607 140.038 54.7736C142.881 55.2901 145.598 56.6346 147.794 58.8019C152.915 63.8528 153.489 71.6887 149.522 77.3677Z" fill="white"/>
<path d="M154.898 90.1776C154.028 90.0192 153.131 89.9336 152.208 89.9336C151.29 89.9336 150.393 90.0192 149.522 90.1776C153.489 95.8592 152.915 103.698 147.797 108.746C145.601 110.916 142.881 112.255 140.038 112.772C142.702 116.592 147.158 119.092 152.208 119.092C157.26 119.092 161.716 116.59 164.38 112.772C161.537 112.255 158.82 110.916 156.624 108.746C151.505 103.698 150.932 95.8618 154.898 90.1776Z" fill="white"/>
<path d="M188 83.7716C188 78.7855 185.462 74.3887 181.599 71.7568C181.073 74.56 179.715 77.2464 177.517 79.4163C172.398 84.4646 164.458 85.033 158.701 81.1163C158.543 81.9755 158.451 82.8631 158.451 83.769C158.451 84.6774 158.54 85.5625 158.701 86.4216C164.458 82.5075 172.398 83.0708 177.517 88.1243C179.713 90.2915 181.073 92.9753 181.599 95.7785C185.462 93.157 188 88.755 188 83.7716Z" fill="white"/>
<path d="M145.72 86.4245C145.88 85.5654 145.97 84.6803 145.97 83.7693C145.97 82.8635 145.88 81.9784 145.72 81.1167C139.963 85.0333 132.025 84.4675 126.904 79.4166C124.705 77.2493 123.348 74.5681 122.827 71.7598C118.958 74.389 116.423 78.7911 116.423 83.7693C116.423 88.7527 118.958 93.1548 122.825 95.7814C123.348 92.9783 124.708 90.2971 126.904 88.1272C132.025 83.0737 139.965 82.5105 145.72 86.4245Z" fill="white"/>
<path d="M154.898 77.3668C155.403 78.0884 155.974 78.7762 156.626 79.4199C157.276 80.0584 157.97 80.6216 158.704 81.1199C159.967 74.3352 165.987 69.1935 173.228 69.1935C176.334 69.1935 179.217 70.1408 181.6 71.7578C182.449 67.2027 181.089 62.3231 177.518 58.7983C173.949 55.2736 169.004 53.9343 164.385 54.7701C166.021 57.1216 166.987 59.9637 166.987 63.0343C166.984 70.1798 161.774 76.1183 154.898 77.3668Z" fill="white"/>
<path d="M154.9 77.3662C161.775 76.1178 166.985 70.1792 166.985 63.0337C166.985 59.9632 166.022 57.1237 164.384 54.7695C161.541 55.286 158.824 56.6305 156.628 58.7978C151.507 63.8513 150.933 71.6872 154.9 77.3662Z" fill="#E0F5E3"/>
<path d="M158.699 81.1221C164.454 85.0362 172.397 84.473 177.515 79.4221C179.711 77.2522 181.069 74.571 181.595 71.7626C179.212 70.1456 176.332 69.1982 173.223 69.1982C165.985 69.1956 159.967 74.3374 158.699 81.1221Z" fill="#E0F5E3"/>
<path d="M149.523 90.1763C149.021 89.4574 148.445 88.7695 147.798 88.1285C147.148 87.4874 146.451 86.9215 145.72 86.4258C144.458 93.2079 138.437 98.3523 131.197 98.3523C128.09 98.3523 125.208 97.4049 122.825 95.7853C121.975 100.346 123.332 105.225 126.904 108.747C130.476 112.27 135.421 113.614 140.039 112.773C138.401 110.427 137.438 107.579 137.438 104.514C137.438 97.366 142.648 91.43 149.523 90.1763Z" fill="white"/>
<path d="M149.523 90.1777C142.648 91.4288 137.438 97.3648 137.438 104.513C137.438 107.578 138.4 110.423 140.039 112.772C142.882 112.255 145.599 110.916 147.798 108.746C152.916 103.698 153.489 95.862 149.523 90.1777Z" fill="#E0F5E3"/>
<path d="M145.721 86.4265C139.963 82.5124 132.025 83.0757 126.905 88.1292C124.706 90.299 123.349 92.9802 122.825 95.7834C125.205 97.403 128.085 98.3504 131.197 98.3504C138.435 98.353 144.455 93.2086 145.721 86.4265Z" fill="#E0F5E3"/>
<path d="M158.7 86.4258C157.971 86.9215 157.274 87.4874 156.624 88.1285C155.972 88.767 155.401 89.4574 154.896 90.1763C161.772 91.4222 166.982 97.3634 166.982 104.509C166.982 107.577 166.019 110.421 164.381 112.773C168.997 113.611 173.941 112.27 177.516 108.745C181.087 105.223 182.445 100.34 181.595 95.7827C179.212 97.4023 176.332 98.3497 173.223 98.3497C165.985 98.3523 159.967 93.2079 158.7 86.4258Z" fill="white"/>
<path d="M154.9 90.1777C150.933 95.8594 151.507 103.698 156.628 108.746C158.824 110.916 161.541 112.255 164.384 112.772C166.02 110.425 166.985 107.578 166.985 104.513C166.985 97.3674 161.775 91.4314 154.9 90.1777Z" fill="#E0F5E3"/>
<path d="M158.699 86.4263C159.967 93.2084 165.985 98.3528 173.223 98.3528C176.334 98.3528 179.212 97.4054 181.595 95.7858C181.069 92.9826 179.711 90.3014 177.515 88.1316C172.397 83.0755 164.457 82.5122 158.699 86.4263Z" fill="#E0F5E3"/>
<path d="M145.721 81.1197C146.452 80.624 147.146 80.0582 147.799 79.4197C148.448 78.776 149.019 78.0881 149.524 77.3666C142.649 76.1181 137.438 70.177 137.438 63.034C137.438 59.9661 138.401 57.124 140.04 54.7699C135.421 53.9341 130.476 55.276 126.905 58.7955C123.333 62.3229 121.976 67.1999 122.828 71.7576C125.206 70.1432 128.088 69.1932 131.197 69.1932C138.435 69.1932 144.456 74.335 145.721 81.1197Z" fill="white"/>
<path d="M149.523 77.3666C153.489 71.6876 152.916 63.8516 147.798 58.8007C145.599 56.6309 142.882 55.289 140.039 54.7725C138.4 57.124 137.438 59.9661 137.438 63.034C137.438 70.1796 142.648 76.1181 149.523 77.3666Z" fill="#E0F5E3"/>
<path d="M145.721 81.1208C144.456 74.3361 138.435 69.1943 131.197 69.1943C128.088 69.1943 125.208 70.1417 122.828 71.7587C123.349 74.5671 124.709 77.2483 126.905 79.4181C132.026 84.4717 139.966 85.0349 145.721 81.1208Z" fill="#E0F5E3"/>
</g>
<defs>
<clipPath id="clip0_14219_102653">
<rect width="304" height="168" fill="white"/>
</clipPath>
</defs>
</svg>
