<svg width="304" height="168" viewBox="0 0 304 168" fill="none" xmlns="http://www.w3.org/2000/svg">
<g clip-path="url(#clip0_14219_102657)">
<rect width="304" height="168" fill="#F4DFEC"/>
<g style="mix-blend-mode:screen">
<path d="M293.995 -47.4707C299.902 -47.4707 305.648 -46.9391 311.234 -45.9551V-45.9541L311.251 -45.9512C285.333 -7.69781 288.783 44.5183 321.656 78.9902C321.96 79.3084 322.265 79.6253 322.573 79.9404L323.38 80.7559C325.872 83.2508 328.464 85.5848 331.142 87.7598C332.268 88.6744 333.409 89.5608 334.564 90.4189C346.835 99.53 360.724 105.456 375.111 108.22C357.21 133.787 327.572 150.5 293.995 150.5C260.436 150.5 230.797 133.805 212.896 108.221C216.75 107.481 220.567 106.513 224.328 105.319C224.526 105.257 224.723 105.193 224.92 105.129C227.553 104.275 230.158 103.309 232.727 102.231C242.935 97.9485 252.574 91.8989 261.172 84.0723C262.11 83.2188 263.037 82.3449 263.95 81.4492L264.65 80.7559C299.103 46.3216 303.126 -7.02089 276.762 -45.9502C282.357 -46.9376 288.112 -47.4707 293.995 -47.4707ZM250.647 -71.0439C255.01 -67.9975 259.185 -64.5702 263.111 -60.7363L263.932 -59.9268C268.079 -55.762 271.791 -51.306 275.052 -46.6533C272.262 -46.1154 269.514 -45.4611 266.812 -44.6973C245.625 -38.7126 227.293 -25.937 214.326 -8.86426C201.583 7.9091 194.019 28.8285 194.019 51.5322C194.019 72.2757 200.362 91.5642 211.186 107.532C180.941 112.87 148.705 104.069 125.064 81.1758L123.936 80.0664C100.2 56.3484 91.0628 23.5638 96.4697 -7.18262C112.472 3.65749 131.744 9.98535 152.488 9.98535C192.423 9.98531 226.872 -13.4438 242.881 -47.2871C246.411 -54.7466 249.046 -62.7118 250.647 -71.0439ZM337.348 -71.0459C346.23 -24.911 386.778 9.98534 435.499 9.98535C456.281 9.98535 475.521 3.65522 491.523 -7.1875C496.84 23.054 488.072 55.301 465.166 78.9209L464.055 80.0479C440.302 103.783 407.518 112.938 376.807 107.532L376.815 107.521L376.812 107.52C377.072 107.135 377.329 106.749 377.584 106.36C387.922 90.6211 393.983 71.7613 393.983 51.5146C393.983 37.5032 391.099 24.1706 385.895 12.0723C385.723 11.6731 385.549 11.2754 385.372 10.8789C385.239 10.5803 385.105 10.2824 384.969 9.98535C371.803 -18.8061 345.365 -40.2539 313.479 -46.5488C313.306 -46.5833 313.132 -46.6178 312.958 -46.6514L312.964 -46.6582L312.946 -46.6621C316.006 -51.0111 319.42 -55.1975 323.263 -59.1084L324.075 -59.9248L324.077 -59.9268C328.241 -64.0901 332.695 -67.786 337.348 -71.0459ZM313.031 -45.6191C344.814 -39.399 371.162 -18.0186 384.19 10.6914C389.83 23.1317 392.973 36.9464 392.973 51.4971C392.973 71.0188 387.308 89.2088 377.559 104.56C376.967 105.491 376.358 106.411 375.736 107.32C356.802 103.771 338.72 94.6986 324.088 80.0488H324.087C323.779 79.7409 323.474 79.4301 323.171 79.1191C289.807 44.8991 286.207 -7.52621 312.34 -45.75C312.571 -45.7068 312.801 -45.6639 313.031 -45.6191ZM275.683 -45.7539C302.056 -7.20001 298.153 45.8531 263.939 80.0488H263.938C262.686 81.3025 261.408 82.5145 260.106 83.6865C251.466 91.4623 241.791 97.4426 231.553 101.636C225.3 104.196 218.837 106.089 212.274 107.319C201.408 91.4229 195.03 72.2099 195.03 51.5146C195.03 29.108 202.472 8.45601 215.018 -8.12207C227.639 -24.7957 245.423 -37.3473 265.99 -43.4189C269.158 -44.3534 272.391 -45.1357 275.683 -45.7539ZM193.8 -88.9033C198.121 -88.9073 202.442 -88.6288 206.734 -88.0703C207.133 -88.0185 207.531 -87.9639 207.929 -87.9072C222.649 -85.8099 236.988 -80.3966 249.739 -71.6699C248.116 -62.9941 245.362 -54.716 241.633 -46.9951C241.495 -46.7095 241.356 -46.4247 241.215 -46.1406C241.01 -45.7259 240.802 -45.3128 240.591 -44.9014C224.351 -13.2344 191.557 8.54864 153.633 8.96191L152.497 8.96777C131.765 8.96774 112.568 2.60608 96.6719 -8.27832C100.166 -26.8973 109.011 -44.7079 123.259 -59.2334L123.945 -59.9268C143.245 -79.2258 168.516 -88.8796 193.8 -88.9033ZM338.249 -71.6729C376.501 -97.8373 429.009 -94.2158 463.244 -60.708L464.051 -59.9092C478.68 -45.2627 487.751 -27.1858 491.32 -8.27441C475.657 2.43633 456.816 8.7667 436.478 8.96289L435.503 8.96777H435.502C387.117 8.98515 346.869 -25.7819 338.249 -71.6729ZM95.7754 -171.112C96.5293 -167.17 97.5222 -163.266 98.7529 -159.423C102.836 -146.653 109.549 -134.557 118.9 -123.97C120.069 -122.645 121.277 -121.343 122.527 -120.066L123.22 -119.366H123.221C157.691 -84.8969 211.034 -80.891 249.93 -107.256L249.931 -107.253L249.938 -107.258C250.926 -101.649 251.475 -95.8968 251.475 -90.0176C251.475 -84.1026 250.924 -78.3481 249.936 -72.7529C233.034 -84.2011 213.414 -89.9212 193.801 -89.9033H193.799C168.612 -89.8806 143.433 -80.398 124.044 -61.4404L123.228 -60.6338C108.561 -45.9501 99.4061 -27.8505 95.7627 -8.90234C70.2128 -26.786 53.5001 -56.4593 53.5 -90.0176C53.5 -123.539 70.2104 -153.211 95.7754 -171.112ZM492.235 -171.134C517.77 -153.216 534.5 -123.576 534.5 -90C534.5 -56.4414 517.77 -26.768 492.236 -8.91895C488.576 -27.8674 479.422 -45.9846 464.755 -60.6514L463.939 -61.458C429.466 -95.1817 376.654 -98.9207 338.047 -72.7646C337.058 -78.3617 336.508 -84.1176 336.508 -90.0176C336.508 -95.8949 337.072 -101.662 338.046 -107.258C376.636 -81.098 429.467 -84.8347 463.942 -118.542L464.758 -119.349H464.759C474.705 -129.306 482.108 -140.835 486.984 -153.144C489.306 -158.997 491.055 -165.023 492.235 -171.134ZM152.479 -188.985C200.859 -188.985 241.12 -154.242 249.729 -108.341C211.477 -82.1649 158.993 -85.8036 124.742 -119.275L123.935 -120.073L123.248 -120.766C122.236 -121.796 121.253 -122.844 120.296 -123.906C110.711 -134.565 103.845 -146.799 99.7051 -159.729C98.4409 -163.683 97.4313 -167.702 96.6758 -171.761C96.9891 -171.975 97.3042 -172.187 97.6201 -172.397C111.535 -181.672 127.94 -187.541 145.632 -188.752C145.675 -188.755 145.718 -188.758 145.762 -188.761C146.364 -188.801 146.969 -188.837 147.574 -188.866C149.199 -188.945 150.834 -188.985 152.479 -188.985ZM435.499 -188.968C456.213 -188.968 475.409 -182.607 491.323 -171.74C490.199 -165.765 488.527 -159.876 486.306 -154.153C481.591 -142.025 474.408 -130.631 464.733 -120.767L464.047 -120.073C429.847 -85.8916 376.84 -81.9607 338.29 -108.315C345.391 -146.315 374.198 -176.671 411.359 -186.008C418.733 -187.856 426.436 -188.876 434.363 -188.962L435.499 -188.968ZM123.927 -260.084C147.663 -283.784 180.448 -292.939 211.177 -287.55C200.353 -271.532 194.009 -252.277 194.009 -231.515C194.009 -182.795 228.888 -142.23 275.042 -133.365C271.767 -128.695 268.088 -124.238 263.924 -120.057C259.745 -115.912 255.307 -112.22 250.645 -108.962L250.644 -108.969L250.63 -108.96C241.763 -155.11 201.198 -189.985 152.479 -189.985H152.479C152.15 -189.985 151.822 -189.984 151.494 -189.98C150.846 -189.974 150.2 -189.962 149.555 -189.943C149.536 -189.943 149.517 -189.942 149.498 -189.941C148.87 -189.923 148.244 -189.899 147.619 -189.869C147.26 -189.852 146.901 -189.834 146.543 -189.812C128.05 -188.73 110.927 -182.62 96.4766 -172.836C91.1383 -203.08 99.9067 -235.299 122.816 -258.955L123.927 -260.084ZM376.847 -287.55C407.093 -292.855 439.33 -284.086 462.953 -261.177L464.08 -260.066C487.816 -236.331 496.97 -203.547 491.564 -172.836C475.562 -183.659 456.29 -189.985 435.546 -189.985C426.733 -189.985 418.187 -188.845 410.048 -186.704C373.177 -177.026 344.639 -146.789 337.353 -108.981C332.683 -112.249 328.256 -115.92 324.103 -120.057H324.102C319.921 -124.238 316.24 -128.695 312.965 -133.365C359.119 -142.229 393.998 -182.777 394.016 -231.515H394.017C394.017 -252.294 387.653 -271.549 376.847 -287.55ZM293.995 -330.5C327.563 -330.5 357.213 -313.779 375.115 -288.257C356.449 -284.671 338.621 -275.729 324.08 -261.466L323.381 -260.773C288.91 -226.303 284.886 -172.959 311.253 -134.063C305.659 -133.06 299.891 -132.512 293.995 -132.512C288.114 -132.512 282.36 -133.078 276.763 -134.068C303.126 -172.963 299.102 -226.305 264.65 -260.756L263.95 -261.449C249.392 -275.729 231.563 -284.654 212.896 -288.239C230.798 -313.772 260.437 -330.5 293.995 -330.5ZM212.274 -287.338C230.91 -283.844 248.721 -274.966 263.229 -260.734L263.921 -260.049H263.922C298.153 -225.836 302.055 -172.802 275.683 -134.266C229.777 -142.871 195.03 -183.115 195.03 -231.515C195.03 -252.228 201.407 -271.424 212.274 -287.338ZM375.749 -287.338C386.609 -271.41 392.983 -252.238 392.983 -231.515C392.983 -183.118 358.241 -142.877 312.341 -134.268C286.177 -172.501 289.815 -225.006 323.306 -259.241L324.104 -260.049C338.736 -274.68 356.817 -283.788 375.749 -287.338Z" fill="white" fill-opacity="0.3"/>
<path d="M293.995 -47.4707C299.902 -47.4707 305.648 -46.9391 311.234 -45.9551V-45.9541L311.251 -45.9512C285.333 -7.69781 288.783 44.5183 321.656 78.9902C321.96 79.3084 322.265 79.6253 322.573 79.9404L323.38 80.7559C325.872 83.2508 328.464 85.5848 331.142 87.7598C332.268 88.6744 333.409 89.5608 334.564 90.4189C346.835 99.53 360.724 105.456 375.111 108.22C357.21 133.787 327.572 150.5 293.995 150.5C260.436 150.5 230.797 133.805 212.896 108.221C216.75 107.481 220.567 106.513 224.328 105.319C224.526 105.257 224.723 105.193 224.92 105.129C227.553 104.275 230.158 103.309 232.727 102.231C242.935 97.9485 252.574 91.8989 261.172 84.0723C262.11 83.2188 263.037 82.3449 263.95 81.4492L264.65 80.7559C299.103 46.3216 303.126 -7.02089 276.762 -45.9502C282.357 -46.9376 288.112 -47.4707 293.995 -47.4707ZM250.647 -71.0439C255.01 -67.9975 259.185 -64.5702 263.111 -60.7363L263.932 -59.9268C268.079 -55.762 271.791 -51.306 275.052 -46.6533C272.262 -46.1154 269.514 -45.4611 266.812 -44.6973C245.625 -38.7126 227.293 -25.937 214.326 -8.86426C201.583 7.9091 194.019 28.8285 194.019 51.5322C194.019 72.2757 200.362 91.5642 211.186 107.532C180.941 112.87 148.705 104.069 125.064 81.1758L123.936 80.0664C100.2 56.3484 91.0628 23.5638 96.4697 -7.18262C112.472 3.65749 131.744 9.98535 152.488 9.98535C192.423 9.98531 226.872 -13.4438 242.881 -47.2871C246.411 -54.7466 249.046 -62.7118 250.647 -71.0439ZM337.348 -71.0459C346.23 -24.911 386.778 9.98534 435.499 9.98535C456.281 9.98535 475.521 3.65522 491.523 -7.1875C496.84 23.054 488.072 55.301 465.166 78.9209L464.055 80.0479C440.302 103.783 407.518 112.938 376.807 107.532L376.815 107.521L376.812 107.52C377.072 107.135 377.329 106.749 377.584 106.36C387.922 90.6211 393.983 71.7613 393.983 51.5146C393.983 37.5032 391.099 24.1706 385.895 12.0723C385.723 11.6731 385.549 11.2754 385.372 10.8789C385.239 10.5803 385.105 10.2824 384.969 9.98535C371.803 -18.8061 345.365 -40.2539 313.479 -46.5488C313.306 -46.5833 313.132 -46.6178 312.958 -46.6514L312.964 -46.6582L312.946 -46.6621C316.006 -51.0111 319.42 -55.1975 323.263 -59.1084L324.075 -59.9248L324.077 -59.9268C328.241 -64.0901 332.695 -67.786 337.348 -71.0459ZM313.031 -45.6191C344.814 -39.399 371.162 -18.0186 384.19 10.6914C389.83 23.1317 392.973 36.9464 392.973 51.4971C392.973 71.0188 387.308 89.2088 377.559 104.56C376.967 105.491 376.358 106.411 375.736 107.32C356.802 103.771 338.72 94.6986 324.088 80.0488H324.087C323.779 79.7409 323.474 79.4301 323.171 79.1191C289.807 44.8991 286.207 -7.52621 312.34 -45.75C312.571 -45.7068 312.801 -45.6639 313.031 -45.6191ZM275.683 -45.7539C302.056 -7.20001 298.153 45.8531 263.939 80.0488H263.938C262.686 81.3025 261.408 82.5145 260.106 83.6865C251.466 91.4623 241.791 97.4426 231.553 101.636C225.3 104.196 218.837 106.089 212.274 107.319C201.408 91.4229 195.03 72.2099 195.03 51.5146C195.03 29.108 202.472 8.45601 215.018 -8.12207C227.639 -24.7957 245.423 -37.3473 265.99 -43.4189C269.158 -44.3534 272.391 -45.1357 275.683 -45.7539ZM193.8 -88.9033C198.121 -88.9073 202.442 -88.6288 206.734 -88.0703C207.133 -88.0185 207.531 -87.9639 207.929 -87.9072C222.649 -85.8099 236.988 -80.3966 249.739 -71.6699C248.116 -62.9941 245.362 -54.716 241.633 -46.9951C241.495 -46.7095 241.356 -46.4247 241.215 -46.1406C241.01 -45.7259 240.802 -45.3128 240.591 -44.9014C224.351 -13.2344 191.557 8.54864 153.633 8.96191L152.497 8.96777C131.765 8.96774 112.568 2.60608 96.6719 -8.27832C100.166 -26.8973 109.011 -44.7079 123.259 -59.2334L123.945 -59.9268C143.245 -79.2258 168.516 -88.8796 193.8 -88.9033ZM338.249 -71.6729C376.501 -97.8373 429.009 -94.2158 463.244 -60.708L464.051 -59.9092C478.68 -45.2627 487.751 -27.1858 491.32 -8.27441C475.657 2.43633 456.816 8.7667 436.478 8.96289L435.503 8.96777H435.502C387.117 8.98515 346.869 -25.7819 338.249 -71.6729ZM95.7754 -171.112C96.5293 -167.17 97.5222 -163.266 98.7529 -159.423C102.836 -146.653 109.549 -134.557 118.9 -123.97C120.069 -122.645 121.277 -121.343 122.527 -120.066L123.22 -119.366H123.221C157.691 -84.8969 211.034 -80.891 249.93 -107.256L249.931 -107.253L249.938 -107.258C250.926 -101.649 251.475 -95.8968 251.475 -90.0176C251.475 -84.1026 250.924 -78.3481 249.936 -72.7529C233.034 -84.2011 213.414 -89.9212 193.801 -89.9033H193.799C168.612 -89.8806 143.433 -80.398 124.044 -61.4404L123.228 -60.6338C108.561 -45.9501 99.4061 -27.8505 95.7627 -8.90234C70.2128 -26.786 53.5001 -56.4593 53.5 -90.0176C53.5 -123.539 70.2104 -153.211 95.7754 -171.112ZM492.235 -171.134C517.77 -153.216 534.5 -123.576 534.5 -90C534.5 -56.4414 517.77 -26.768 492.236 -8.91895C488.576 -27.8674 479.422 -45.9846 464.755 -60.6514L463.939 -61.458C429.466 -95.1817 376.654 -98.9207 338.047 -72.7646C337.058 -78.3617 336.508 -84.1176 336.508 -90.0176C336.508 -95.8949 337.072 -101.662 338.046 -107.258C376.636 -81.098 429.467 -84.8347 463.942 -118.542L464.758 -119.349H464.759C474.705 -129.306 482.108 -140.835 486.984 -153.144C489.306 -158.997 491.055 -165.023 492.235 -171.134ZM152.479 -188.985C200.859 -188.985 241.12 -154.242 249.729 -108.341C211.477 -82.1649 158.993 -85.8036 124.742 -119.275L123.935 -120.073L123.248 -120.766C122.236 -121.796 121.253 -122.844 120.296 -123.906C110.711 -134.565 103.845 -146.799 99.7051 -159.729C98.4409 -163.683 97.4313 -167.702 96.6758 -171.761C96.9891 -171.975 97.3042 -172.187 97.6201 -172.397C111.535 -181.672 127.94 -187.541 145.632 -188.752C145.675 -188.755 145.718 -188.758 145.762 -188.761C146.364 -188.801 146.969 -188.837 147.574 -188.866C149.199 -188.945 150.834 -188.985 152.479 -188.985ZM435.499 -188.968C456.213 -188.968 475.409 -182.607 491.323 -171.74C490.199 -165.765 488.527 -159.876 486.306 -154.153C481.591 -142.025 474.408 -130.631 464.733 -120.767L464.047 -120.073C429.847 -85.8916 376.84 -81.9607 338.29 -108.315C345.391 -146.315 374.198 -176.671 411.359 -186.008C418.733 -187.856 426.436 -188.876 434.363 -188.962L435.499 -188.968ZM123.927 -260.084C147.663 -283.784 180.448 -292.939 211.177 -287.55C200.353 -271.532 194.009 -252.277 194.009 -231.515C194.009 -182.795 228.888 -142.23 275.042 -133.365C271.767 -128.695 268.088 -124.238 263.924 -120.057C259.745 -115.912 255.307 -112.22 250.645 -108.962L250.644 -108.969L250.63 -108.96C241.763 -155.11 201.198 -189.985 152.479 -189.985H152.479C152.15 -189.985 151.822 -189.984 151.494 -189.98C150.846 -189.974 150.2 -189.962 149.555 -189.943C149.536 -189.943 149.517 -189.942 149.498 -189.941C148.87 -189.923 148.244 -189.899 147.619 -189.869C147.26 -189.852 146.901 -189.834 146.543 -189.812C128.05 -188.73 110.927 -182.62 96.4766 -172.836C91.1383 -203.08 99.9067 -235.299 122.816 -258.955L123.927 -260.084ZM376.847 -287.55C407.093 -292.855 439.33 -284.086 462.953 -261.177L464.08 -260.066C487.816 -236.331 496.97 -203.547 491.564 -172.836C475.562 -183.659 456.29 -189.985 435.546 -189.985C426.733 -189.985 418.187 -188.845 410.048 -186.704C373.177 -177.026 344.639 -146.789 337.353 -108.981C332.683 -112.249 328.256 -115.92 324.103 -120.057H324.102C319.921 -124.238 316.24 -128.695 312.965 -133.365C359.119 -142.229 393.998 -182.777 394.016 -231.515H394.017C394.017 -252.294 387.653 -271.549 376.847 -287.55ZM293.995 -330.5C327.563 -330.5 357.213 -313.779 375.115 -288.257C356.449 -284.671 338.621 -275.729 324.08 -261.466L323.381 -260.773C288.91 -226.303 284.886 -172.959 311.253 -134.063C305.659 -133.06 299.891 -132.512 293.995 -132.512C288.114 -132.512 282.36 -133.078 276.763 -134.068C303.126 -172.963 299.102 -226.305 264.65 -260.756L263.95 -261.449C249.392 -275.729 231.563 -284.654 212.896 -288.239C230.798 -313.772 260.437 -330.5 293.995 -330.5ZM212.274 -287.338C230.91 -283.844 248.721 -274.966 263.229 -260.734L263.921 -260.049H263.922C298.153 -225.836 302.055 -172.802 275.683 -134.266C229.777 -142.871 195.03 -183.115 195.03 -231.515C195.03 -252.228 201.407 -271.424 212.274 -287.338ZM375.749 -287.338C386.609 -271.41 392.983 -252.238 392.983 -231.515C392.983 -183.118 358.241 -142.877 312.341 -134.268C286.177 -172.501 289.815 -225.006 323.306 -259.241L324.104 -260.049C338.736 -274.68 356.817 -283.788 375.749 -287.338Z" stroke="white"/>
</g>
<path d="M149.522 77.3677C150.393 77.526 151.29 77.6169 152.208 77.6169C153.128 77.6169 154.028 77.5286 154.898 77.3677C150.932 71.6887 151.505 63.8528 156.626 58.8019C158.823 56.6346 161.539 55.2901 164.383 54.7736C161.718 50.9607 157.26 48.4561 152.208 48.4561C147.158 48.4561 142.702 50.9607 140.038 54.7736C142.881 55.2901 145.598 56.6346 147.794 58.8019C152.915 63.8528 153.489 71.6887 149.522 77.3677Z" fill="white"/>
<path d="M154.898 90.1776C154.028 90.0192 153.131 89.9336 152.208 89.9336C151.29 89.9336 150.393 90.0192 149.522 90.1776C153.489 95.8592 152.915 103.698 147.797 108.746C145.601 110.916 142.881 112.255 140.038 112.772C142.702 116.592 147.158 119.092 152.208 119.092C157.26 119.092 161.716 116.59 164.38 112.772C161.537 112.255 158.82 110.916 156.624 108.746C151.505 103.698 150.932 95.8618 154.898 90.1776Z" fill="white"/>
<path d="M188 83.7716C188 78.7855 185.462 74.3887 181.599 71.7568C181.073 74.56 179.715 77.2464 177.517 79.4163C172.398 84.4646 164.458 85.033 158.701 81.1163C158.543 81.9755 158.451 82.8631 158.451 83.769C158.451 84.6774 158.54 85.5625 158.701 86.4216C164.458 82.5075 172.398 83.0708 177.517 88.1243C179.713 90.2915 181.073 92.9753 181.599 95.7785C185.462 93.157 188 88.755 188 83.7716Z" fill="white"/>
<path d="M145.72 86.4245C145.88 85.5654 145.97 84.6803 145.97 83.7693C145.97 82.8635 145.88 81.9784 145.72 81.1167C139.963 85.0333 132.025 84.4675 126.904 79.4166C124.705 77.2493 123.348 74.5681 122.827 71.7598C118.958 74.389 116.423 78.7911 116.423 83.7693C116.423 88.7527 118.958 93.1548 122.825 95.7814C123.348 92.9783 124.708 90.2971 126.904 88.1272C132.025 83.0737 139.965 82.5105 145.72 86.4245Z" fill="white"/>
<path d="M154.898 77.3668C155.403 78.0884 155.974 78.7762 156.626 79.4199C157.276 80.0584 157.97 80.6216 158.704 81.1199C159.967 74.3352 165.987 69.1935 173.228 69.1935C176.334 69.1935 179.217 70.1408 181.6 71.7578C182.449 67.2027 181.089 62.3231 177.518 58.7983C173.949 55.2736 169.004 53.9343 164.385 54.7701C166.021 57.1216 166.987 59.9637 166.987 63.0343C166.984 70.1798 161.774 76.1183 154.898 77.3668Z" fill="white"/>
<path d="M154.9 77.3662C161.775 76.1178 166.985 70.1792 166.985 63.0337C166.985 59.9632 166.022 57.1237 164.384 54.7695C161.541 55.286 158.824 56.6305 156.628 58.7978C151.507 63.8513 150.933 71.6872 154.9 77.3662Z" fill="#F4DFEC"/>
<path d="M158.699 81.1221C164.454 85.0362 172.397 84.473 177.515 79.4221C179.711 77.2522 181.069 74.571 181.595 71.7626C179.212 70.1456 176.332 69.1982 173.223 69.1982C165.985 69.1956 159.967 74.3374 158.699 81.1221Z" fill="#F4DFEC"/>
<path d="M149.523 90.1763C149.021 89.4574 148.445 88.7695 147.798 88.1285C147.148 87.4874 146.451 86.9215 145.72 86.4258C144.458 93.2079 138.437 98.3523 131.197 98.3523C128.09 98.3523 125.208 97.4049 122.825 95.7853C121.975 100.346 123.332 105.225 126.904 108.747C130.476 112.27 135.421 113.614 140.039 112.773C138.401 110.427 137.438 107.579 137.438 104.514C137.438 97.366 142.648 91.43 149.523 90.1763Z" fill="white"/>
<path d="M149.523 90.1777C142.648 91.4288 137.438 97.3648 137.438 104.513C137.438 107.578 138.4 110.423 140.039 112.772C142.882 112.255 145.599 110.916 147.798 108.746C152.916 103.698 153.489 95.862 149.523 90.1777Z" fill="#F4DFEC"/>
<path d="M145.721 86.4265C139.963 82.5124 132.025 83.0757 126.905 88.1292C124.706 90.299 123.349 92.9802 122.825 95.7834C125.205 97.403 128.085 98.3504 131.197 98.3504C138.435 98.353 144.455 93.2086 145.721 86.4265Z" fill="#F4DFEC"/>
<path d="M158.7 86.4258C157.971 86.9215 157.274 87.4874 156.624 88.1285C155.972 88.767 155.401 89.4574 154.896 90.1763C161.772 91.4222 166.982 97.3634 166.982 104.509C166.982 107.577 166.019 110.421 164.381 112.773C168.997 113.611 173.941 112.27 177.516 108.745C181.087 105.223 182.445 100.34 181.595 95.7827C179.212 97.4023 176.332 98.3497 173.223 98.3497C165.985 98.3523 159.967 93.2079 158.7 86.4258Z" fill="white"/>
<path d="M154.9 90.1777C150.933 95.8594 151.507 103.698 156.628 108.746C158.824 110.916 161.541 112.255 164.384 112.772C166.02 110.425 166.985 107.578 166.985 104.513C166.985 97.3674 161.775 91.4314 154.9 90.1777Z" fill="#F4DFEC"/>
<path d="M158.699 86.4263C159.967 93.2084 165.985 98.3528 173.223 98.3528C176.334 98.3528 179.212 97.4054 181.595 95.7858C181.069 92.9826 179.711 90.3014 177.515 88.1316C172.397 83.0755 164.457 82.5122 158.699 86.4263Z" fill="#F4DFEC"/>
<path d="M145.721 81.1197C146.452 80.624 147.146 80.0582 147.799 79.4197C148.448 78.776 149.019 78.0881 149.524 77.3666C142.649 76.1181 137.438 70.177 137.438 63.034C137.438 59.9661 138.401 57.124 140.04 54.7699C135.421 53.9341 130.476 55.276 126.905 58.7955C123.333 62.3229 121.976 67.1999 122.828 71.7576C125.206 70.1432 128.088 69.1932 131.197 69.1932C138.435 69.1932 144.456 74.335 145.721 81.1197Z" fill="white"/>
<path d="M149.523 77.3666C153.489 71.6876 152.916 63.8516 147.798 58.8007C145.599 56.6309 142.882 55.289 140.039 54.7725C138.4 57.124 137.438 59.9661 137.438 63.034C137.438 70.1796 142.648 76.1181 149.523 77.3666Z" fill="#F4DFEC"/>
<path d="M145.721 81.1208C144.456 74.3361 138.435 69.1943 131.197 69.1943C128.088 69.1943 125.208 70.1417 122.828 71.7587C123.349 74.5671 124.709 77.2483 126.905 79.4181C132.026 84.4717 139.966 85.0349 145.721 81.1208Z" fill="#F4DFEC"/>
</g>
<defs>
<clipPath id="clip0_14219_102657">
<rect width="304" height="168" fill="white"/>
</clipPath>
</defs>
</svg>
