<svg width="304" height="168" viewBox="0 0 304 168" fill="none" xmlns="http://www.w3.org/2000/svg">
<g clip-path="url(#clip0_14219_102481)">
<rect width="304" height="168" fill="#FFF8E1"/>
<g style="mix-blend-mode:screen">
<path d="M26.9951 -7.4707C32.9019 -7.4707 38.6481 -6.93912 44.2344 -5.95508V-5.9541L44.251 -5.95117C18.3326 32.3022 21.7831 84.5183 54.6562 118.99C54.9595 119.308 55.265 119.625 55.5732 119.94L56.3799 120.756C58.8719 123.251 61.4639 125.585 64.1416 127.76C65.2676 128.674 66.4088 129.561 67.5645 130.419C79.8348 139.53 93.7238 145.456 108.111 148.22C90.2105 173.787 60.5717 190.5 26.9951 190.5C-6.56389 190.5 -36.2028 173.805 -54.1035 148.221C-50.2501 147.481 -46.4325 146.513 -42.6719 145.319C-42.4744 145.257 -42.2772 145.193 -42.0801 145.129C-39.4468 144.275 -36.842 143.309 -34.2734 142.231C-24.0653 137.949 -14.4261 131.899 -5.82812 124.072C-4.88977 123.219 -3.96303 122.345 -3.0498 121.449L-2.34961 120.756C32.1029 86.3216 36.1262 32.9791 9.76172 -5.9502C15.3573 -6.93762 21.1119 -7.47069 26.9951 -7.4707ZM-16.3525 -31.0439C-11.9903 -27.9975 -7.81475 -24.5702 -3.88867 -20.7363L-3.06836 -19.9268C1.07949 -15.762 4.79053 -11.306 8.05176 -6.65332C5.26199 -6.11544 2.5137 -5.46113 -0.188477 -4.69727C-21.3751 1.28741 -39.7072 14.063 -52.6738 31.1357C-65.417 47.9091 -72.9814 68.8285 -72.9814 91.5322C-72.9814 112.276 -66.6375 131.564 -55.8145 147.532C-86.0592 152.87 -118.295 144.069 -141.936 121.176L-143.064 120.066C-166.8 96.3484 -175.937 63.5638 -170.53 32.8174C-154.528 43.6575 -135.256 49.9854 -114.512 49.9854C-74.5765 49.9853 -40.1279 26.5562 -24.1191 -7.28711C-20.5885 -14.7466 -17.9538 -22.7118 -16.3525 -31.0439ZM70.3477 -31.0459C79.2298 15.089 119.778 49.9853 168.499 49.9854C189.281 49.9854 208.521 43.6552 224.523 32.8125C229.84 63.054 221.072 95.301 198.166 118.921L197.055 120.048C173.302 143.783 140.518 152.938 109.807 147.532L109.815 147.521L109.812 147.52C110.072 147.135 110.329 146.749 110.584 146.36C120.922 130.621 126.983 111.761 126.983 91.5146C126.983 77.5032 124.099 64.1706 118.895 52.0723C118.723 51.6731 118.549 51.2754 118.372 50.8789C118.239 50.5803 118.105 50.2824 117.969 49.9854C104.803 21.1939 78.3647 -0.253902 46.4795 -6.54883C46.3058 -6.58329 46.132 -6.6178 45.958 -6.65137L45.9639 -6.6582L45.9463 -6.66211C49.0063 -11.0111 52.4197 -15.1975 56.2627 -19.1084L57.0752 -19.9248L57.0771 -19.9268C61.2406 -24.0901 65.695 -27.786 70.3477 -31.0459ZM46.0312 -5.61914C77.8143 0.600993 104.162 21.9814 117.19 50.6914C122.83 63.1317 125.973 76.9464 125.973 91.4971C125.973 111.019 120.308 129.209 110.559 144.56C109.967 145.491 109.358 146.411 108.736 147.32C89.8024 143.771 71.7205 134.699 57.0879 120.049H57.0869C56.7787 119.741 56.4742 119.43 56.1709 119.119C22.8074 84.8991 19.2069 32.4738 45.3398 -5.75C45.5705 -5.7068 45.8011 -5.66394 46.0312 -5.61914ZM8.68262 -5.75391C35.0562 32.8 31.1533 85.8531 -3.06055 120.049H-3.06152C-4.31376 121.303 -5.59219 122.514 -6.89355 123.687C-15.5341 131.462 -25.2088 137.443 -35.4473 141.636C-41.7 144.196 -48.1626 146.089 -54.7256 147.319C-65.5923 131.423 -71.9697 112.21 -71.9697 91.5146C-71.9697 69.108 -64.5276 48.456 -51.9824 31.8779C-39.361 15.2043 -21.5774 2.65269 -1.00977 -3.41895C2.15803 -4.35343 5.39141 -5.1357 8.68262 -5.75391ZM-73.2002 -48.9033C-68.8789 -48.9073 -64.5576 -48.6288 -60.2656 -48.0703C-59.8672 -48.0185 -59.4692 -47.9639 -59.0713 -47.9072C-44.3511 -45.8099 -30.0124 -40.3966 -17.2607 -31.6699C-18.8841 -22.9941 -21.6383 -14.716 -25.3672 -6.99512C-25.5052 -6.70952 -25.6445 -6.42469 -25.7852 -6.14062C-25.9904 -5.72591 -26.1983 -5.31277 -26.4092 -4.90137C-42.6487 26.7656 -75.4429 48.5486 -113.367 48.9619L-114.503 48.9678C-135.235 48.9677 -154.432 42.6061 -170.328 31.7217C-166.834 13.1027 -157.989 -4.70789 -143.741 -19.2334L-143.055 -19.9268C-123.755 -39.2258 -98.4841 -48.8796 -73.2002 -48.9033ZM71.249 -31.6729C109.501 -57.8373 162.009 -54.2158 196.244 -20.708L197.051 -19.9092C211.68 -5.26269 220.751 12.8142 224.32 31.7256C208.657 42.4363 189.816 48.7667 169.478 48.9629L168.503 48.9678H168.502C120.117 48.9852 79.8694 14.2181 71.249 -31.6729ZM-171.225 -131.112C-170.471 -127.17 -169.478 -123.266 -168.247 -119.423C-164.164 -106.653 -157.451 -94.5566 -148.1 -83.9697C-146.931 -82.6449 -145.723 -81.3426 -144.473 -80.0664L-143.78 -79.3662H-143.779C-109.309 -44.8969 -55.9656 -40.891 -17.0703 -67.2559L-17.0693 -67.2529L-17.0625 -67.2578C-16.0744 -61.6485 -15.5254 -55.8968 -15.5254 -50.0176C-15.5254 -44.1026 -16.0759 -38.3481 -17.0645 -32.7529C-33.9664 -44.2011 -53.5861 -49.9212 -73.1992 -49.9033H-73.2012C-98.3884 -49.8806 -123.567 -40.398 -142.956 -21.4404L-143.772 -20.6338C-158.439 -5.95008 -167.594 12.1495 -171.237 31.0977C-196.787 13.214 -213.5 -16.4593 -213.5 -50.0176C-213.5 -83.5388 -196.79 -113.211 -171.225 -131.112ZM225.235 -131.134C250.77 -113.216 267.5 -83.5761 267.5 -50C267.5 -16.4414 250.77 13.232 225.236 31.0811C221.576 12.1326 212.422 -5.98458 197.755 -20.6514L196.939 -21.458C162.466 -55.1817 109.654 -58.9207 71.0469 -32.7646C70.0576 -38.3617 69.5078 -44.1176 69.5078 -50.0176C69.5078 -55.8949 70.0719 -61.6621 71.0459 -67.2578C109.636 -41.098 162.467 -44.8347 196.942 -78.542L197.758 -79.3486H197.759C207.705 -89.3062 215.108 -100.835 219.984 -113.144C222.306 -118.997 224.055 -125.023 225.235 -131.134ZM-114.521 -148.985C-66.1406 -148.985 -25.8798 -114.242 -17.2715 -68.3408C-55.523 -42.1649 -108.007 -45.8036 -142.258 -79.2754L-143.065 -80.0732L-143.752 -80.7656C-144.764 -81.7958 -145.747 -82.8436 -146.704 -83.9062C-156.289 -94.5652 -163.155 -106.799 -167.295 -119.729C-168.559 -123.683 -169.569 -127.702 -170.324 -131.761C-170.011 -131.975 -169.696 -132.187 -169.38 -132.397C-155.465 -141.672 -139.06 -147.541 -121.368 -148.752C-121.325 -148.755 -121.282 -148.758 -121.238 -148.761C-120.636 -148.801 -120.031 -148.837 -119.426 -148.866C-117.801 -148.945 -116.166 -148.985 -114.521 -148.985ZM168.499 -148.968C189.213 -148.968 208.409 -142.607 224.323 -131.74C223.199 -125.765 221.527 -119.876 219.306 -114.153C214.591 -102.025 207.408 -90.6307 197.733 -80.7666L197.047 -80.0732C162.847 -45.8916 109.84 -41.9607 71.29 -68.3154C78.3914 -106.315 107.198 -136.671 144.359 -146.008C151.733 -147.856 159.436 -148.876 167.363 -148.962L168.499 -148.968ZM-143.073 -220.084C-119.337 -243.784 -86.5525 -252.939 -55.8232 -247.55C-66.6467 -231.532 -72.9912 -212.277 -72.9912 -191.515C-72.9912 -142.795 -38.1115 -102.23 8.04199 -93.3652C4.767 -88.6952 1.08789 -84.2377 -3.07617 -80.0566C-7.25508 -75.9115 -11.6927 -72.2198 -16.3555 -68.9619L-16.3564 -68.9688L-16.3701 -68.96C-25.2373 -115.11 -65.8019 -149.985 -114.521 -149.985H-114.521C-114.85 -149.985 -115.178 -149.984 -115.506 -149.98C-116.154 -149.974 -116.8 -149.962 -117.445 -149.943C-117.464 -149.943 -117.483 -149.942 -117.502 -149.941C-118.13 -149.923 -118.756 -149.899 -119.381 -149.869C-119.74 -149.852 -120.099 -149.834 -120.457 -149.812C-138.95 -148.73 -156.073 -142.62 -170.523 -132.836C-175.862 -163.08 -167.093 -195.299 -144.184 -218.955L-143.073 -220.084ZM109.847 -247.55C140.093 -252.855 172.33 -244.086 195.953 -221.177L197.08 -220.066C220.816 -196.331 229.97 -163.547 224.564 -132.836C208.562 -143.659 189.29 -149.985 168.546 -149.985C159.733 -149.985 151.187 -148.845 143.048 -146.704C106.177 -137.026 77.6395 -106.789 70.3525 -68.9814C65.683 -72.2494 61.256 -75.9201 57.1025 -80.0566H57.1016C52.9206 -84.2377 49.2401 -88.6948 45.9648 -93.3652C92.1186 -102.229 126.998 -142.777 127.016 -191.515H127.017C127.017 -212.294 120.653 -231.549 109.847 -247.55ZM26.9951 -290.5C60.5627 -290.5 90.2126 -273.779 108.115 -248.257C89.4488 -244.671 71.6215 -235.729 57.0801 -221.466L56.3809 -220.773C21.9101 -186.303 17.8859 -132.959 44.2529 -94.0635C38.6591 -93.0603 32.8911 -92.5117 26.9951 -92.5117C21.1139 -92.5117 15.3598 -93.0779 9.7627 -94.0684C36.1263 -132.963 32.1022 -186.305 -2.34961 -220.756L-3.0498 -221.449C-17.6083 -235.729 -35.4368 -244.654 -54.1035 -248.239C-36.2024 -273.772 -6.56284 -290.5 26.9951 -290.5ZM-54.7256 -247.338C-36.0903 -243.844 -18.2792 -234.966 -3.77051 -220.734L-3.0791 -220.049H-3.07812C31.1532 -185.836 35.0551 -132.802 8.68262 -94.2656C-37.223 -102.871 -71.9697 -143.115 -71.9697 -191.515C-71.9697 -212.228 -65.5927 -231.424 -54.7256 -247.338ZM108.749 -247.338C119.609 -231.41 125.983 -212.238 125.983 -191.515C125.983 -143.118 91.2413 -102.877 45.3408 -94.2676C19.1768 -132.501 22.8146 -185.006 56.3057 -219.241L57.1045 -220.049C71.7364 -234.68 89.8172 -243.788 108.749 -247.338Z" fill="white" fill-opacity="0.3"/>
<path d="M26.9951 -7.4707C32.9019 -7.4707 38.6481 -6.93912 44.2344 -5.95508V-5.9541L44.251 -5.95117C18.3326 32.3022 21.7831 84.5183 54.6562 118.99C54.9595 119.308 55.265 119.625 55.5732 119.94L56.3799 120.756C58.8719 123.251 61.4639 125.585 64.1416 127.76C65.2676 128.674 66.4088 129.561 67.5645 130.419C79.8348 139.53 93.7238 145.456 108.111 148.22C90.2105 173.787 60.5717 190.5 26.9951 190.5C-6.56389 190.5 -36.2028 173.805 -54.1035 148.221C-50.2501 147.481 -46.4325 146.513 -42.6719 145.319C-42.4744 145.257 -42.2772 145.193 -42.0801 145.129C-39.4468 144.275 -36.842 143.309 -34.2734 142.231C-24.0653 137.949 -14.4261 131.899 -5.82812 124.072C-4.88977 123.219 -3.96303 122.345 -3.0498 121.449L-2.34961 120.756C32.1029 86.3216 36.1262 32.9791 9.76172 -5.9502C15.3573 -6.93762 21.1119 -7.47069 26.9951 -7.4707ZM-16.3525 -31.0439C-11.9903 -27.9975 -7.81475 -24.5702 -3.88867 -20.7363L-3.06836 -19.9268C1.07949 -15.762 4.79053 -11.306 8.05176 -6.65332C5.26199 -6.11544 2.5137 -5.46113 -0.188477 -4.69727C-21.3751 1.28741 -39.7072 14.063 -52.6738 31.1357C-65.417 47.9091 -72.9814 68.8285 -72.9814 91.5322C-72.9814 112.276 -66.6375 131.564 -55.8145 147.532C-86.0592 152.87 -118.295 144.069 -141.936 121.176L-143.064 120.066C-166.8 96.3484 -175.937 63.5638 -170.53 32.8174C-154.528 43.6575 -135.256 49.9854 -114.512 49.9854C-74.5765 49.9853 -40.1279 26.5562 -24.1191 -7.28711C-20.5885 -14.7466 -17.9538 -22.7118 -16.3525 -31.0439ZM70.3477 -31.0459C79.2298 15.089 119.778 49.9853 168.499 49.9854C189.281 49.9854 208.521 43.6552 224.523 32.8125C229.84 63.054 221.072 95.301 198.166 118.921L197.055 120.048C173.302 143.783 140.518 152.938 109.807 147.532L109.815 147.521L109.812 147.52C110.072 147.135 110.329 146.749 110.584 146.36C120.922 130.621 126.983 111.761 126.983 91.5146C126.983 77.5032 124.099 64.1706 118.895 52.0723C118.723 51.6731 118.549 51.2754 118.372 50.8789C118.239 50.5803 118.105 50.2824 117.969 49.9854C104.803 21.1939 78.3647 -0.253902 46.4795 -6.54883C46.3058 -6.58329 46.132 -6.6178 45.958 -6.65137L45.9639 -6.6582L45.9463 -6.66211C49.0063 -11.0111 52.4197 -15.1975 56.2627 -19.1084L57.0752 -19.9248L57.0771 -19.9268C61.2406 -24.0901 65.695 -27.786 70.3477 -31.0459ZM46.0312 -5.61914C77.8143 0.600993 104.162 21.9814 117.19 50.6914C122.83 63.1317 125.973 76.9464 125.973 91.4971C125.973 111.019 120.308 129.209 110.559 144.56C109.967 145.491 109.358 146.411 108.736 147.32C89.8024 143.771 71.7205 134.699 57.0879 120.049H57.0869C56.7787 119.741 56.4742 119.43 56.1709 119.119C22.8074 84.8991 19.2069 32.4738 45.3398 -5.75C45.5705 -5.7068 45.8011 -5.66394 46.0312 -5.61914ZM8.68262 -5.75391C35.0562 32.8 31.1533 85.8531 -3.06055 120.049H-3.06152C-4.31376 121.303 -5.59219 122.514 -6.89355 123.687C-15.5341 131.462 -25.2088 137.443 -35.4473 141.636C-41.7 144.196 -48.1626 146.089 -54.7256 147.319C-65.5923 131.423 -71.9697 112.21 -71.9697 91.5146C-71.9697 69.108 -64.5276 48.456 -51.9824 31.8779C-39.361 15.2043 -21.5774 2.65269 -1.00977 -3.41895C2.15803 -4.35343 5.39141 -5.1357 8.68262 -5.75391ZM-73.2002 -48.9033C-68.8789 -48.9073 -64.5576 -48.6288 -60.2656 -48.0703C-59.8672 -48.0185 -59.4692 -47.9639 -59.0713 -47.9072C-44.3511 -45.8099 -30.0124 -40.3966 -17.2607 -31.6699C-18.8841 -22.9941 -21.6383 -14.716 -25.3672 -6.99512C-25.5052 -6.70952 -25.6445 -6.42469 -25.7852 -6.14062C-25.9904 -5.72591 -26.1983 -5.31277 -26.4092 -4.90137C-42.6487 26.7656 -75.4429 48.5486 -113.367 48.9619L-114.503 48.9678C-135.235 48.9677 -154.432 42.6061 -170.328 31.7217C-166.834 13.1027 -157.989 -4.70789 -143.741 -19.2334L-143.055 -19.9268C-123.755 -39.2258 -98.4841 -48.8796 -73.2002 -48.9033ZM71.249 -31.6729C109.501 -57.8373 162.009 -54.2158 196.244 -20.708L197.051 -19.9092C211.68 -5.26269 220.751 12.8142 224.32 31.7256C208.657 42.4363 189.816 48.7667 169.478 48.9629L168.503 48.9678H168.502C120.117 48.9852 79.8694 14.2181 71.249 -31.6729ZM-171.225 -131.112C-170.471 -127.17 -169.478 -123.266 -168.247 -119.423C-164.164 -106.653 -157.451 -94.5566 -148.1 -83.9697C-146.931 -82.6449 -145.723 -81.3426 -144.473 -80.0664L-143.78 -79.3662H-143.779C-109.309 -44.8969 -55.9656 -40.891 -17.0703 -67.2559L-17.0693 -67.2529L-17.0625 -67.2578C-16.0744 -61.6485 -15.5254 -55.8968 -15.5254 -50.0176C-15.5254 -44.1026 -16.0759 -38.3481 -17.0645 -32.7529C-33.9664 -44.2011 -53.5861 -49.9212 -73.1992 -49.9033H-73.2012C-98.3884 -49.8806 -123.567 -40.398 -142.956 -21.4404L-143.772 -20.6338C-158.439 -5.95008 -167.594 12.1495 -171.237 31.0977C-196.787 13.214 -213.5 -16.4593 -213.5 -50.0176C-213.5 -83.5388 -196.79 -113.211 -171.225 -131.112ZM225.235 -131.134C250.77 -113.216 267.5 -83.5761 267.5 -50C267.5 -16.4414 250.77 13.232 225.236 31.0811C221.576 12.1326 212.422 -5.98458 197.755 -20.6514L196.939 -21.458C162.466 -55.1817 109.654 -58.9207 71.0469 -32.7646C70.0576 -38.3617 69.5078 -44.1176 69.5078 -50.0176C69.5078 -55.8949 70.0719 -61.6621 71.0459 -67.2578C109.636 -41.098 162.467 -44.8347 196.942 -78.542L197.758 -79.3486H197.759C207.705 -89.3062 215.108 -100.835 219.984 -113.144C222.306 -118.997 224.055 -125.023 225.235 -131.134ZM-114.521 -148.985C-66.1406 -148.985 -25.8798 -114.242 -17.2715 -68.3408C-55.523 -42.1649 -108.007 -45.8036 -142.258 -79.2754L-143.065 -80.0732L-143.752 -80.7656C-144.764 -81.7958 -145.747 -82.8436 -146.704 -83.9062C-156.289 -94.5652 -163.155 -106.799 -167.295 -119.729C-168.559 -123.683 -169.569 -127.702 -170.324 -131.761C-170.011 -131.975 -169.696 -132.187 -169.38 -132.397C-155.465 -141.672 -139.06 -147.541 -121.368 -148.752C-121.325 -148.755 -121.282 -148.758 -121.238 -148.761C-120.636 -148.801 -120.031 -148.837 -119.426 -148.866C-117.801 -148.945 -116.166 -148.985 -114.521 -148.985ZM168.499 -148.968C189.213 -148.968 208.409 -142.607 224.323 -131.74C223.199 -125.765 221.527 -119.876 219.306 -114.153C214.591 -102.025 207.408 -90.6307 197.733 -80.7666L197.047 -80.0732C162.847 -45.8916 109.84 -41.9607 71.29 -68.3154C78.3914 -106.315 107.198 -136.671 144.359 -146.008C151.733 -147.856 159.436 -148.876 167.363 -148.962L168.499 -148.968ZM-143.073 -220.084C-119.337 -243.784 -86.5525 -252.939 -55.8232 -247.55C-66.6467 -231.532 -72.9912 -212.277 -72.9912 -191.515C-72.9912 -142.795 -38.1115 -102.23 8.04199 -93.3652C4.767 -88.6952 1.08789 -84.2377 -3.07617 -80.0566C-7.25508 -75.9115 -11.6927 -72.2198 -16.3555 -68.9619L-16.3564 -68.9688L-16.3701 -68.96C-25.2373 -115.11 -65.8019 -149.985 -114.521 -149.985H-114.521C-114.85 -149.985 -115.178 -149.984 -115.506 -149.98C-116.154 -149.974 -116.8 -149.962 -117.445 -149.943C-117.464 -149.943 -117.483 -149.942 -117.502 -149.941C-118.13 -149.923 -118.756 -149.899 -119.381 -149.869C-119.74 -149.852 -120.099 -149.834 -120.457 -149.812C-138.95 -148.73 -156.073 -142.62 -170.523 -132.836C-175.862 -163.08 -167.093 -195.299 -144.184 -218.955L-143.073 -220.084ZM109.847 -247.55C140.093 -252.855 172.33 -244.086 195.953 -221.177L197.08 -220.066C220.816 -196.331 229.97 -163.547 224.564 -132.836C208.562 -143.659 189.29 -149.985 168.546 -149.985C159.733 -149.985 151.187 -148.845 143.048 -146.704C106.177 -137.026 77.6395 -106.789 70.3525 -68.9814C65.683 -72.2494 61.256 -75.9201 57.1025 -80.0566H57.1016C52.9206 -84.2377 49.2401 -88.6948 45.9648 -93.3652C92.1186 -102.229 126.998 -142.777 127.016 -191.515H127.017C127.017 -212.294 120.653 -231.549 109.847 -247.55ZM26.9951 -290.5C60.5627 -290.5 90.2126 -273.779 108.115 -248.257C89.4488 -244.671 71.6215 -235.729 57.0801 -221.466L56.3809 -220.773C21.9101 -186.303 17.8859 -132.959 44.2529 -94.0635C38.6591 -93.0603 32.8911 -92.5117 26.9951 -92.5117C21.1139 -92.5117 15.3598 -93.0779 9.7627 -94.0684C36.1263 -132.963 32.1022 -186.305 -2.34961 -220.756L-3.0498 -221.449C-17.6083 -235.729 -35.4368 -244.654 -54.1035 -248.239C-36.2024 -273.772 -6.56284 -290.5 26.9951 -290.5ZM-54.7256 -247.338C-36.0903 -243.844 -18.2792 -234.966 -3.77051 -220.734L-3.0791 -220.049H-3.07812C31.1532 -185.836 35.0551 -132.802 8.68262 -94.2656C-37.223 -102.871 -71.9697 -143.115 -71.9697 -191.515C-71.9697 -212.228 -65.5927 -231.424 -54.7256 -247.338ZM108.749 -247.338C119.609 -231.41 125.983 -212.238 125.983 -191.515C125.983 -143.118 91.2413 -102.877 45.3408 -94.2676C19.1768 -132.501 22.8146 -185.006 56.3057 -219.241L57.1045 -220.049C71.7364 -234.68 89.8172 -243.788 108.749 -247.338Z" stroke="white"/>
</g>
<path d="M149.522 77.3677C150.393 77.526 151.29 77.6169 152.208 77.6169C153.128 77.6169 154.028 77.5286 154.898 77.3677C150.932 71.6887 151.505 63.8528 156.626 58.8019C158.822 56.6346 161.539 55.2901 164.382 54.7736C161.718 50.9607 157.26 48.4561 152.208 48.4561C147.158 48.4561 142.702 50.9607 140.038 54.7736C142.881 55.2901 145.598 56.6346 147.794 58.8019C152.915 63.8528 153.488 71.6887 149.522 77.3677Z" fill="white"/>
<path d="M154.898 90.1776C154.028 90.0192 153.131 89.9336 152.208 89.9336C151.29 89.9336 150.393 90.0192 149.522 90.1776C153.488 95.8592 152.915 103.698 147.797 108.746C145.601 110.916 142.881 112.255 140.038 112.772C142.702 116.592 147.158 119.092 152.208 119.092C157.26 119.092 161.715 116.59 164.38 112.772C161.537 112.255 158.82 110.916 156.624 108.746C151.505 103.698 150.932 95.8618 154.898 90.1776Z" fill="white"/>
<path d="M188 83.7716C188 78.7855 185.462 74.3887 181.598 71.7568C181.072 74.56 179.715 77.2464 177.516 79.4163C172.398 84.4646 164.458 85.033 158.7 81.1163C158.542 81.9755 158.45 82.8631 158.45 83.769C158.45 84.6774 158.54 85.5625 158.7 86.4216C164.458 82.5075 172.398 83.0708 177.516 88.1243C179.712 90.2915 181.072 92.9753 181.598 95.7785C185.462 93.157 188 88.755 188 83.7716Z" fill="white"/>
<path d="M145.72 86.4245C145.88 85.5654 145.97 84.6803 145.97 83.7693C145.97 82.8635 145.88 81.9784 145.72 81.1167C139.962 85.0333 132.025 84.4675 126.904 79.4166C124.705 77.2493 123.348 74.5681 122.827 71.7598C118.958 74.389 116.423 78.7911 116.423 83.7693C116.423 88.7527 118.958 93.1548 122.824 95.7814C123.348 92.9783 124.708 90.2971 126.904 88.1272C132.025 83.0737 139.965 82.5105 145.72 86.4245Z" fill="white"/>
<path d="M154.898 77.3668C155.403 78.0884 155.974 78.7762 156.626 79.4199C157.276 80.0584 157.97 80.6216 158.704 81.1199C159.966 74.3352 165.987 69.1935 173.228 69.1935C176.334 69.1935 179.216 70.1408 181.599 71.7578C182.449 67.2027 181.089 62.3231 177.517 58.7983C173.948 55.2736 169.004 53.9343 164.385 54.7701C166.021 57.1216 166.986 59.9637 166.986 63.0343C166.984 70.1798 161.773 76.1183 154.898 77.3668Z" fill="white"/>
<path d="M154.9 77.3662C161.775 76.1178 166.985 70.1792 166.985 63.0337C166.985 59.9632 166.022 57.1237 164.384 54.7695C161.541 55.286 158.824 56.6305 156.628 58.7978C151.507 63.8513 150.933 71.6872 154.9 77.3662Z" fill="#FFF8E1"/>
<path d="M158.699 81.1221C164.454 85.0362 172.397 84.473 177.515 79.4221C179.711 77.2522 181.068 74.571 181.594 71.7626C179.211 70.1456 176.331 69.1982 173.223 69.1982C165.984 69.1956 159.967 74.3374 158.699 81.1221Z" fill="#FFF8E1"/>
<path d="M149.523 90.1763C149.021 89.4574 148.445 88.7695 147.798 88.1285C147.148 87.4874 146.451 86.9215 145.72 86.4258C144.457 93.2079 138.437 98.3523 131.196 98.3523C128.09 98.3523 125.207 97.4049 122.824 95.7853C121.975 100.346 123.332 105.225 126.904 108.747C130.475 112.27 135.42 113.614 140.039 112.773C138.4 110.427 137.437 107.579 137.437 104.514C137.437 97.366 142.648 91.43 149.523 90.1763Z" fill="white"/>
<path d="M149.523 90.1777C142.648 91.4288 137.437 97.3648 137.437 104.513C137.437 107.578 138.4 110.423 140.038 112.772C142.882 112.255 145.599 110.916 147.797 108.746C152.916 103.698 153.489 95.862 149.523 90.1777Z" fill="#FFF8E1"/>
<path d="M145.72 86.4265C139.963 82.5124 132.025 83.0757 126.904 88.1292C124.706 90.299 123.348 92.9802 122.825 95.7834C125.205 97.403 128.085 98.3504 131.197 98.3504C138.435 98.353 144.455 93.2086 145.72 86.4265Z" fill="#FFF8E1"/>
<path d="M158.699 86.4258C157.971 86.9215 157.274 87.4874 156.624 88.1285C155.972 88.767 155.401 89.4574 154.896 90.1763C161.771 91.4222 166.981 97.3634 166.981 104.509C166.981 107.577 166.019 110.421 164.38 112.773C168.996 113.611 173.941 112.27 177.515 108.745C181.087 105.223 182.444 100.34 181.595 95.7827C179.212 97.4023 176.332 98.3497 173.223 98.3497C165.985 98.3523 159.967 93.2079 158.699 86.4258Z" fill="white"/>
<path d="M154.9 90.1777C150.933 95.8594 151.507 103.698 156.628 108.746C158.824 110.916 161.541 112.255 164.384 112.772C166.02 110.425 166.985 107.578 166.985 104.513C166.985 97.3674 161.775 91.4314 154.9 90.1777Z" fill="#FFF8E1"/>
<path d="M158.699 86.4263C159.967 93.2084 165.984 98.3528 173.223 98.3528C176.334 98.3528 179.211 97.4054 181.594 95.7858C181.068 92.9826 179.711 90.3014 177.515 88.1316C172.397 83.0755 164.456 82.5122 158.699 86.4263Z" fill="#FFF8E1"/>
<path d="M145.721 81.1197C146.452 80.624 147.146 80.0582 147.799 79.4197C148.448 78.776 149.019 78.0881 149.524 77.3666C142.649 76.1181 137.438 70.177 137.438 63.034C137.438 59.9661 138.401 57.124 140.04 54.7699C135.421 53.9341 130.476 55.276 126.905 58.7955C123.333 62.3229 121.976 67.1999 122.828 71.7576C125.206 70.1432 128.088 69.1932 131.197 69.1932C138.435 69.1932 144.456 74.335 145.721 81.1197Z" fill="white"/>
<path d="M149.523 77.3666C153.489 71.6876 152.916 63.8516 147.797 58.8007C145.599 56.6309 142.882 55.289 140.038 54.7725C138.4 57.124 137.437 59.9661 137.437 63.034C137.437 70.1796 142.648 76.1181 149.523 77.3666Z" fill="#FFF8E1"/>
<path d="M145.72 81.1208C144.455 74.3361 138.435 69.1943 131.197 69.1943C128.088 69.1943 125.208 70.1417 122.828 71.7587C123.348 74.5671 124.708 77.2483 126.904 79.4181C132.025 84.4717 139.966 85.0349 145.72 81.1208Z" fill="#FFF8E1"/>
</g>
<defs>
<clipPath id="clip0_14219_102481">
<rect width="304" height="168" fill="white"/>
</clipPath>
</defs>
</svg>
