<svg width="304" height="168" viewBox="0 0 304 168" fill="none" xmlns="http://www.w3.org/2000/svg">
<g clip-path="url(#clip0_14219_102649)">
<rect width="304" height="168" fill="#EBF4FB"/>
<g style="mix-blend-mode:screen">
<path d="M303.995 219.529C309.902 219.529 315.648 220.061 321.234 221.045V221.046L321.251 221.049C295.333 259.302 298.783 311.518 331.656 345.99C331.96 346.308 332.265 346.625 332.573 346.94L333.38 347.756C335.872 350.251 338.464 352.585 341.142 354.76C342.268 355.674 343.409 356.561 344.564 357.419C356.835 366.53 370.724 372.456 385.111 375.22C367.21 400.787 337.572 417.5 303.995 417.5C270.436 417.5 240.797 400.805 222.896 375.221C226.75 374.481 230.567 373.513 234.328 372.319C234.526 372.257 234.723 372.193 234.92 372.129C237.553 371.275 240.158 370.309 242.727 369.231C252.935 364.949 262.574 358.899 271.172 351.072C272.11 350.219 273.037 349.345 273.95 348.449L274.65 347.756C309.103 313.322 313.126 259.979 286.762 221.05C292.357 220.062 298.112 219.529 303.995 219.529ZM260.647 195.956C265.01 199.003 269.185 202.43 273.111 206.264L273.932 207.073C278.079 211.238 281.791 215.694 285.052 220.347C282.262 220.885 279.514 221.539 276.812 222.303C255.625 228.287 237.293 241.063 224.326 258.136C211.583 274.909 204.019 295.829 204.019 318.532C204.019 339.276 210.362 358.564 221.186 374.532C190.941 379.87 158.705 371.069 135.064 348.176L133.936 347.066C110.2 323.348 101.063 290.564 106.47 259.817C122.472 270.657 141.744 276.985 162.488 276.985C202.423 276.985 236.872 253.556 252.881 219.713C256.411 212.253 259.046 204.288 260.647 195.956ZM347.348 195.954C356.23 242.089 396.778 276.985 445.499 276.985C466.281 276.985 485.521 270.655 501.523 259.812C506.84 290.054 498.072 322.301 475.166 345.921L474.055 347.048C450.302 370.783 417.518 379.938 386.807 374.532L386.815 374.521L386.812 374.52C387.072 374.135 387.329 373.749 387.584 373.36C397.922 357.621 403.983 338.761 403.983 318.515C403.983 304.503 401.099 291.171 395.895 279.072C395.723 278.673 395.549 278.275 395.372 277.879C395.239 277.58 395.105 277.282 394.969 276.985C381.803 248.194 355.365 226.746 323.479 220.451C323.306 220.417 323.132 220.382 322.958 220.349L322.964 220.342L322.946 220.338C326.006 215.989 329.42 211.803 333.263 207.892L334.075 207.075L334.077 207.073C338.241 202.91 342.695 199.214 347.348 195.954ZM323.031 221.381C354.814 227.601 381.162 248.981 394.19 277.691C399.83 290.132 402.973 303.946 402.973 318.497C402.973 338.019 397.308 356.209 387.559 371.56C386.967 372.491 386.358 373.411 385.736 374.32C366.802 370.771 348.72 361.699 334.088 347.049H334.087C333.779 346.741 333.474 346.43 333.171 346.119C299.807 311.899 296.207 259.474 322.34 221.25C322.571 221.293 322.801 221.336 323.031 221.381ZM285.683 221.246C312.056 259.8 308.153 312.853 273.939 347.049H273.938C272.686 348.303 271.408 349.514 270.106 350.687C261.466 358.462 251.791 364.443 241.553 368.636C235.3 371.196 228.837 373.089 222.274 374.319C211.408 358.423 205.03 339.21 205.03 318.515C205.03 296.108 212.472 275.456 225.018 258.878C237.639 242.204 255.423 229.653 275.99 223.581C279.158 222.647 282.391 221.864 285.683 221.246ZM203.8 178.097C208.121 178.093 212.442 178.371 216.734 178.93C217.133 178.982 217.531 179.036 217.929 179.093C232.649 181.19 246.988 186.603 259.739 195.33C258.116 204.006 255.362 212.284 251.633 220.005C251.495 220.29 251.356 220.575 251.215 220.859C251.01 221.274 250.802 221.687 250.591 222.099C234.351 253.766 201.557 275.549 163.633 275.962L162.497 275.968C141.765 275.968 122.568 269.606 106.672 258.722C110.166 240.103 119.011 222.292 133.259 207.767L133.945 207.073C153.245 187.774 178.516 178.12 203.8 178.097ZM348.249 195.327C386.501 169.163 439.009 172.784 473.244 206.292L474.051 207.091C488.68 221.737 497.751 239.814 501.32 258.726C485.657 269.436 466.816 275.767 446.478 275.963L445.503 275.968H445.502C397.117 275.985 356.869 241.218 348.249 195.327ZM105.775 95.8877C106.529 99.8299 107.522 103.734 108.753 107.577C112.836 120.347 119.549 132.443 128.9 143.03C130.069 144.355 131.277 145.657 132.527 146.934L133.22 147.634H133.221C167.691 182.103 221.034 186.109 259.93 159.744L259.931 159.747L259.938 159.742C260.926 165.351 261.475 171.103 261.475 176.982C261.475 182.897 260.924 188.652 259.936 194.247C243.034 182.799 223.414 177.079 203.801 177.097H203.799C178.612 177.119 153.433 186.602 134.044 205.56L133.228 206.366C118.561 221.05 109.406 239.15 105.763 258.098C80.2128 240.214 63.5001 210.541 63.5 176.982C63.5 143.461 80.2104 113.789 105.775 95.8877ZM502.235 95.8662C527.77 113.784 544.5 143.424 544.5 177C544.5 210.559 527.77 240.232 502.236 258.081C498.576 239.133 489.422 221.015 474.755 206.349L473.939 205.542C439.466 171.818 386.654 168.079 348.047 194.235C347.058 188.638 346.508 182.882 346.508 176.982C346.508 171.105 347.072 165.338 348.046 159.742C386.636 185.902 439.467 182.165 473.942 148.458L474.758 147.651H474.759C484.705 137.694 492.108 126.165 496.984 113.856C499.306 108.003 501.055 101.977 502.235 95.8662ZM162.479 78.0146C210.859 78.0146 251.12 112.758 259.729 158.659C221.477 184.835 168.993 181.196 134.742 147.725L133.935 146.927L133.248 146.234C132.236 145.204 131.253 144.156 130.296 143.094C120.711 132.435 113.845 120.201 109.705 107.271C108.441 103.317 107.431 99.298 106.676 95.2393C106.989 95.0251 107.304 94.8132 107.62 94.6025C121.535 85.3284 137.94 79.4593 155.632 78.248C155.675 78.2451 155.718 78.2422 155.762 78.2393C156.364 78.1988 156.969 78.1634 157.574 78.1338C159.199 78.0545 160.834 78.0147 162.479 78.0146ZM445.499 78.0322C466.213 78.0322 485.409 84.393 501.323 95.2598C500.199 101.235 498.527 107.124 496.306 112.847C491.591 124.975 484.408 136.369 474.733 146.233L474.047 146.927C439.847 181.108 386.84 185.039 348.29 158.685C355.391 120.685 384.198 90.3286 421.359 80.9922C428.733 79.1441 436.436 78.1244 444.363 78.0381L445.499 78.0322ZM133.927 6.91602C157.663 -16.7844 190.448 -25.9387 221.177 -20.5498C210.353 -4.53177 204.009 14.7232 204.009 35.4854C204.009 84.2053 238.888 124.77 285.042 133.635C281.767 138.305 278.088 142.762 273.924 146.943C269.745 151.088 265.307 154.78 260.645 158.038L260.644 158.031L260.63 158.04C251.763 111.89 211.198 77.0146 162.479 77.0146H162.479C162.15 77.0146 161.822 77.0164 161.494 77.0195C160.846 77.0258 160.2 77.0381 159.555 77.0566C159.536 77.0572 159.517 77.058 159.498 77.0586C158.87 77.077 158.244 77.101 157.619 77.1309C157.26 77.1481 156.901 77.1665 156.543 77.1875C138.05 78.2704 120.927 84.3799 106.477 94.1641C101.138 63.9198 109.907 31.7007 132.816 8.04492L133.927 6.91602ZM386.847 -20.5498C417.093 -25.8548 449.33 -17.0862 472.953 5.82324L474.08 6.93359C497.816 30.6691 506.97 63.453 501.564 94.1641C485.562 83.3414 466.29 77.0146 445.546 77.0146C436.733 77.0147 428.187 78.1547 420.048 80.2959C383.177 89.9737 354.639 120.211 347.353 158.019C342.683 154.751 338.256 151.08 334.103 146.943H334.102C329.921 142.762 326.24 138.305 322.965 133.635C369.119 124.771 403.998 84.2229 404.016 35.4854H404.017C404.017 14.7055 397.653 -4.54898 386.847 -20.5498ZM303.995 -63.5C337.563 -63.5 367.213 -46.7786 385.115 -21.2568C366.449 -17.6712 348.621 -8.72927 334.08 5.53418L333.381 6.22656C298.91 40.6967 294.886 94.0415 321.253 132.937C315.659 133.94 309.891 134.488 303.995 134.488C298.114 134.488 292.36 133.922 286.763 132.932C313.126 94.0371 309.102 40.6954 274.65 6.24414L273.95 5.55078C259.392 -8.7293 241.563 -17.6542 222.896 -21.2393C240.798 -46.7716 270.437 -63.4999 303.995 -63.5ZM222.274 -20.3379C240.91 -16.8436 258.721 -7.96595 273.229 6.26562L273.921 6.95117H273.922C308.153 41.1643 312.055 94.1984 285.683 132.734C239.777 124.129 205.03 83.8853 205.03 35.4854C205.03 14.7723 211.407 -4.42394 222.274 -20.3379ZM385.749 -20.3379C396.609 -4.40988 402.983 14.7621 402.983 35.4854C402.983 83.8817 368.241 124.123 322.341 132.732C296.177 94.4985 299.815 41.9937 333.306 7.75879L334.104 6.95117C348.736 -7.68046 366.817 -16.7875 385.749 -20.3379Z" fill="white" fill-opacity="0.3"/>
<path d="M303.995 219.529C309.902 219.529 315.648 220.061 321.234 221.045V221.046L321.251 221.049C295.333 259.302 298.783 311.518 331.656 345.99C331.96 346.308 332.265 346.625 332.573 346.94L333.38 347.756C335.872 350.251 338.464 352.585 341.142 354.76C342.268 355.674 343.409 356.561 344.564 357.419C356.835 366.53 370.724 372.456 385.111 375.22C367.21 400.787 337.572 417.5 303.995 417.5C270.436 417.5 240.797 400.805 222.896 375.221C226.75 374.481 230.567 373.513 234.328 372.319C234.526 372.257 234.723 372.193 234.92 372.129C237.553 371.275 240.158 370.309 242.727 369.231C252.935 364.949 262.574 358.899 271.172 351.072C272.11 350.219 273.037 349.345 273.95 348.449L274.65 347.756C309.103 313.322 313.126 259.979 286.762 221.05C292.357 220.062 298.112 219.529 303.995 219.529ZM260.647 195.956C265.01 199.003 269.185 202.43 273.111 206.264L273.932 207.073C278.079 211.238 281.791 215.694 285.052 220.347C282.262 220.885 279.514 221.539 276.812 222.303C255.625 228.287 237.293 241.063 224.326 258.136C211.583 274.909 204.019 295.829 204.019 318.532C204.019 339.276 210.362 358.564 221.186 374.532C190.941 379.87 158.705 371.069 135.064 348.176L133.936 347.066C110.2 323.348 101.063 290.564 106.47 259.817C122.472 270.657 141.744 276.985 162.488 276.985C202.423 276.985 236.872 253.556 252.881 219.713C256.411 212.253 259.046 204.288 260.647 195.956ZM347.348 195.954C356.23 242.089 396.778 276.985 445.499 276.985C466.281 276.985 485.521 270.655 501.523 259.812C506.84 290.054 498.072 322.301 475.166 345.921L474.055 347.048C450.302 370.783 417.518 379.938 386.807 374.532L386.815 374.521L386.812 374.52C387.072 374.135 387.329 373.749 387.584 373.36C397.922 357.621 403.983 338.761 403.983 318.515C403.983 304.503 401.099 291.171 395.895 279.072C395.723 278.673 395.549 278.275 395.372 277.879C395.239 277.58 395.105 277.282 394.969 276.985C381.803 248.194 355.365 226.746 323.479 220.451C323.306 220.417 323.132 220.382 322.958 220.349L322.964 220.342L322.946 220.338C326.006 215.989 329.42 211.803 333.263 207.892L334.075 207.075L334.077 207.073C338.241 202.91 342.695 199.214 347.348 195.954ZM323.031 221.381C354.814 227.601 381.162 248.981 394.19 277.691C399.83 290.132 402.973 303.946 402.973 318.497C402.973 338.019 397.308 356.209 387.559 371.56C386.967 372.491 386.358 373.411 385.736 374.32C366.802 370.771 348.72 361.699 334.088 347.049H334.087C333.779 346.741 333.474 346.43 333.171 346.119C299.807 311.899 296.207 259.474 322.34 221.25C322.571 221.293 322.801 221.336 323.031 221.381ZM285.683 221.246C312.056 259.8 308.153 312.853 273.939 347.049H273.938C272.686 348.303 271.408 349.514 270.106 350.687C261.466 358.462 251.791 364.443 241.553 368.636C235.3 371.196 228.837 373.089 222.274 374.319C211.408 358.423 205.03 339.21 205.03 318.515C205.03 296.108 212.472 275.456 225.018 258.878C237.639 242.204 255.423 229.653 275.99 223.581C279.158 222.647 282.391 221.864 285.683 221.246ZM203.8 178.097C208.121 178.093 212.442 178.371 216.734 178.93C217.133 178.982 217.531 179.036 217.929 179.093C232.649 181.19 246.988 186.603 259.739 195.33C258.116 204.006 255.362 212.284 251.633 220.005C251.495 220.29 251.356 220.575 251.215 220.859C251.01 221.274 250.802 221.687 250.591 222.099C234.351 253.766 201.557 275.549 163.633 275.962L162.497 275.968C141.765 275.968 122.568 269.606 106.672 258.722C110.166 240.103 119.011 222.292 133.259 207.767L133.945 207.073C153.245 187.774 178.516 178.12 203.8 178.097ZM348.249 195.327C386.501 169.163 439.009 172.784 473.244 206.292L474.051 207.091C488.68 221.737 497.751 239.814 501.32 258.726C485.657 269.436 466.816 275.767 446.478 275.963L445.503 275.968H445.502C397.117 275.985 356.869 241.218 348.249 195.327ZM105.775 95.8877C106.529 99.8299 107.522 103.734 108.753 107.577C112.836 120.347 119.549 132.443 128.9 143.03C130.069 144.355 131.277 145.657 132.527 146.934L133.22 147.634H133.221C167.691 182.103 221.034 186.109 259.93 159.744L259.931 159.747L259.938 159.742C260.926 165.351 261.475 171.103 261.475 176.982C261.475 182.897 260.924 188.652 259.936 194.247C243.034 182.799 223.414 177.079 203.801 177.097H203.799C178.612 177.119 153.433 186.602 134.044 205.56L133.228 206.366C118.561 221.05 109.406 239.15 105.763 258.098C80.2128 240.214 63.5001 210.541 63.5 176.982C63.5 143.461 80.2104 113.789 105.775 95.8877ZM502.235 95.8662C527.77 113.784 544.5 143.424 544.5 177C544.5 210.559 527.77 240.232 502.236 258.081C498.576 239.133 489.422 221.015 474.755 206.349L473.939 205.542C439.466 171.818 386.654 168.079 348.047 194.235C347.058 188.638 346.508 182.882 346.508 176.982C346.508 171.105 347.072 165.338 348.046 159.742C386.636 185.902 439.467 182.165 473.942 148.458L474.758 147.651H474.759C484.705 137.694 492.108 126.165 496.984 113.856C499.306 108.003 501.055 101.977 502.235 95.8662ZM162.479 78.0146C210.859 78.0146 251.12 112.758 259.729 158.659C221.477 184.835 168.993 181.196 134.742 147.725L133.935 146.927L133.248 146.234C132.236 145.204 131.253 144.156 130.296 143.094C120.711 132.435 113.845 120.201 109.705 107.271C108.441 103.317 107.431 99.298 106.676 95.2393C106.989 95.0251 107.304 94.8132 107.62 94.6025C121.535 85.3284 137.94 79.4593 155.632 78.248C155.675 78.2451 155.718 78.2422 155.762 78.2393C156.364 78.1988 156.969 78.1634 157.574 78.1338C159.199 78.0545 160.834 78.0147 162.479 78.0146ZM445.499 78.0322C466.213 78.0322 485.409 84.393 501.323 95.2598C500.199 101.235 498.527 107.124 496.306 112.847C491.591 124.975 484.408 136.369 474.733 146.233L474.047 146.927C439.847 181.108 386.84 185.039 348.29 158.685C355.391 120.685 384.198 90.3286 421.359 80.9922C428.733 79.1441 436.436 78.1244 444.363 78.0381L445.499 78.0322ZM133.927 6.91602C157.663 -16.7844 190.448 -25.9387 221.177 -20.5498C210.353 -4.53177 204.009 14.7232 204.009 35.4854C204.009 84.2053 238.888 124.77 285.042 133.635C281.767 138.305 278.088 142.762 273.924 146.943C269.745 151.088 265.307 154.78 260.645 158.038L260.644 158.031L260.63 158.04C251.763 111.89 211.198 77.0146 162.479 77.0146H162.479C162.15 77.0146 161.822 77.0164 161.494 77.0195C160.846 77.0258 160.2 77.0381 159.555 77.0566C159.536 77.0572 159.517 77.058 159.498 77.0586C158.87 77.077 158.244 77.101 157.619 77.1309C157.26 77.1481 156.901 77.1665 156.543 77.1875C138.05 78.2704 120.927 84.3799 106.477 94.1641C101.138 63.9198 109.907 31.7007 132.816 8.04492L133.927 6.91602ZM386.847 -20.5498C417.093 -25.8548 449.33 -17.0862 472.953 5.82324L474.08 6.93359C497.816 30.6691 506.97 63.453 501.564 94.1641C485.562 83.3414 466.29 77.0146 445.546 77.0146C436.733 77.0147 428.187 78.1547 420.048 80.2959C383.177 89.9737 354.639 120.211 347.353 158.019C342.683 154.751 338.256 151.08 334.103 146.943H334.102C329.921 142.762 326.24 138.305 322.965 133.635C369.119 124.771 403.998 84.2229 404.016 35.4854H404.017C404.017 14.7055 397.653 -4.54898 386.847 -20.5498ZM303.995 -63.5C337.563 -63.5 367.213 -46.7786 385.115 -21.2568C366.449 -17.6712 348.621 -8.72927 334.08 5.53418L333.381 6.22656C298.91 40.6967 294.886 94.0415 321.253 132.937C315.659 133.94 309.891 134.488 303.995 134.488C298.114 134.488 292.36 133.922 286.763 132.932C313.126 94.0371 309.102 40.6954 274.65 6.24414L273.95 5.55078C259.392 -8.7293 241.563 -17.6542 222.896 -21.2393C240.798 -46.7716 270.437 -63.4999 303.995 -63.5ZM222.274 -20.3379C240.91 -16.8436 258.721 -7.96595 273.229 6.26562L273.921 6.95117H273.922C308.153 41.1643 312.055 94.1984 285.683 132.734C239.777 124.129 205.03 83.8853 205.03 35.4854C205.03 14.7723 211.407 -4.42394 222.274 -20.3379ZM385.749 -20.3379C396.609 -4.40988 402.983 14.7621 402.983 35.4854C402.983 83.8817 368.241 124.123 322.341 132.732C296.177 94.4985 299.815 41.9937 333.306 7.75879L334.104 6.95117C348.736 -7.68046 366.817 -16.7875 385.749 -20.3379Z" stroke="white"/>
</g>
<path d="M149.522 77.3677C150.393 77.526 151.29 77.6169 152.208 77.6169C153.128 77.6169 154.028 77.5286 154.898 77.3677C150.932 71.6887 151.505 63.8528 156.626 58.8019C158.822 56.6346 161.539 55.2901 164.382 54.7736C161.718 50.9607 157.26 48.4561 152.208 48.4561C147.158 48.4561 142.702 50.9607 140.038 54.7736C142.881 55.2901 145.598 56.6346 147.794 58.8019C152.915 63.8528 153.488 71.6887 149.522 77.3677Z" fill="white"/>
<path d="M154.898 90.1776C154.028 90.0192 153.131 89.9336 152.208 89.9336C151.29 89.9336 150.393 90.0192 149.522 90.1776C153.488 95.8592 152.915 103.698 147.797 108.746C145.601 110.916 142.881 112.255 140.038 112.772C142.702 116.592 147.158 119.092 152.208 119.092C157.26 119.092 161.715 116.59 164.38 112.772C161.537 112.255 158.82 110.916 156.624 108.746C151.505 103.698 150.932 95.8618 154.898 90.1776Z" fill="white"/>
<path d="M188 83.7716C188 78.7855 185.462 74.3887 181.598 71.7568C181.072 74.56 179.715 77.2464 177.516 79.4163C172.398 84.4646 164.458 85.033 158.7 81.1163C158.542 81.9755 158.45 82.8631 158.45 83.769C158.45 84.6774 158.54 85.5625 158.7 86.4216C164.458 82.5075 172.398 83.0708 177.516 88.1243C179.712 90.2915 181.072 92.9753 181.598 95.7785C185.462 93.157 188 88.755 188 83.7716Z" fill="white"/>
<path d="M145.72 86.4245C145.88 85.5654 145.97 84.6803 145.97 83.7693C145.97 82.8635 145.88 81.9784 145.72 81.1167C139.962 85.0333 132.025 84.4675 126.904 79.4166C124.705 77.2493 123.348 74.5681 122.827 71.7598C118.958 74.389 116.423 78.7911 116.423 83.7693C116.423 88.7527 118.958 93.1548 122.824 95.7814C123.348 92.9783 124.708 90.2971 126.904 88.1272C132.025 83.0737 139.965 82.5105 145.72 86.4245Z" fill="white"/>
<path d="M154.898 77.3668C155.403 78.0884 155.974 78.7762 156.626 79.4199C157.276 80.0584 157.97 80.6216 158.704 81.1199C159.966 74.3352 165.987 69.1935 173.228 69.1935C176.334 69.1935 179.216 70.1408 181.599 71.7578C182.449 67.2027 181.089 62.3231 177.517 58.7983C173.948 55.2736 169.004 53.9343 164.385 54.7701C166.021 57.1216 166.986 59.9637 166.986 63.0343C166.984 70.1798 161.773 76.1183 154.898 77.3668Z" fill="white"/>
<path d="M154.9 77.3662C161.775 76.1178 166.985 70.1792 166.985 63.0337C166.985 59.9632 166.022 57.1237 164.384 54.7695C161.541 55.286 158.824 56.6305 156.628 58.7978C151.507 63.8513 150.933 71.6872 154.9 77.3662Z" fill="#EBF4FB"/>
<path d="M158.699 81.1221C164.454 85.0362 172.397 84.473 177.515 79.4221C179.711 77.2522 181.068 74.571 181.594 71.7626C179.211 70.1456 176.331 69.1982 173.223 69.1982C165.984 69.1956 159.967 74.3374 158.699 81.1221Z" fill="#EBF4FB"/>
<path d="M149.523 90.1763C149.021 89.4574 148.445 88.7695 147.798 88.1285C147.148 87.4874 146.451 86.9215 145.72 86.4258C144.457 93.2079 138.437 98.3523 131.196 98.3523C128.09 98.3523 125.207 97.4049 122.824 95.7853C121.975 100.346 123.332 105.225 126.904 108.747C130.475 112.27 135.42 113.614 140.039 112.773C138.4 110.427 137.437 107.579 137.437 104.514C137.437 97.366 142.648 91.43 149.523 90.1763Z" fill="white"/>
<path d="M149.523 90.1777C142.648 91.4288 137.437 97.3648 137.437 104.513C137.437 107.578 138.4 110.423 140.038 112.772C142.882 112.255 145.599 110.916 147.797 108.746C152.916 103.698 153.489 95.862 149.523 90.1777Z" fill="#EBF4FB"/>
<path d="M145.72 86.4265C139.963 82.5124 132.025 83.0757 126.904 88.1292C124.706 90.299 123.348 92.9802 122.825 95.7834C125.205 97.403 128.085 98.3504 131.197 98.3504C138.435 98.353 144.455 93.2086 145.72 86.4265Z" fill="#EBF4FB"/>
<path d="M158.699 86.4258C157.971 86.9215 157.274 87.4874 156.624 88.1285C155.972 88.767 155.401 89.4574 154.896 90.1763C161.771 91.4222 166.981 97.3634 166.981 104.509C166.981 107.577 166.019 110.421 164.38 112.773C168.996 113.611 173.941 112.27 177.515 108.745C181.087 105.223 182.444 100.34 181.595 95.7827C179.212 97.4023 176.332 98.3497 173.223 98.3497C165.985 98.3523 159.967 93.2079 158.699 86.4258Z" fill="white"/>
<path d="M154.9 90.1777C150.933 95.8594 151.507 103.698 156.628 108.746C158.824 110.916 161.541 112.255 164.384 112.772C166.02 110.425 166.985 107.578 166.985 104.513C166.985 97.3674 161.775 91.4314 154.9 90.1777Z" fill="#EBF4FB"/>
<path d="M158.699 86.4263C159.967 93.2084 165.984 98.3528 173.223 98.3528C176.334 98.3528 179.211 97.4054 181.594 95.7858C181.068 92.9826 179.711 90.3014 177.515 88.1316C172.397 83.0755 164.456 82.5122 158.699 86.4263Z" fill="#EBF4FB"/>
<path d="M145.721 81.1197C146.452 80.624 147.146 80.0582 147.799 79.4197C148.448 78.776 149.019 78.0881 149.524 77.3666C142.649 76.1181 137.438 70.177 137.438 63.034C137.438 59.9661 138.401 57.124 140.04 54.7699C135.421 53.9341 130.476 55.276 126.905 58.7955C123.333 62.3229 121.976 67.1999 122.828 71.7576C125.206 70.1432 128.088 69.1932 131.197 69.1932C138.435 69.1932 144.456 74.335 145.721 81.1197Z" fill="white"/>
<path d="M149.523 77.3666C153.489 71.6876 152.916 63.8516 147.797 58.8007C145.599 56.6309 142.882 55.289 140.038 54.7725C138.4 57.124 137.437 59.9661 137.437 63.034C137.437 70.1796 142.648 76.1181 149.523 77.3666Z" fill="#EBF4FB"/>
<path d="M145.72 81.1208C144.455 74.3361 138.435 69.1943 131.197 69.1943C128.088 69.1943 125.208 70.1417 122.828 71.7587C123.348 74.5671 124.708 77.2483 126.904 79.4181C132.025 84.4717 139.966 85.0349 145.72 81.1208Z" fill="#EBF4FB"/>
</g>
<defs>
<clipPath id="clip0_14219_102649">
<rect width="304" height="168" fill="white"/>
</clipPath>
</defs>
</svg>
